<?xml version="1.0" standalone="no"?>
<!DOCTYPE svg PUBLIC "-//W3C//DTD SVG 1.1//EN" "http://www.w3.org/Graphics/SVG/1.1/DTD/svg11.dtd" >
<svg xmlns="http://www.w3.org/2000/svg" width="100%" height="100%">
<metadata>
Created by FontXChange 20100429 at Wed Sep 18 16:34:58 2013
 By James Aitken
(c) 1992-2007 Apple Inc.
</metadata>
<defs>
<font id="HoeflerText-BlackItalic" horiz-adv-x="800" >
  <font-face 
    font-family="Hoefler Text"
    font-weight="7"
    font-style="italic"
    font-stretch="normal"
    units-per-em="2000"
    panose-1="2 3 8 2 6 7 6 9 2 3"
    ascent="1600"
    descent="-400"
    x-height="913.999"
    cap-height="1380"
    bbox="-1000 -1192.45 3758 2029"
    underline-thickness="0"
    underline-position="0"
    slope="-13.5"
    unicode-range="U+0008-FE60"
  />
<missing-glyph horiz-adv-x="1600" 
d="M1500 0h-1400v1600h1400v-1600zM1400 100v1400h-1200v-1400h1200z" />
    <glyph glyph-name="fi" unicode="fi" horiz-adv-x="1302" 
d="M1286 1252c0 -44 -15.3301 -83.0029 -45.9971 -117.003s-68.667 -51 -114 -51c-38.667 0 -68.667 12 -90 36s-40 50.667 -56 80s-32.667 56 -50 80s-41.333 36 -72 36c-64 0 -111.667 -32.667 -143 -98s-69 -192 -113 -380h414c26.667 0 56.667 3.66699 90 11
s56 11 68 11c30.667 0 45.667 -18.667 45 -56s-9.66699 -76.666 -27 -117.999l-168 -414c-12 -28 -20.667 -49.667 -26 -65s-8 -26.333 -8 -33c0 -9.33301 1.66699 -15.666 5 -18.999s7.66602 -5 12.999 -5c28 0 57 15.667 87 47s49.667 47 59 47s19.333 -7 30 -21
s16 -23.667 16 -29c0 -22.667 -44 -67.667 -132 -135s-174.667 -101 -260 -101c-54.667 0 -95.334 9.66699 -122.001 29s-40 48.333 -40 87c0 20 2.33301 40.667 7 62s13.667 49.333 27 84l162 384c8 21.333 15 38.666 21 51.999s9 26 9 38c0 10.667 -2.33301 18.667 -7 24
s-10.334 8 -17.001 8h-272l-164 -688c-50.667 -206.667 -128 -358.334 -232 -455.001s-229.333 -145 -376 -145c-82.667 0 -156.667 23 -222 69s-98 98.333 -98 157c0 42.667 15 79.334 45 110.001s71 46 123 46c44 0 79 -13.667 105 -41s47 -55.666 63 -84.999
s32.667 -57.333 50 -84s38 -40 62 -40c32 0 57 22.333 75 67s34.333 102.334 49 173.001l190 894c1.33301 5.33301 1 10.333 -1 15s-8.33301 7 -19 7h-160c-5.33301 0 -9.33301 5.66699 -12 17s-4 19 -4 23c0 6.66699 2.33301 15 7 25s9.66699 15 15 15
c85.333 10.667 142.333 21 171 31s43.667 20.333 45 31c44 154.667 128 293 252 415s271.333 183 442 183c72 0 140.667 -22 206 -66s98 -93.333 98 -148z" />
    <glyph glyph-name="fl" unicode="fl" horiz-adv-x="1342" 
d="M1434 1430c0 -6.66699 -1.00098 -14.6709 -3.00098 -24.0039s-4.33301 -18.666 -7 -27.999l-362 -1106l-24 -76c-5.33301 -17.333 -8 -28.666 -8 -33.999c0 -4 1.33301 -7 4 -9s6 -3 10 -3c29.333 0 61.333 18.333 96 55s57.334 55 68.001 55c9.33301 0 19.333 -7 30 -21
s16 -23.667 16 -29c0 -21.333 -47.333 -68.666 -142 -141.999s-182.667 -110 -264 -110c-46.667 0 -82.334 12.667 -107.001 38s-37 61.333 -37 108c0 18.667 1.66699 36.334 5 53.001s8.33301 37.667 15 63l162 506h-308l-166 -688
c-48 -201.333 -124.667 -351.666 -230 -450.999s-230.666 -149 -375.999 -149c-84 0 -158.333 23 -223 69s-97 98.333 -97 157c0 45.333 14 82.666 42 111.999s70 44 126 44c44 0 79 -13.667 105 -41s47 -55.666 63 -84.999c16 -30.667 32.333 -59 49 -85s37 -39 61 -39
c29.333 0 53.333 19.667 72 59s36 99.666 52 180.999l192 894c0 5.33301 -1 10.333 -3 15s-7.66699 7 -17 7h-160c-5.33301 0 -9.33301 5.66699 -12 17s-4 19 -4 23c0 6.66699 2.33301 15 7 25s9.66699 15 15 15c86.667 10.667 143.667 21 171 31s42.333 20.333 45 31
c44 154.667 128 293 252 415s271.333 183 442 183c53.333 0 100 -12.333 140 -37s66 -37 78 -37c5.33301 0 18 2.66699 38 8s42.667 12.666 68 21.999c20 6.66699 41.333 13.334 64 20.001s37.334 10 44.001 10c5.33301 0 9.66602 -2.33301 12.999 -7s5 -9.66699 5 -15z
M1012 1158c0 41.333 -13.333 79.333 -40 114s-64 52 -112 52c-64 0 -112 -34 -144 -102s-69.333 -196 -112 -384h316l82 262c2.66699 9.33301 5 19 7 29s3 19.667 3 29z" />
    <glyph glyph-name="f_b" unicode="fb" horiz-adv-x="1742" 
d="M1692 700c0 -80 -20.999 -165.662 -62.999 -256.995s-95.667 -171 -161 -239c-77.333 -80 -160 -141 -248 -183s-178.667 -63 -272 -63c-89.333 0 -155 23.333 -197 70s-63 106 -63 178c0 34.667 3.33301 68.667 10 102s18 70.666 34 111.999l118 306h-272l-166 -688
c-50.667 -206.667 -128 -358.334 -232 -455.001s-229.333 -145 -376 -145c-82.667 0 -156.667 23 -222 69s-98 98.333 -98 157c0 42.667 15 79.334 45 110.001s71 46 123 46c42.667 0 77 -13 103 -39s47.667 -55 65 -87c16 -29.333 32.667 -57.333 50 -84s38 -40 62 -40
c29.333 0 53.333 19.667 72 59s36 99.666 52 180.999l192 894c0 5.33301 -1 10.333 -3 15s-7.66699 7 -17 7h-162c-5.33301 0 -9.33301 5.66699 -12 17s-4 19 -4 23c0 6.66699 2.33301 15 7 25s9.66699 15 15 15c97.333 12 157.666 23.333 180.999 34s35.666 20 36.999 28
c42.667 154.667 126.334 293 251.001 415s271.667 183 441 183c53.333 0 100 -12.333 140 -37s66 -37 78 -37c5.33301 0 18 2.66699 38 8s42.667 12.666 68 21.999c20 6.66699 41.333 13.334 64 20.001s37.334 10 44.001 10c5.33301 0 10 -2.33301 14 -7s6 -9.66699 6 -15
c0 -6.66699 -1 -14.334 -3 -23.001s-5 -18.334 -9 -29.001l-238 -614c53.333 53.333 107.666 91.666 162.999 114.999s109 35 161 35c64 0 110.667 -18 140 -54s44 -89.333 44 -160zM1010 1158c0 41.333 -13.333 79.332 -40 113.999s-64 52 -112 52
c-64 0 -111.667 -33.667 -143 -101s-69 -195.666 -113 -384.999h290l104 274l7 20c4.66699 13.333 7 22 7 26zM1380 692.004c0 21.333 -4.66797 37 -14.001 47s-24.666 15 -45.999 15c-65.333 0 -140.333 -82.333 -225 -247s-127 -290.334 -127 -377.001
c0 -21.333 3 -36.666 9 -45.999s17.667 -14 35 -14c52 0 126.333 85 223 255s145 292.333 145 367z" />
    <glyph glyph-name="uniFB00" unicode="ff" horiz-adv-x="1434" 
d="M1934 1252c0 -44 -15.001 -83.334 -45.001 -118.001s-68.333 -52 -115 -52c-38.667 0 -67 12 -85 36s-33 50.667 -45 80s-24.667 56 -38 80s-35.333 36 -66 36c-65.333 0 -113.666 -32.333 -144.999 -97s-69 -191 -113 -379h216c8 0 13.333 -5 16 -15s4 -21 4 -33
c0 -13.333 -4 -28.666 -12 -45.999s-16 -26 -24 -26l-224 6l-166 -688c-48 -198.667 -124.667 -348.667 -230 -450s-231.333 -152 -378 -152c-56 0 -113.667 12.333 -173 37s-105 59.667 -137 105c-57.333 -50.667 -113.666 -87 -168.999 -109s-122.333 -33 -201 -33
c-82.667 0 -156.667 23 -222 69s-98 98.333 -98 157c0 45.333 14.333 82.666 43 111.999s71 44 127 44c41.333 0 75.666 -13.667 102.999 -41s48.333 -55 63 -83c16 -29.333 32.667 -57.333 50 -84s38 -40 62 -40c29.333 0 53.333 19.333 72 58s36 99.334 52 182.001
l192 894c0 6.66699 -1 12 -3 16s-7.66699 6 -17 6h-162c-5.33301 0 -9.33301 5.66699 -12 17s-4 19 -4 23c0 6.66699 2.33301 15 7 25s9.66699 15.667 15 17c97.333 12 157.666 23.333 180.999 34s35.666 20 36.999 28c42.667 152 125.334 287 248.001 405s268 177 436 177
c53.333 0 110.333 -12.667 171 -38s105 -52 133 -80c52 40 111.333 72.333 178 97s135.334 37 206.001 37c72 0 135.333 -22.333 190 -67s82 -93.667 82 -147zM1076 1108c-18.667 53.333 -51.666 98.334 -98.999 135.001s-92.333 55 -135 55c-64 0 -109 -29.667 -135 -89
s-61 -183 -105 -371h358l10 30c9.33301 36 24.666 76.667 45.999 122s41.333 84.666 60 117.999zM934 724h-356l-166 -688c-9.33301 -40 -20.333 -78.333 -33 -115s-25.667 -71 -39 -103c14.667 -56 46 -111.667 94 -167s96.667 -83 146 -83c40 0 72.833 25.333 98.5 76
s52.167 138.667 79.5 264z" />
    <glyph glyph-name="f_h" unicode="fh" horiz-adv-x="1868" 
d="M1786 654c0 -77.333 -14.666 -158.663 -43.999 -243.996s-68.666 -160 -117.999 -224c-53.333 -68 -112.333 -123 -177 -165s-136.334 -63 -215.001 -63c-24 0 -48.667 9 -74 27s-38 43 -38 75c0 28 9.66699 51.667 29 71s43.666 29 72.999 29c32 0 53 -9.33301 63 -28
s22.333 -28 37 -28c32 0 65.333 63.667 100 191s52 235.666 52 324.999c0 28 -6 49 -18 63s-29.333 21 -52 21c-56 0 -123 -49.333 -201 -148s-155 -278.667 -231 -540c-4 -10.667 -27.667 -19 -71 -25s-72.333 -9 -87 -9c-16 0 -46 3.33301 -90 10s-65.333 14.667 -64 24
l224 710h-306l-166 -688c-49.333 -204 -126.666 -355 -231.999 -453s-230.666 -147 -375.999 -147c-82.667 0 -156.334 23 -221.001 69s-97 98.333 -97 157c0 45.333 14 82.666 42 111.999s70 44 126 44c44 0 79 -13.667 105 -41s46.333 -55.666 61 -84.999
c16 -29.333 32.667 -57.333 50 -84s38 -40 62 -40c29.333 0 53.333 19.667 72 59s36 99.666 52 180.999l192 894c0 5.33301 -1 10.333 -3 15s-7.66699 7 -17 7h-162c-5.33301 0 -9.33301 5.66699 -12 17s-4 19 -4 23c0 6.66699 2.33301 15 7 25s9.66699 15 15 15
c97.333 12 157.666 23.333 180.999 34s35.666 20 36.999 28c44 154.667 128 293 252 415s271.333 183 442 183c52 0 98.333 -12.333 139 -37s67 -37 79 -37c5.33301 0 17.333 2.66699 36 8s41.334 12.666 68.001 21.999l69 21c19.333 6 32.333 9 39 9s11.667 -2.33301 15 -7
s5 -9.66699 5 -15c0 -6.66699 -1 -14.334 -3 -23.001s-5 -18.334 -9 -29.001l-228 -722c49.333 78.667 106.333 141.334 171 188.001s135.667 70 213 70c62.667 0 113 -21.333 151 -64s57 -108 57 -196zM1012 1158c0 41.333 -13.334 79.332 -40.001 113.999s-64 52 -112 52
c-65.333 0 -113.666 -33.667 -144.999 -101s-69 -195.666 -113 -384.999h318l82 262c2.66699 9.33301 5 19 7 29s3 19.667 3 29z" />
    <glyph glyph-name="f_j" unicode="fj" horiz-adv-x="1320" 
d="M1320 1236c0 -44 -15.334 -83.002 -46.001 -117.002s-68.667 -51 -114 -51c-38.667 0 -68.667 13 -90 39s-40 54.333 -56 85c-13.333 26.667 -30.333 54 -51 82s-44.334 42 -71.001 42c-66.667 0 -120.667 -32.667 -162 -98s-83.333 -192 -126 -380h454
c28 0 57.333 3.66699 88 11s54 11 70 11c38.667 0 53.334 -25.333 44.001 -76s-25.333 -110 -48 -178l-172 -568c-68 -218.667 -155 -373.334 -261 -464.001s-235 -136 -387 -136c-53.333 0 -103.333 9.33301 -150 28s-84 43.334 -112 74.001
c-46.667 -33.333 -97 -58.666 -151 -75.999s-111.667 -26 -173 -26c-84 0 -158.333 23 -223 69s-97 98.333 -97 157c0 45.333 14 82.666 42 111.999s70 44 126 44c44 0 79 -13.667 105 -41s47 -55.666 63 -84.999c16 -30.667 32.333 -59 49 -85s37 -39 61 -39
c32 0 57.333 22.333 76 67s35.334 102.334 50.001 173.001l190 894c1.33301 5.33301 0.666016 10.333 -2.00098 15s-8.66699 7 -18 7h-160c-5.33301 0 -9.33301 5.66699 -12 17s-4 19 -4 23c0 6.66699 2.33301 15 7 25s9.66699 15 15 15c86.667 10.667 143.667 21 171 31
s42.333 20.333 45 31c44 154.667 133.333 293 268 415s287.334 183 458.001 183c72 0 140.667 -24.667 206 -74s98 -101.333 98 -156zM913.999 699.998c0 10.667 -2.33203 17.667 -6.99902 21s-10.334 5 -17.001 5h-312l-164 -688c-9.33301 -36 -21 -76.333 -35 -121
s-31.667 -87 -53 -127c4 -57.333 24.333 -108.333 61 -153s75.667 -67 117 -67c24 0 44.333 12.333 61 37s37.667 78.334 63 161.001v0l266 846l15 49c3.33301 11.333 5 23.666 5 36.999z" />
    <glyph glyph-name="f_k" unicode="fk" horiz-adv-x="1838" 
d="M1770 198c0 -62.667 -23.668 -118.331 -71.001 -166.998s-115 -73 -203 -73c-86.667 0 -169.667 31 -249 93s-141.666 151.667 -186.999 269l-106 -304c-4 -10.667 -28.667 -19 -74 -25s-75.333 -9 -90 -9c-16 0 -45 2.66699 -87 8s-61.667 14 -59 26l234 710h-300
l-166 -688c-50.667 -206.667 -128 -358.334 -232 -455.001s-229.333 -145 -376 -145c-82.667 0 -156.667 23 -222 69s-98 98.333 -98 157c0 42.667 15 79.334 45 110.001s71 46 123 46c42.667 0 77 -13 103 -39s47.667 -55 65 -87c16 -29.333 32.667 -57.333 50 -84
s38 -40 62 -40c29.333 0 53.333 19.667 72 59s36 99.666 52 180.999l192 894c0 5.33301 -1 10.333 -3 15s-8.33301 7 -19 7h-160c-5.33301 0 -9.33301 5.66699 -12 17s-4 19 -4 23c0 6.66699 2.33301 15 7 25s9.66699 15 15 15c97.333 12 157.666 23.333 180.999 34
s35.666 20 36.999 28c42.667 154.667 126.334 293 251.001 415s271.667 183 441 183c53.333 0 100 -12.333 140 -37s66 -37 78 -37c5.33301 0 18 2.66699 38 8s42.667 12.666 68 21.999c20 6.66699 41.333 13.334 64 20.001s37.334 10 44.001 10
c5.33301 0 10 -2.33301 14 -7s6 -9.66699 6 -15c0 -6.66699 -1 -14.334 -3 -23.001s-5 -18.334 -9 -29.001l-226 -658c52 60 109.667 107.333 173 142s129.666 52 198.999 52c66.667 0 115.667 -20.667 147 -62s47 -86 47 -134c0 -69.333 -36.333 -134 -109 -194
s-169.667 -101.333 -291 -124c0 -56 29 -108.667 87 -158s108.333 -74 151 -74c14.667 0 26 4 34 12s12 20 12 36s-6 29.333 -18 40s-18 18 -18 22c0 9.33301 6.66699 21.333 20 36s24 22 32 22c22.667 0 46.334 -12.667 71.001 -38s37 -58.666 37 -99.999zM1010 1158
c0 41.333 -13.333 79.332 -40 113.999s-64 52 -112 52c-64 0 -111.667 -33.667 -143 -101s-69 -195.666 -113 -384.999h314l86 262c2.66699 9.33301 4.66699 19 6 29s2 19.667 2 29zM1450 686.002c0 16 -2.33105 29.001 -6.99805 39.001s-17 15 -37 15
c-62.667 0 -127.334 -38.333 -194.001 -115s-100 -132.334 -100 -167.001c0 -13.333 3.33301 -24 10 -32s20 -12 40 -12c65.333 0 129.666 29.667 192.999 89s95 120.333 95 183z" />
    <glyph glyph-name="f_r" unicode="fr" horiz-adv-x="1592" 
d="M1652 728c0 -46.667 -13.999 -86.333 -41.999 -119s-65.333 -49 -112 -49c-25.333 0 -44 4.66699 -56 14s-22.667 20.666 -32 33.999c-8 12 -17.333 23.333 -28 34s-24.667 16 -42 16c-42.667 0 -99.667 -67.667 -171 -203s-135.666 -287 -192.999 -455
c-4 -10.667 -27.333 -19 -70 -25s-71.334 -9 -86.001 -9c-16 0 -48 3 -96 9s-70.667 14.333 -68 25l198 598l12 41c4 14 6 27 6 39s-2.33301 20.333 -7 25s-9.66699 7 -15 7h-272l-166 -688c-48 -198.667 -124.667 -348.334 -230 -449.001s-231.333 -151 -378 -151
c-82.667 0 -156.667 23 -222 69s-98 98.333 -98 157c0 42.667 15 79.334 45 110.001s71 46 123 46c42.667 0 77 -13 103 -39s47.667 -55 65 -87c16 -29.333 32.667 -57.333 50 -84s38 -40 62 -40c29.333 0 53.333 19.333 72 58s36 99.334 52 182.001l192 894
c0 5.33301 -1 10.333 -3 15s-8.33301 7 -19 7h-160c-5.33301 0 -9.33301 5.33301 -12 16s-4 18 -4 22c0 9.33301 2.33301 18.333 7 27s9.66699 13.667 15 15c97.333 12 157.666 23.333 180.999 34s35.666 20 36.999 28c42.667 154.667 126.334 293 251.001 415
s271.667 183 441 183c72 0 135.333 -22 190 -66s82 -93.333 82 -148c0 -44 -15.333 -83 -46 -117s-68.667 -51 -114 -51c-38.667 0 -67 12 -85 36s-33 50 -45 78c-12 29.333 -25 56 -39 80s-36.333 36 -67 36c-64 0 -111.667 -32.333 -143 -97s-69 -191 -113 -379h412
c28 0 57 3.66699 87 11s53 11 69 11c30.667 0 45.667 -18.667 45 -56s-9.66699 -76.666 -27 -117.999l-60 -160c64 124 123.667 219.333 179 286s112.333 100 171 100c52 0 94 -15.333 126 -46s48 -71.334 48 -122.001z" />
    <glyph glyph-name="f_t" unicode="ft" horiz-adv-x="1406" 
d="M1452 794c0 -14.667 -4.66895 -30.3311 -14.002 -46.998s-18 -25 -26 -25l-202 4l-152 -454c-5.33301 -16 -10 -32.333 -14 -49s-6 -30.334 -6 -41.001s1.33301 -18.667 4 -24s8.66699 -8 18 -8c33.333 0 72 21.667 116 65s70.667 65 80 65
c10.667 0 23.667 -7.33301 39 -22s23 -24.667 23 -30c0 -8 -15 -27.333 -45 -58s-65 -60 -105 -88c-49.333 -36 -95.666 -65.667 -138.999 -89s-89.666 -35 -138.999 -35c-57.333 0 -103 15 -137 45s-51 72.333 -51 127c0 18.667 1.33301 35 4 49s7.33398 32.333 14.001 55
l170 492h-312l-166 -688c-50.667 -206.667 -128 -358.334 -232 -455.001s-229.333 -145 -376 -145c-82.667 0 -156.667 23 -222 69s-98 98.333 -98 157c0 42.667 15 79.334 45 110.001s71 46 123 46c42.667 0 77 -13 103 -39s47.667 -55 65 -87
c16 -29.333 32.667 -57.333 50 -84s38 -40 62 -40c29.333 0 53.333 19.667 72 59s36 99.666 52 180.999l192 894c0 5.33301 -1 10.333 -3 15s-8.33301 7 -19 7h-160c-5.33301 0 -9.33301 5.66699 -12 17s-4 19 -4 23c0 6.66699 2.33301 15 7 25s9.66699 15 15 15
c97.333 12 157.666 23.333 180.999 34s35.666 20 36.999 28c42.667 154.667 126.334 293 251.001 415s271.667 183 441 183c129.333 0 227 -40.333 293 -121s80.333 -177 43 -289l-70 -216h182c8 0 13.667 -5.33301 17 -16s5 -20.667 5 -30zM1016 1184
c0 44 -14 78.332 -42 102.999s-66.667 37 -116 37c-64 0 -111.667 -33.667 -143 -101s-69 -195.666 -113 -384.999h316l84 262c4 13.333 7.33301 27.333 10 42s4 28.667 4 42z" />
    <glyph glyph-name="f_f_b" unicode="ffb" horiz-adv-x="2424" 
d="M2374 700c0 -80 -21.001 -165.661 -63.001 -256.994s-96.333 -171 -163 -239c-77.333 -80 -160 -141 -248 -183s-178.667 -63 -272 -63c-89.333 0 -155 23.333 -197 70s-63 106 -63 178c0 34.667 3.33301 68.667 10 102s18 70.666 34 111.999l116 306h-270l-166 -688
c-50.667 -206.667 -128 -358.334 -232 -455.001s-229.333 -145 -376 -145c-54.667 0 -112 12.333 -172 37s-106 59.667 -138 105c-57.333 -50.667 -113.666 -87 -168.999 -109s-122.333 -33 -201 -33c-82.667 0 -156.667 23 -222 69s-98 98.333 -98 157
c0 42.667 15 79.334 45 110.001s71 46 123 46c42.667 0 77 -13 103 -39s47.667 -55 65 -87c16 -29.333 32.667 -57.333 50 -84s38 -40 62 -40c29.333 0 53.333 19.667 72 59s36 99.666 52 180.999l192 894c0 5.33301 -1 10.333 -3 15s-7.66699 7 -17 7h-162
c-5.33301 0 -9.33301 5.66699 -12 17s-4 19 -4 23c0 6.66699 2.33301 15 7 25s9.66699 15 15 15c97.333 12 157.666 23.333 180.999 34s35.666 20 36.999 28c42.667 153.333 125.334 288.666 248.001 405.999s268 176 436 176c52 0 108.333 -12 169 -36
s105.667 -51.333 135 -82c52 40 111.333 72.333 178 97s135.334 37 206.001 37c53.333 0 100 -12.333 140 -37s66 -37 78 -37c5.33301 0 18 2.66699 38 8s42.667 12.666 68 21.999c20 6.66699 41.333 13.334 64 20.001s37.334 10 44.001 10s11.667 -2.33301 15 -7
s5 -9.66699 5 -15c0 -6.66699 -1 -14.334 -3 -23.001s-5 -18.334 -9 -29.001l-238 -614c53.333 53.333 107.666 91.666 162.999 114.999s109 35 161 35c66.667 0 114.334 -18 143 -54c28.667 -36 43 -89.333 43 -160zM1690 1170.01
c0 34.667 -13.6689 68.999 -41.002 102.999s-63.666 51 -108.999 51c-65.333 0 -113.666 -33.667 -144.999 -101s-69 -195.666 -113 -384.999h290l100 262c4 12 8 22 12 30s6 21.333 6 40zM1076 1110c-18.667 53.333 -51.666 98.333 -98.999 135s-92.333 55 -135 55
c-64 0 -109 -30 -135 -90s-61 -184 -105 -372h358l10 30c9.33301 36 24.666 77 45.999 123s41.333 85.667 60 119zM2060 692.005c0 21.333 -4.66797 37.001 -14.001 47.001s-24.666 15 -45.999 15c-65.333 0 -140.333 -82.333 -225 -247s-127 -290.334 -127 -377.001
c0 -20 3.33301 -35 10 -45s18 -15 34 -15c52 0 126.333 85 223 255s145 292.333 145 367zM933.997 726.006h-356.001l-166 -688c-9.33301 -40 -20.333 -78.333 -33 -115s-25.667 -71 -39 -103c14.667 -57.333 46.334 -113.333 95.001 -168s97 -82 145 -82
c40 0 71.667 20 95 60s51 133.333 83 280z" />
    <glyph glyph-name="f_f_h" unicode="ffh" horiz-adv-x="2548" 
d="M2466 654c0 -77.333 -14.6631 -158.663 -43.9961 -243.996s-68.666 -160 -117.999 -224c-53.333 -68 -112.333 -123 -177 -165s-136.334 -63 -215.001 -63c-24 0 -48.667 9 -74 27s-38 43 -38 75c0 28 9.66699 51.667 29 71s43.666 29 72.999 29
c33.333 0 54.666 -9.33301 63.999 -28s21.333 -28 36 -28c32 0 65.333 63.667 100 191s52 235.666 52 324.999c0 28 -6 49 -18 63s-29.333 21 -52 21c-56 0 -123 -49.333 -201 -148s-155 -278.667 -231 -540c-4 -10.667 -27.667 -19 -71 -25s-72.333 -9 -87 -9
s-44.667 2.66699 -90 8s-66 14 -62 26l224 710h-308l-166 -688c-49.333 -204 -126.333 -355 -231 -453s-230.334 -147 -377.001 -147c-54.667 0 -111.667 12.333 -171 37s-105.666 59.667 -138.999 105c-56 -50.667 -112 -87 -168 -109s-123.333 -33 -202 -33
c-82.667 0 -156.334 23 -221.001 69s-97 98.333 -97 157c0 45.333 14 82.666 42 111.999s70 44 126 44c44 0 79 -13.667 105 -41s46.333 -55.666 61 -84.999c16 -29.333 32.667 -57.333 50 -84s38 -40 62 -40c29.333 0 53.333 19.667 72 59s36 99.666 52 180.999l192 894
c0 5.33301 -1 10.333 -3 15s-7.66699 7 -17 7h-162c-5.33301 0 -9.33301 5.66699 -12 17s-4 19 -4 23c0 6.66699 2.33301 15 7 25s9.66699 15 15 15c97.333 12 157.666 23.333 180.999 34s35.666 20 36.999 28c44 153.333 127 288.666 249 405.999s267.667 176 437 176
c49.333 0 104.333 -11.667 165 -35s107 -51 139 -83c53.333 41.333 113 74 179 98s134.333 36 205 36c53.333 0 100 -12.333 140 -37s66 -37 78 -37c5.33301 0 18 2.66699 38 8s42.667 12.666 68 21.999c20 6.66699 41.333 13.334 64 20.001s36.667 10 42 10
c6.66699 0 11.667 -2.33301 15 -7s5 -9.66699 5 -15c0 -6.66699 -1 -14.334 -3 -23.001s-5 -18.334 -9 -29.001l-228 -722c50.667 78.667 108.334 141.334 173.001 188.001s135 70 211 70c62.667 0 113 -21.333 151 -64s57 -108 57 -196zM1692 1158
c0 41.333 -13.333 79.333 -40 114s-64 52 -112 52c-64 0 -112 -34 -144 -102s-69.333 -196 -112 -384h316l82 262c2.66699 9.33301 5 19 7 29s3 19.667 3 29zM1078 1110c-21.333 56 -55 101.666 -101 136.999s-90.333 53 -133 53c-65.333 0 -111 -30 -137 -90
s-61 -184 -105 -372h360l8 30c13.333 49.333 30 94.333 50 135s39.333 76.334 58 107.001zM934.004 726.002l-356 -0.00195312l-166 -688c-9.33301 -37.333 -19.666 -74.666 -30.999 -111.999s-25 -72.666 -41 -105.999c13.333 -53.333 44.666 -108.333 93.999 -165
s98 -85 146 -85c37.333 0 69.333 21.667 96 65s54 135 82 275z" />
    <glyph glyph-name="uniFB03" unicode="ffi" horiz-adv-x="1982" 
d="M1966 1252c0 -44 -15.335 -83.335 -46.002 -118.002s-68.667 -52 -114 -52c-38.667 0 -68.667 12 -90 36s-40 50.667 -56 80s-32.667 56 -50 80s-41.333 36 -72 36c-64 0 -111.667 -32.333 -143 -97s-69 -191 -113 -379h416c28 0 57 3.66699 87 11s53 11 69 11
c29.333 0 44.333 -19 45 -57s-8.33301 -77 -27 -117l-166 -414c-9.33301 -18.667 -17.333 -38.334 -24 -59.001s-10 -34.334 -10 -41.001c0 -9.33301 1.33301 -15.666 4 -18.999s6.66699 -5 12 -5c29.333 0 58.333 16 87 48s48.334 48 59.001 48c9.33301 0 19.333 -7 30 -21
s16 -23.667 16 -29c0 -22.667 -45 -67.667 -135 -135s-175.667 -101 -257 -101c-54.667 0 -95.334 9.33301 -122.001 28s-40 47.334 -40 86.001c0 21.333 2.33301 42.333 7 63s13.667 48.334 27 83.001l162 384c6.66699 18.667 13.334 35.667 20.001 51s10 29 10 41
s-2.33301 20 -7 24s-9.66699 6 -15 6h-272l-166 -688c-48 -198.667 -124.667 -348.667 -230 -450s-231.333 -152 -378 -152c-54.667 0 -112 12.333 -172 37s-106 59.667 -138 105c-57.333 -50.667 -114 -87 -170 -109s-122.667 -33 -200 -33c-82.667 0 -156.667 23 -222 69
s-98 98.333 -98 157c0 42.667 15 79.334 45 110.001s71 46 123 46c44 0 79 -13.667 105 -41s47 -55.666 63 -84.999s32.667 -57.333 50 -84s38 -40 62 -40c29.333 0 53.333 19.667 72 59s36 99.666 52 180.999l190 896c1.33301 5.33301 1 10.333 -1 15s-8.33301 7 -19 7
h-160c-5.33301 0 -9.33301 5.66699 -12 17s-4 19 -4 23c0 6.66699 2.33301 15 7 25s9.66699 15.667 15 17c85.333 10.667 142.333 21 171 31s43.667 20.333 45 31c42.667 152 125 287 247 405s268.333 177 439 177c52 0 108.333 -12 169 -36s105.667 -51.333 135 -82
c52 40 111.333 72.333 178 97s135.334 37 206.001 37c72 0 140.667 -22.333 206 -67s98 -93.667 98 -147zM1076 1108c-18.667 53.333 -51.666 98.334 -98.999 135.001s-92.333 55 -135 55c-64 0 -109 -29.667 -135 -89s-61 -183 -105 -371h358l10 30
c9.33301 36 24.666 76.667 45.999 122s41.333 84.666 60 117.999zM933.999 723.999l-358.001 -0.000976562l-164 -688c-9.33301 -36 -19.666 -73 -30.999 -111s-25.666 -74.333 -42.999 -109c14.667 -54.667 46 -110 94 -166s97.333 -84 148 -84
c38.667 0 70.667 21.333 96 64s52.666 135.334 81.999 278.001z" />
    <glyph glyph-name="f_f_k" unicode="ffk" horiz-adv-x="2518" 
d="M2450 198c0 -62.667 -23.6689 -118.331 -71.002 -166.998s-115 -73 -203 -73c-86.667 0 -169.667 31 -249 93s-141.666 151.667 -186.999 269l-104 -304c-4 -10.667 -29.333 -19 -76 -25s-76.667 -9 -90 -9c-16 0 -45 2.66699 -87 8s-61.667 14 -59 26l234 710h-300
l-166 -688c-50.667 -206.667 -128 -358.334 -232 -455.001s-229.333 -145 -376 -145c-54.667 0 -112 12.333 -172 37s-106 59.667 -138 105c-57.333 -50.667 -113.666 -87 -168.999 -109s-122.333 -33 -201 -33c-82.667 0 -156.667 23 -222 69s-98 98.333 -98 157
c0 42.667 15 79.334 45 110.001s71 46 123 46c42.667 0 77 -13 103 -39s47.667 -55 65 -87c16 -29.333 32.667 -57.333 50 -84s38 -40 62 -40c29.333 0 53.333 19.667 72 59s36 99.666 52 180.999l192 894c0 5.33301 -1 10.333 -3 15s-8.33301 7 -19 7h-160
c-5.33301 0 -9.33301 5.66699 -12 17s-4 19 -4 23c0 6.66699 2.33301 15 7 25s9.66699 15 15 15c97.333 12 157.666 23.333 180.999 34s35.666 20 36.999 28c42.667 153.333 125.334 288.666 248.001 405.999s268 176 436 176c52 0 108.333 -12 169 -36
s105.667 -51.333 135 -82c52 40 111.333 72.333 178 97s135.334 37 206.001 37c53.333 0 100 -12.333 140 -37s66 -37 78 -37c5.33301 0 18 2.66699 38 8s42.667 12.666 68 21.999c20 6.66699 41.333 13.334 64 20.001s37.334 10 44 10c5.33301 0 10 -2.33301 14 -7
s6 -9.66699 6 -15c0 -6.66699 -1 -14.334 -3 -23.001s-5 -18.334 -9 -29.001l-226 -658c52 60 109.667 107.333 173 142s129.666 52 199 52c66.667 0 115.667 -20.667 147 -62s47 -86 47 -134c0 -69.333 -36 -134 -108 -194s-169.333 -101.333 -292 -124
c0 -56 29.333 -108.667 88 -158s108.667 -74 150 -74c14.667 0 26.334 4.33301 35 13c8.66699 8.66699 13 20.334 13 35.001c0 16 -6.33301 29.333 -19 40s-19 18 -19 22c0 9.33301 6.66699 21.333 20 36s24 22 32 22c22.667 0 46.334 -12.667 71 -38
c24.667 -25.333 37 -58.666 37 -99.999zM1690 1158c0 42.667 -13.333 80.999 -40 114.999s-64 51 -112 51c-65.333 0 -114 -34.667 -146 -104s-68.667 -196.666 -110 -381.999h314l86 262c2.66699 8 4.66699 18 6 30s2 21.333 2 28zM1076 1110
c-18.667 53.333 -51.666 98.333 -98.999 135s-92.333 55 -135 55c-64 0 -109 -30 -135 -90s-61 -184 -105 -372h358l10 30c9.33301 36 24.666 77 45.999 123s41.333 85.667 60 119zM2130 686.002c0 16 -1.99902 29.001 -5.99902 39.001s-16.667 15 -38 15
c-62.667 0 -127.334 -38.333 -194.001 -115s-100 -132.334 -100 -167.001c0 -13.333 3.33301 -24 10 -32s20.667 -12 42 -12c64 0 127.667 29.333 191 88s95 120 95 184zM934 726.003h-355.999l-166 -688c-9.33301 -36 -20.333 -74 -33 -114s-26.334 -74.667 -41.001 -104
c14.667 -54.667 46 -110 94 -166s97.333 -84 148 -84c37.333 0 69 21.333 95 64s53.667 134.667 83 276z" />
    <glyph glyph-name="uniFB04" unicode="ffl" horiz-adv-x="2036" 
d="M2114 1428c0 -5.33301 -0.666992 -12.667 -2 -22s-4 -19.333 -8 -30l-362 -1104l-24 -78c-5.33301 -17.333 -8 -28.666 -8 -33.999c0 -4 1.33301 -7 4 -9s6.66699 -3 12 -3c26.667 0 58 18.667 94 56s58.667 56 68 56s19.333 -7 30 -21s16 -23.667 16 -29
c0 -22.667 -47.333 -70.334 -142 -143.001s-182.667 -109 -264 -109c-46.667 0 -82.334 12 -107.001 36s-37 60 -37 108c0 18.667 1.66699 36 5 52s9 37.333 17 64l160 506h-308l-164 -688c-48 -198.667 -124.667 -348.667 -230 -450s-231.333 -152 -378 -152
c-56 0 -113.667 12.333 -173 37s-105.666 59.667 -138.999 105c-56 -50.667 -112 -87 -168 -109s-122.667 -33 -200 -33c-84 0 -158.333 23 -223 69s-97 98.333 -97 157c0 45.333 14 82.666 42 111.999s70 44 126 44c44 0 79 -13.667 105 -41s47 -55.666 63 -84.999
c16 -30.667 32.333 -59 49 -85s37 -39 61 -39c29.333 0 53.333 19.667 72 59s36 100.333 52 183l192 894c0 5.33301 -1 10.333 -3 15s-7.66699 7 -17 7h-160c-5.33301 0 -9.33301 5.66699 -12 17s-4 19 -4 23c0 6.66699 2.33301 15 7 25s9.66699 15.667 15 17
c86.667 10.667 143.667 21 171 31s42.333 20.333 45 31c42.667 152 125 287 247 405s268.333 177 439 177c49.333 0 104.333 -11.667 165 -35s107 -51 139 -83c53.333 41.333 113 74 179 98s134.333 36 205 36c53.333 0 100 -12.667 140 -38s66 -38 78 -38
c5.33301 0 18 2.66699 38 8s42.667 12.666 68 21.999c20 6.66699 41.333 13.334 64 20.001s37.334 10 44 10c5.33301 0 9.66602 -2 13 -6c3.33301 -4 5 -9.33301 5 -16zM1692 1158c0 40 -13.333 77.333 -40 112s-64 52 -112 52c-64 0 -112 -33.667 -144 -101
s-69.333 -195 -112 -383h316l82 262c2.66699 9.33301 5 19 7 29s3 19.667 3 29zM1078 1108c-21.333 56 -54.999 101.667 -100.999 137s-90.333 53 -133 53c-64 0 -109.333 -29.667 -136 -89s-61.334 -183 -104.001 -371h358l8 30c13.333 49.333 30 94 50 134
s39.333 75.333 58 106zM934.001 723.999l-356.002 0.00195312l-166 -688c-9.33301 -42.667 -19.666 -80.667 -30.999 -114s-25 -68 -41 -104c14.667 -54.667 46 -110.334 94 -167.001s96.667 -85 146 -85c40 0 73.333 25.667 100 77s53.334 139.666 80.001 264.999z" />
    <glyph glyph-name="f_f_r" unicode="ffr" horiz-adv-x="2272" 
d="M2332 744c0 -48 -13.333 -87.666 -40 -118.999s-64 -47 -112 -47c-25.333 0 -44.333 4.66699 -57 14s-23.667 20.666 -33 33.999c-8 10.667 -17.333 21.334 -28 32.001s-24.667 16 -42 16c-42.667 0 -99.667 -67.667 -171 -203s-135.666 -287 -192.999 -455
c-4 -10.667 -27.333 -19 -70 -25s-71.334 -9 -86.001 -9c-16 0 -48 3 -96 9s-70.667 14.333 -68 25l198 598l12 41c4 14 6 27 6 39s-2.33301 20.333 -7 25s-9.66699 7 -15 7h-272l-166 -688c-50.667 -206.667 -128 -358.334 -232 -455.001s-229.333 -145 -376 -145
c-54.667 0 -112 12.333 -172 37s-106 59.667 -138 105c-57.333 -50.667 -113.666 -87 -168.999 -109s-122.333 -33 -201 -33c-82.667 0 -156.667 23 -222 69s-98 98.333 -98 157c0 42.667 15 79.334 45 110.001s71 46 123 46c42.667 0 77 -13 103 -39s47.667 -55 65 -87
c16 -29.333 32.667 -57.333 50 -84s38 -40 62 -40c29.333 0 53.333 19.667 72 59s36 99.666 52 180.999l192 894c0 5.33301 -1 10.333 -3 15s-8.33301 7 -19 7h-160c-5.33301 0 -9.33301 5.66699 -12 17s-4 19 -4 23c0 6.66699 2.33301 15 7 25s9.66699 15 15 15
c97.333 12 157.666 23.333 180.999 34s35.666 20 36.999 28c42.667 153.333 125.334 288.666 248.001 405.999s268 176 436 176c52 0 108.333 -12 169 -36s105.667 -51.333 135 -82c52 40 111.333 72.333 178 97s135.334 37 206.001 37c72 0 135.333 -22 190 -66
s82 -93.333 82 -148c0 -44 -15.333 -83 -46 -117s-68.667 -51 -114 -51c-38.667 0 -67 12 -85 36s-33 50.667 -45 80s-25 56 -39 80s-36.333 36 -67 36c-64 0 -111.667 -32.667 -143 -98s-69 -192 -113 -380h412c28 0 57 3.66699 87 11s53 11 69 11
c30.667 0 45.667 -18.667 45 -56s-9.66699 -76.666 -27 -117.999l-60 -160c64 124 123.667 219.667 179 287s112.333 101 170.999 101c52 0 94 -15.667 126 -47s48 -72.333 48 -123zM1076 1110c-18.667 53.333 -51.666 98.333 -98.999 135s-92.333 55 -135 55
c-64 0 -109 -30 -135 -90s-61 -184 -105 -372h358l10 30c9.33301 36 24.666 77 45.999 123s41.333 85.667 60 119zM934.001 726.001h-356.001l-166 -688c-9.33301 -40 -20.333 -78.333 -33 -115s-25.667 -71 -39 -103c14.667 -57.333 46.334 -113.333 95.001 -168
s97 -82 145 -82c40 0 71.667 20 95 60s51 133.333 83 280z" />
    <glyph glyph-name="l_l" unicode="ll" horiz-adv-x="1296" 
d="M1388 1428c0 -5.33301 -0.998047 -12.6699 -2.99805 -22.0029s-5 -19.333 -9 -30l-360 -1104c-10.667 -30.667 -19 -55.667 -25 -75s-9 -31 -9 -35s1.66699 -7 5 -9s7 -3 11 -3c29.333 0 61 18.333 95 55s56.333 55 67 55c9.33301 0 19.666 -7 30.999 -21
s17 -23.667 17 -29c0 -21.333 -47.333 -68.666 -142 -141.999s-182.667 -110 -264 -110c-46.667 0 -82.334 12.667 -107.001 38s-37 61.333 -37 108c0 18.667 1 34 3 46s6.33301 30.667 13 56l10 28c-77.333 -82.667 -163 -149.334 -257 -200.001s-171.667 -76 -233 -76
c-46.667 0 -82.667 12.667 -108 38s-38 61.333 -38 108c0 18.667 2 36.334 6 53.001s9.33301 37 16 61l280 894c6.66699 18.667 12 35.334 16 50.001s6 28 6 40c0 14.667 -7.66699 25 -23 31s-43.666 11.667 -84.999 17c-4 0 -7.66699 5.33301 -11 16s-5 19.334 -5 26.001
s1.66699 14.667 5 24s7 14.666 11 15.999c65.333 10.667 143.666 26.334 234.999 47.001s161 40.334 209 59.001c4 2.66699 12 5.66699 24 9s21.333 5 28 5c5.33301 0 9.66602 -2.33301 12.999 -7s5 -10.334 5 -17.001c0 -5.33301 -0.666992 -12.666 -2 -21.999
s-4 -19.333 -8 -30l-362 -1104c-8 -25.333 -14.667 -48 -20 -68s-8 -33.333 -8 -40c0 -5.33301 1 -9 3 -11s5 -3 9 -3c30.667 0 81 26 151 78s137.667 118.667 203 200l216 684c6.66699 18.667 11.667 35.334 15 50.001s5 28 5 40c0 13.333 -8.66699 23.666 -26 30.999
s-44 13 -80 17c-4 0 -8 5.33301 -12 16s-6 19.334 -6 26.001s1.66699 14.667 5 24s7 14.666 11 15.999c57.333 9.33301 135.333 25 234 47s169.334 41.667 212.001 59c4 2.66699 11.667 5.66699 23 9s20.333 5 27 5s11.667 -2.33301 15 -7s5 -10.334 5 -17.001z" />
    <glyph glyph-name="slong_b" unicode="&#x17f;b" horiz-adv-x="1690" 
d="M1640 700c0 -162.667 -75.999 -327.001 -227.999 -493.001s-324 -249 -516 -249c-89.333 0 -155 23.333 -197 70s-63 106 -63 178c0 26.667 4 61.334 12 104.001s18.667 79.334 32 110.001l264 692c17.333 41.333 13.666 87 -11.001 137s-67 75 -127 75
c-65.333 0 -114 -34.667 -146 -104s-68.667 -196.666 -110 -381.999c-14.667 -65.333 -42 -180.666 -82 -345.999l-108 -454c-48 -202.667 -125.667 -353.334 -233 -452.001s-232.333 -148 -375 -148c-82.667 0 -156.667 23 -222 69s-98 98.333 -98 157
c0 42.667 15 79.334 45 110.001s71 46 123 46c46.667 0 81.667 -12.333 105 -37s44.333 -54.334 63 -89.001c17.333 -30.667 34.333 -59 51 -85s37 -39 61 -39c32 0 56.667 20.667 74 62s34 100.666 50 177.999l116 566c45.333 222.667 84.666 386.667 117.999 492
c48 157.333 133 296.333 255 417s267.667 181 437 181c22.667 0 47.667 -4 75 -12s49 -16.667 65 -26l51 -26c12.667 -6.66699 21.667 -10 27 -10s17 2.66699 35 8l71 22c28 8 51.333 15 70 21s31.334 9 38.001 9c5.33301 0 10 -2.33301 14 -7s6 -9.66699 6 -15
c0 -6.66699 -1 -14 -3 -22s-5 -18 -9 -30l-238 -614c64 61.333 119 101.666 165 120.999s99 29 159 29c66.667 0 114 -18 142 -54s42 -89.333 42 -160zM1328 691.999c0 21.333 -4.66797 37 -14.001 47s-24.666 15 -45.999 15c-65.333 0 -140.333 -82.333 -225 -247
s-127 -290.334 -127 -377.001c0 -21.333 3 -36.666 9 -45.999s17.667 -14 35 -14c52 0 126.333 85 223 255s145 292.333 145 367z" />
    <glyph glyph-name="slong_h" unicode="&#x17f;h" horiz-adv-x="1816" 
d="M1734 654c0 -77.333 -14.6689 -158.665 -44.002 -243.998s-68.666 -160 -117.999 -224c-53.333 -68 -112.333 -123 -177 -165s-136.334 -63 -215.001 -63c-24 0 -48.667 9 -74 27s-38 43 -38 75c0 28 9.66699 51.667 29 71s43.666 29 72.999 29c32 0 53 -9.33301 63 -28
s22.333 -28 37 -28c32 0 65.333 63.667 100 191s52 235.666 52 324.999c0 28 -6 49 -18 63s-29.333 21 -52 21c-56 0 -123 -49.333 -201 -148s-155 -278.667 -231 -540c-4 -10.667 -27.667 -19 -71 -25s-72.333 -9 -87 -9c-16 0 -46 3.33301 -90 10s-65.333 14.667 -64 24
l342 1084c2.66699 9.33301 5 19 7 29s3 19.667 3 29c0 41.333 -13.333 79.333 -40 114s-64 52 -112 52c-65.333 0 -113.666 -33.667 -144.999 -101s-69 -195.666 -113 -384.999l-80 -342l-110 -458c-50.667 -206.667 -128 -358.334 -232 -455.001s-229.333 -145 -376 -145
c-82.667 0 -156.334 23 -221.001 69s-97 98.333 -97 157c0 45.333 14 82.666 42 111.999s70 44 126 44c44 0 79 -13.667 105 -41s46.333 -55.666 61 -84.999c16 -29.333 32.667 -57.333 50 -84s38 -40 62 -40c29.333 0 53.333 19.333 72 58s36 99.334 52 182.001l113 552
c46 220 86.333 388.667 121 506c46.667 158.667 131.334 298 254.001 418s269.334 180 440.001 180c52 0 98.333 -12.333 139 -37s67 -37 79 -37c5.33301 0 17.333 2.66699 36 8s41.334 12.666 68.001 21.999l69 21c19.333 6 32.333 9 39 9s11.667 -2.33301 15 -7
s5 -9.66699 5 -15c0 -6.66699 -1 -14.334 -3 -23.001s-5 -18.334 -9 -29.001l-228 -722c49.333 78.667 106.333 141.334 171 188.001s135.667 70 213 70c62.667 0 113 -21.333 151 -64s57 -108 57 -196z" />
    <glyph glyph-name="slong_i" unicode="&#x17f;i" horiz-adv-x="1314" 
d="M1234 1252c0 -42.667 -15.333 -81.335 -46 -116.002s-68.667 -52 -114 -52c-38.667 0 -68.667 12 -90 36s-40 50.667 -56 80s-32.667 56 -50 80s-41.333 36 -72 36c-64 0 -111.667 -32.667 -143 -98s-69 -192 -113 -380l-81 -344l-109 -456
c-50.667 -206.667 -128 -358.334 -232 -455.001s-229.333 -145 -376 -145c-82.667 0 -156.667 23 -222 69s-98 98.333 -98 157c0 42.667 15 79.334 45 110.001s71 46 123 46c44 0 79 -13.667 105 -41s47 -55.666 63 -84.999s32.667 -57.333 50 -84s38 -40 62 -40
c29.333 0 53.333 19.333 72 58s36 99.334 52 182.001l112 552c45.333 220 85.333 388.667 120 506c48 157.333 133.333 296.333 256 417s268.667 181 438 181c72 0 140.667 -22 206 -66s98 -93.333 98 -148zM1212 225.999c0 -21.333 -50.333 -71.3359 -151 -150.003
s-191.667 -118 -273 -118c-56 0 -96.667 14.333 -122 43s-38 61.667 -38 99c0 20 2.33301 38.333 7 55s13 38.334 25 65.001l190 394c10.667 22.667 18.334 41 23.001 55s7 26.333 7 37c0 12 -2 20.333 -6 25s-9.33301 7 -16 7c-17.333 0 -51 -26.667 -101 -80
s-79.667 -80 -89 -80c-10.667 0 -21.334 7.33301 -32.001 22s-16 24 -16 28c0 12 12.333 33 37 63s57 63 97 99c34.667 29.333 76.334 57.333 125.001 84s91.667 40 129 40c60 0 105 -17 135 -51s45 -75 45 -123c0 -25.333 -2.66699 -48.666 -8 -69.999
s-13.333 -42.666 -24 -63.999l-152 -334c-14.667 -32 -24 -55.667 -28 -71s-6 -26.333 -6 -33c0 -8 2 -13 6 -15s8 -3 12 -3c29.333 0 63.666 21 102.999 63s64.333 63 75 63c9.33301 0 19.333 -7 30 -21s16 -23.667 16 -29z" />
    <glyph glyph-name="slong_k" unicode="&#x17f;k" horiz-adv-x="1786" 
d="M1718 198c0 -62.667 -23.6689 -118.334 -71.002 -167.001s-115 -73 -203 -73c-86.667 0 -169.667 31 -249 93s-141.666 151.667 -186.999 269l-106 -304c-4 -10.667 -28.667 -19 -74 -25s-75.333 -9 -90 -9c-16 0 -45 2.66699 -87 8s-61.667 14 -59 26l358 1084
c2.66699 9.33301 4.66699 19 6 29s2 19.667 2 29c0 41.333 -13.333 79.333 -40 114s-64 52 -112 52c-64 0 -111.667 -33.667 -143 -101s-69 -195.666 -113 -384.999l-81 -344l-109 -456c-50.667 -206.667 -128 -358.334 -232 -455.001s-229.333 -145 -376 -145
c-82.667 0 -156.667 23 -222 69s-98 98.333 -98 157c0 42.667 15 79.334 45 110.001s71 46 123 46c42.667 0 77 -13 103 -39s47.667 -55 65 -87c16 -29.333 32.667 -57.333 50 -84s38 -40 62 -40c29.333 0 53.333 19.333 72 58s36 99.334 52 182.001l112 552
c45.333 220 86 388.667 122 506c46.667 157.333 131.667 296.333 255 417s269 181 437 181c53.333 0 100 -12.333 140 -37s66 -37 78 -37c5.33301 0 18 2.66699 38 8s42.667 12.666 68 21.999c20 6.66699 41.333 13.334 64 20.001s37.334 10 44.001 10
c5.33301 0 10 -2.33301 14 -7s6 -9.66699 6 -15c0 -6.66699 -1 -14.334 -3 -23.001s-5 -18.334 -9 -29.001l-226 -658c52 60 109.667 107.333 173 142s129.666 52 198.999 52c66.667 0 115.667 -20.667 147 -62s47 -86 47 -134c0 -69.333 -36.333 -134 -109 -194
s-169.667 -101.333 -291 -124c0 -56 29 -108.667 87 -158s108.333 -74 151 -74c14.667 0 26 4 34 12s12 20 12 36s-6 29.333 -18 40s-18 18 -18 22c0 9.33301 6.66699 21.333 20 36s24 22 32 22c22.667 0 46.334 -12.667 71.001 -38s37 -58.666 37 -99.999zM1398 686
c0 16 -2.33105 29.001 -6.99805 39.001s-17 15 -37 15c-62.667 0 -127.334 -38.333 -194.001 -115s-100 -132.334 -100 -167.001c0 -13.333 3.33301 -24 10 -32s20 -12 40 -12c65.333 0 129.666 29.667 192.999 89s95 120.333 95 183z" />
    <glyph glyph-name="slong_l" unicode="&#x17f;l" horiz-adv-x="1290" 
d="M1382 1430c0 -6.66699 -1 -14.6729 -3 -24.0059s-4.33301 -18.666 -7 -27.999l-362 -1106l-24 -76c-5.33301 -17.333 -8 -28.666 -8 -33.999c0 -4 1.33301 -7 4 -9s6 -3 10 -3c29.333 0 61.333 18.333 96 55s57.334 55 68.001 55c9.33301 0 19.333 -7 30 -21
s16 -23.667 16 -29c0 -21.333 -47.333 -68.666 -142 -141.999s-182.667 -110 -264 -110c-46.667 0 -82.334 12.667 -107.001 38s-37 61.333 -37 108c0 18.667 1.66699 36.334 5 53.001s8.33301 37.667 15 63l278 880c2.66699 9.33301 5 19 7 29s3 19.667 3 29
c0 41.333 -13.333 79.333 -40 114s-64 52 -112 52c-64 0 -112 -34 -144 -102s-69.333 -196 -112 -384c-17.333 -68 -44.333 -182 -81 -342s-73.667 -312.667 -111 -458c-48 -201.333 -124.667 -351.666 -230 -450.999s-230.666 -149 -375.999 -149
c-84 0 -158.333 23 -223 69s-97 98.333 -97 157c0 45.333 14 82.666 42 111.999s70 44 126 44c44 0 79 -13.667 105 -41s47 -55.666 63 -84.999c16 -30.667 32.333 -59 49 -85s37 -39 61 -39c29.333 0 53.333 19.333 72 58s36 99.334 52 182.001
c29.333 164 68.666 357.333 117.999 580s88 382 116 478c48 157.333 133.333 296.333 256 417s268.667 181 438 181c53.333 0 100 -12.333 140 -37s66 -37 78 -37c5.33301 0 18 2.66699 38 8s42.667 12.666 68 21.999c20 6.66699 41.333 13.334 64 20.001
s37.334 10 44.001 10c5.33301 0 9.66602 -2.33301 12.999 -7s5 -9.66699 5 -15z" />
    <glyph glyph-name="slong_slong" unicode="&#x17f;&#x17f;" horiz-adv-x="1302" 
d="M1882 1252c0 -42.667 -15.0039 -81.3291 -45.0039 -115.996s-68.333 -52 -115 -52c-38.667 0 -67 12 -85 36s-33 50.667 -45 80s-24.667 56 -38 80s-35.333 36 -66 36c-65.333 0 -113.666 -32.667 -144.999 -98s-69 -192 -113 -380l-80 -342l-110 -458
c-50.667 -206.667 -128 -358.334 -232 -455.001s-229.333 -145 -376 -145c-54.667 0 -112 12.333 -172 37s-106 59.667 -138 105c-57.333 -50.667 -113.666 -87 -168.999 -109s-122.333 -33 -201 -33c-82.667 0 -156.667 23 -222 69s-98 98.333 -98 157
c0 45.333 14.333 82.666 43 111.999s71 44 127 44c44 0 79 -13.667 105 -41s46.333 -55.666 61 -84.999c16 -29.333 32.667 -57.333 50 -84s38 -40 62 -40c29.333 0 53.333 19.667 72 59s36 99.666 52 180.999l118 565c48 223.333 86.667 387.666 116 492.999
c42.667 153.333 125.334 288.666 248.001 405.999s268 176 436 176c53.333 0 110.333 -12.667 171 -38s105 -52 133 -80c46.667 37.333 103.334 69 170.001 95s138 39 214 39c72 0 135.333 -22 190 -66s82 -93.333 82 -148zM1024 1110
c-18.667 53.333 -51.666 98.333 -98.999 135s-92.333 55 -135 55c-64 0 -109 -30 -135 -90s-61 -184 -105 -372l-80 -342l-110 -458c-9.33301 -37.333 -19.666 -74.666 -30.999 -111.999s-25 -72.666 -41 -105.999c13.333 -58.667 44.666 -115 93.999 -169s98 -81 146 -81
c37.333 0 69 21.667 95 65s53 135 81 275l110 521c44 203.333 78.667 349.666 104 438.999c9.33301 36 24.666 76.667 45.999 122s41.333 84.666 60 117.999z" />
    <glyph glyph-name="slong_t" unicode="&#x17f;t" horiz-adv-x="1360" 
d="M1406 820c0 -13.333 -4.66992 -28.667 -14.0029 -46s-18 -26 -26 -26l-202 6l-160 -482c-5.33301 -16 -10 -32.333 -14 -49s-6 -30.334 -6 -41.001s1.33301 -18.667 4 -24s8.66699 -8 18 -8c32 0 70.333 21.667 115 65s71 65 79 65c10.667 0 24 -7.33301 40 -22
s24 -24.667 24 -30c0 -8 -15 -27.333 -45 -58s-65 -60 -105 -88c-49.333 -36 -95.666 -65.667 -138.999 -89s-90.333 -35 -141 -35c-56 0 -101 15.333 -135 46s-51 72.667 -51 126c0 18.667 1.33301 35 4 49s7.33398 32.333 14.001 55l178 518l-152 -4
c-9.33301 0 -15.333 6.33301 -18 19s-4 22.334 -4 29.001c0 13.333 4.66699 28.666 14 45.999s18 26 26 26l174 -2l74 234c4 13.333 7.66699 27.333 11 42s5 28.667 5 42c0 44 -15.667 78.333 -47 103s-71 37 -119 37c-65.333 0 -113.666 -33.667 -144.999 -101
s-69 -195.666 -113 -384.999l-80 -342l-110 -458c-50.667 -206.667 -128 -358.334 -232 -455.001s-229.333 -145 -376 -145c-82.667 0 -156.667 23 -222 69s-98 98.333 -98 157c0 45.333 14.333 82.666 43 111.999s71 44 127 44c44 0 79 -13.667 105 -41
s46.333 -55.666 61 -84.999c16 -29.333 32.667 -57.333 50 -84s38 -40 62 -40c29.333 0 53.333 19.333 72 58s36 99.334 52 182.001l112 552c45.333 220 86 388.667 122 506c46.667 157.333 131.667 296.333 255 417s269 181 437 181c129.333 0 227 -40.333 293 -121
s80.333 -177 43 -289l-62 -188h182c8 0 13.333 -6 16 -18s4 -22 4 -30z" />
    <glyph glyph-name="slong_slong_i" unicode="&#x17f;&#x17f;i" horiz-adv-x="1994" 
d="M1914 1252c0 -42.667 -15.334 -81.332 -46.001 -115.999s-68.667 -52 -114 -52c-38.667 0 -68.667 12 -90 36s-40 50.667 -56 80s-32.667 56 -50 80s-41.333 36 -72 36c-64 0 -111.667 -32.667 -143 -98s-69 -192 -113 -380l-81 -344l-109 -456
c-50.667 -206.667 -128 -358.334 -232 -455.001s-229.333 -145 -376 -145c-54.667 0 -112 12.333 -172 37s-106 59.667 -138 105c-57.333 -50.667 -114 -87 -170 -109s-122.667 -33 -200 -33c-82.667 0 -156.667 23 -222 69s-98 98.333 -98 157
c0 42.667 15 79.334 45 110.001s71 46 123 46c44 0 79 -13.667 105 -41s47 -55.666 63 -84.999s32.667 -57.333 50 -84s38 -40 62 -40c29.333 0 53.333 19.667 72 59s36 99.666 52 180.999l118 566c48 224 86 388 114 492c44 153.333 127 288.666 249 405.999
s267.667 176 437 176c52 0 108.333 -12 169 -36s105.667 -51.333 135 -82c46.667 37.333 103.334 69 170.001 95s138 39 214 39c72 0 140.667 -22 206 -66s98 -93.333 98 -148zM1892 226.002c0 -21.333 -50.332 -71.334 -150.999 -150.001s-191.667 -118 -273 -118
c-56 0 -96.667 14.333 -122 43s-38 61.667 -38 99c0 21.333 3.33301 41.666 10 60.999s14 39 22 59l192 394c8 18.667 14.667 36 20 52s8 29.333 8 40c0 12 -2 20.333 -6 25s-9.33301 7 -16 7c-16 0 -49.333 -26.667 -100 -80s-80 -80 -88 -80
c-10.667 0 -21.667 7.33301 -33 22s-17 24 -17 28c0 12 12.333 33 37 63s57 63 97 99c34.667 29.333 76.334 57.333 125.001 84s91.667 40 129 40c60 0 105 -17 135 -51s45 -75 45 -123c0 -25.333 -2.66699 -48.666 -8 -69.999s-13.333 -42.666 -24 -63.999l-150 -334
c-14.667 -32 -24.334 -55.667 -29.001 -71s-7 -26.333 -7 -33c0 -8 2 -13 6 -15s8 -3 12 -3c29.333 0 63.666 21 102.999 63s64.333 63 75 63c9.33301 0 19.333 -7 30 -21s16 -23.667 16 -29zM1024 1110c-18.667 53.333 -51.666 98.335 -98.999 135.002s-92.333 55 -135 55
c-64 0 -109 -30 -135 -90s-61 -184 -105 -372l-81 -344l-109 -456l-30 -110c-12 -42.667 -26.667 -78.667 -44 -108c14.667 -54.667 46 -110 94 -166s97.333 -84 148 -84c37.333 0 69 21.667 95 65s53 135 81 275l110 521c44 203.333 78.667 349.666 104 438.999
c9.33301 36 24.666 76.667 45.999 122s41.333 84.666 60 117.999z" />
    <glyph glyph-name="slong_slong_l" unicode="&#x17f;&#x17f;l" horiz-adv-x="1970" 
d="M2062 1430c0 -6.66699 -0.666992 -14.3311 -2 -22.998s-4 -18.334 -8 -29.001l-362 -1106l-24 -76c-5.33301 -17.333 -8 -28.666 -8 -33.999c0 -4 1.33301 -7 4 -9s6.66699 -3 12 -3c26.667 0 58 18.333 94 55s58.667 55 68 55s19.333 -7 30 -21s16 -23.667 16 -29
c0 -21.333 -47.333 -68.666 -142 -141.999s-182.667 -110 -264 -110c-46.667 0 -82.334 12.333 -107.001 37s-37 61 -37 109c0 18.667 1.66699 36 5 52s9 37.333 17 64l276 880c2.66699 9.33301 5 19 7 29s3 19.667 3 29c0 41.333 -13.333 79.333 -40 114s-64 52 -112 52
c-64 0 -112 -34 -144 -102s-69.333 -196 -112 -384l-81 -344l-109 -456c-50.667 -206.667 -128 -358.334 -232 -455.001s-229.333 -145 -376 -145c-56 0 -113.667 12.333 -173 37s-105.666 59.667 -138.999 105c-56 -50.667 -112 -87 -168 -109s-122.667 -33 -200 -33
c-84 0 -158.333 23 -223 69s-97 98.333 -97 157c0 45.333 14 82.666 42 111.999s70 44 126 44c44 0 79 -13.667 105 -41s47 -55.666 63 -84.999c16 -30.667 32.333 -59 49 -85s37 -39 61 -39c29.333 0 53.333 19.667 72 59s36 99.666 52 180.999l119 566
c47.333 222.667 85.666 386.667 114.999 492c44 153.333 127 288.666 249 405.999s267.667 176 437 176c49.333 0 104.333 -11.667 165 -35s107 -51 139 -83c49.333 40 109 72.333 179 97s138.333 37 205 37c53.333 0 100 -12.333 140 -37s66 -37 78 -37
c5.33301 0 18 2.66699 38 8s42.667 12.666 68 21.999c20 6.66699 41.333 13.334 64 20.001s37.334 10 44.001 10c5.33301 0 9.66602 -2.33301 13 -7c3.33301 -4.66699 5 -9.66699 5 -15zM1026 1110c-21.333 56 -55 101.666 -101 136.999s-90.333 53 -133 53
c-64 0 -109.333 -30 -136 -90s-61.334 -184 -104.001 -372c-17.333 -68 -44.666 -182 -81.999 -342l-110 -458c-8 -36 -18 -73 -30 -111s-26 -73.667 -42 -107c14.667 -54.667 45.667 -110 93 -166s96.333 -84 147 -84c37.333 0 69 21.333 95 64s53.667 134.667 83 276
l110 532c37.333 174.667 71.333 317.334 102 428.001c13.333 49.333 30 94 50 134s39.333 75.333 58 106z" />
    <glyph glyph-name=".notdef" horiz-adv-x="1600" 
d="M1500 0h-1400v1600h1400v-1600zM1400 100v1400h-1200v-1400h1200z" />
    <glyph glyph-name=".null" horiz-adv-x="0" 
 />
    <glyph glyph-name=".null" horiz-adv-x="0" 
 />
    <glyph glyph-name=".null" horiz-adv-x="0" 
 />
    <glyph glyph-name="nonmarkingreturn" unicode="&#x9;" horiz-adv-x="1000" 
 />
    <glyph glyph-name="nonmarkingreturn" unicode="&#xd;" horiz-adv-x="1000" 
 />
    <glyph glyph-name="nonmarkingreturn" unicode="&#xa;" horiz-adv-x="1000" 
 />
    <glyph glyph-name="space" unicode=" " horiz-adv-x="410" 
 />
    <glyph glyph-name="exclam" unicode="!" horiz-adv-x="760" 
d="M690 1190l-318.002 -785.999c-2.66699 -6.66699 -7.66699 -12 -15 -16s-17.666 -6 -30.999 -6c-17.333 0 -29.666 4 -36.999 12s-10.333 18 -9 30l60 872c1.33301 32 15.333 59.333 42 82s68.667 34 126 34c84 0 141 -24.333 171 -73s33.667 -98.334 11 -149.001z
M403.998 116.001c0 -42.667 -15.333 -79.334 -46 -110.001s-67.334 -46 -110.001 -46s-79.334 15.333 -110.001 46s-46 67.334 -46 110.001s15.333 79.334 46 110.001s67.334 46 110.001 46s79.334 -15.333 110.001 -46s46 -67.334 46 -110.001z" />
    <glyph glyph-name="quotedbl" unicode="&#x22;" horiz-adv-x="910" 
d="M994 1264c0 -9.33301 -1.33301 -19.3359 -4 -30.0029s-6 -20 -10 -28l-214 -404c-2.66699 -5.33301 -8.66699 -9.66602 -18 -12.999s-20.666 -3 -33.999 1s-23.333 9 -30 15s-10 12.333 -10 19l-2 458c0 30.667 11.667 60 35 88s59 42 107 42
c9.33301 0 18.666 -0.666992 27.999 -2s17.333 -2.66602 24 -3.99902c42.667 -10.667 74.667 -29.667 96 -57s32 -55.666 32 -84.999zM578 1264c0 -8 -0.999023 -17.3359 -2.99902 -28.0029s-5.66699 -20.667 -11 -30l-214 -404
c-2.66699 -5.33301 -8.66699 -9.66602 -18 -12.999s-20 -3 -32 1c-13.333 4 -23.333 9 -30 15s-10.667 12.333 -12 19l-2 458c0 30.667 11.667 60 35 88s59 42 107 42c9.33301 0 18.666 -0.666992 27.999 -2s17.333 -2.66602 24 -3.99902
c42.667 -10.667 74.667 -29.667 96 -57s32 -55.666 32 -84.999z" />
    <glyph glyph-name="numbersign" unicode="#" horiz-adv-x="1486" 
d="M1438 940c0 -18.667 -3.00195 -35.002 -9.00195 -49.002s-13.667 -21 -23 -21h-324l-108 -370h292c8 0 13.333 -8.66699 16 -26s4 -32.666 4 -45.999c0 -16 -3 -31.667 -9 -47s-13 -23 -21 -23h-326l-116 -388c-2.66699 -8 -12.667 -13.333 -30 -16s-33.333 -4 -48 -4
s-30 1.33301 -46 4s-22.667 8 -20 16l116 388h-280l-116 -388c-4 -8 -14 -13.333 -30 -16s-32 -4 -48 -4s-31.667 1.33301 -47 4s-22.333 8 -21 16l118 388h-274c-8 0 -13.333 8 -16 24s-4 31.333 -4 46c0 16 3.33301 32 10 48s13.334 24 20.001 24h306l110 370h-274
c-8 0 -13.333 8 -16 24s-4 31.333 -4 46s3 30.334 9 47.001s13 25 21 25h306l120 404c1.33301 8 11.333 13.333 30 16s34.667 4 48 4c14.667 0 30 -1.66699 46 -5s22.667 -8.33301 20 -15l-120 -404h280l120 404c2.66699 8 13 13.333 31 16s33.667 4 47 4
c14.667 0 30.334 -1.66699 47.001 -5s23.667 -8.33301 21 -15l-122 -404h294c6.66699 0 11.667 -8 15 -24s5 -32 5 -48zM937.998 869.998h-280l-110 -370h282z" />
    <glyph glyph-name="dollar.standard" unicode="$" horiz-adv-x="1254" 
d="M1170 1344c-12 -68 -22.0068 -133.999 -30.0068 -197.999s-15.333 -128 -22 -192c-1.33301 -4 -8 -7.66699 -20 -11s-21.333 -5 -28 -5c-9.33301 0 -18.666 1.33301 -27.999 4s-14 6.66699 -14 12c1.33301 81.333 -12.667 151.666 -42 210.999
s-64.666 101.666 -105.999 126.999l-120 -396l107 -98c43.333 -40 77 -75.333 101 -106c34.667 -45.333 61.334 -88.666 80.001 -129.999s28 -99.333 28 -174c0 -112 -49.667 -211.667 -149 -299s-239.666 -131 -420.999 -131h-13h-13l-26 -86c-1.33301 -8 -6 -13 -14 -15
s-16.667 -3 -26 -3c-8 0 -16.667 2 -26 6s-14 10 -14 18l26 90c-61.333 12 -117.666 28.667 -168.999 50s-107.666 38 -168.999 50l37 210c14 78.667 24.333 148.667 31 210c0 4 6.66699 7.66699 20 11s23.333 5 30 5c9.33301 0 18 -1.33301 26 -4s12 -6.66699 12 -12
c4 -105.333 26.333 -195.666 67 -270.999s89 -124.333 145 -147l136 452c-66.667 64 -134 133.667 -202 209s-102 165 -102 269c0 101.333 41.333 195.333 124 282s212 130 388 130c12 0 23.333 -0.333008 34 -1s19.334 -1 26.001 -1l34 108c0 8 5 12.667 15 14
s18.333 2 25 2c8 0 16.667 -1.66699 26 -5s13.333 -9 12 -17l-34 -114c38.667 -6.66699 81.667 -16.334 129 -29.001s90.333 -21 129 -25zM805.993 1316l-4 0.000976562c-50.667 0 -93 -16.333 -127 -49s-51 -80.334 -51 -143.001c0 -30.667 7 -60 21 -88
s31.667 -54.667 53 -80zM723.993 268.002c0 34.667 -8.66797 67.667 -26.001 99s-40 62.333 -68 93l-122 -406h6c66.667 0 118.334 18 155.001 54s55 89.333 55 160z" />
    <glyph glyph-name="percent.standard" unicode="%" horiz-adv-x="2178" 
d="M1648 1382l-955.998 -1460c-4 -6.66699 -11.667 -8 -23 -4s-21.666 9.33301 -30.999 16c-10.667 6.66699 -20 14.334 -28 23.001s-10 16.334 -6 23.001l812 1242c-50.667 -25.333 -98 -43.666 -142 -54.999s-89.333 -17 -136 -17c-14.667 0 -31.334 1 -50.001 3
s-34 4.33301 -46 7c1.33301 -10.667 3 -23 5 -37s3 -28.333 3 -43c0 -73.333 -14 -148 -42 -224s-68 -142.667 -120 -200c-57.333 -62.667 -121.333 -111.667 -192 -147s-158 -53 -262 -53c-110.667 0 -197.334 31 -260.001 93s-94 141 -94 237c0 77.333 13.333 152 40 224
s67.334 139.333 122.001 202c50.667 58.667 114.667 106.667 192 144s164 56 260 56c68 0 127.333 -12.333 178 -37s90.667 -58.334 120 -101.001c29.333 -12 57.333 -20 84 -24s52.667 -6 78 -6c65.333 0 134.666 17.667 207.999 53s138.666 83 195.999 143
c4 5.33301 12.667 5.66602 26 0.999023s23.333 -9 30 -13c8 -5.33301 16.667 -13 26 -23s12 -17.667 8 -23zM2158 581.999c0 -73.333 -14.002 -147.999 -42.002 -223.999s-68 -142.667 -120 -200c-56 -61.333 -119.333 -110 -190 -146s-158 -54 -262 -54
c-110.667 0 -197.667 31 -261 93s-95 141 -95 237c0 78.667 13.333 153 40 223s67.334 137 122.001 201c52 60 117.333 108.333 196 145s164.667 55 258 55c110.667 0 197.334 -31.333 260.001 -94s94 -141.334 94 -236.001zM754 1230l0.000976562 5.99805
c-21.333 12 -37.333 23 -48 33s-20 25 -28 45c-69.333 -12 -137.333 -100.667 -204 -266s-100 -302 -100 -410c0 -28 5 -49.333 15 -64s25.667 -22 47 -22c37.333 0 75.333 25.333 114 76s72.667 111.334 102 182.001s53.666 144.334 72.999 221.001s29 143 29 199z
M1864 731.998c0 28 -4.99902 48.999 -14.999 62.999s-25.667 21 -47 21c-36 0 -72.667 -23.333 -110 -70s-72.666 -108.667 -105.999 -186c-30.667 -72 -55.334 -147.333 -74.001 -226s-28 -144 -28 -196c0 -26.667 5 -47.334 15 -62.001s25.667 -22 47 -22
c37.333 0 75.333 25.333 114 76s72.667 111.334 102 182.001s53.666 144.334 72.999 221.001s29 143 29 199z" />
    <glyph glyph-name="ampersand" unicode="&#x26;" horiz-adv-x="1754" 
d="M1866 1100c0 -128 -40.665 -227.334 -121.998 -298.001s-174.666 -106 -279.999 -106c-13.333 0 -28.666 1.66699 -45.999 5s-32 7.66602 -44 12.999c0 -205.333 -74 -382.666 -222 -531.999s-316 -224 -504 -224c-154.667 0 -283.334 46 -386.001 138s-154 208 -154 348
c0 148 59 275.333 177 382s265.667 160 443 160l8 18c17.333 38.667 28.666 68.334 33.999 89.001s8 43 8 67c0 25.333 -13 62.333 -39 111s-39 93.667 -39 135c0 44 14 82.667 42 116s66 50 114 50c46.667 0 83 -14.667 109 -44s39 -67.333 39 -114
c0 -36 -12.333 -81.667 -37 -137l-77 -165l-368 -784c32 -20 65.667 -36 101 -48s73 -18 113 -18c57.333 0 118 7.33301 182 22s120 39.334 168 74.001c52 38.667 96 88.334 132 149.001s56 142.334 60 245.001c-36 28 -69.333 48.667 -100 62s-61.334 20 -92.001 20
c-24 0 -42.333 -7 -55 -21s-19 -31.667 -19 -53c0 -18.667 6 -32.667 18 -42s24.667 -18 38 -26c16 -9.33301 29.333 -19.333 40 -30s16 -30 16 -58s-12.333 -52.667 -37 -74s-52.334 -32 -83.001 -32c-46.667 0 -83.667 17 -111 51s-41 81 -41 141c0 96 40 186 120 270
s174 126 282 126c32 0 65.333 -8.33301 100 -25s68 -35.667 100 -57l88 -58c25.333 -16 50 -24 74 -24c32 0 55 6.66699 69 20s21 31.333 21 54c0 17.333 -5.66699 30.666 -17 39.999s-24.333 18.666 -39 27.999c-14.667 8 -27.667 18.667 -39 32s-17 32.666 -17 57.999
c0 34.667 11.667 64.334 35 89.001s56.333 37 99 37c40 0 73 -17.333 99 -52s39 -77.334 39 -128.001zM642.002 805.999c-96 20 -170.332 8.33203 -222.999 -35.001s-79 -101.666 -79 -174.999c0 -42.667 9.66699 -81 29 -115s45.666 -66.333 78.999 -97z" />
    <glyph glyph-name="quotesingle" unicode="'" horiz-adv-x="494" 
d="M578 1264c0 -8 -0.999023 -17.3359 -2.99902 -28.0029s-5.66699 -20.667 -11 -30l-214 -404c-2.66699 -5.33301 -8.66699 -9.66602 -18 -12.999s-20 -3 -32 1c-13.333 4 -23.333 9 -30 15s-10.667 12.333 -12 19l-2 458c0 30.667 11.667 60 35 88s59 42 107 42
c9.33301 0 18.666 -0.666992 27.999 -2s17.333 -2.66602 24 -3.99902c42.667 -10.667 74.667 -29.667 96 -57s32 -55.666 32 -84.999z" />
    <glyph glyph-name="parenleft.standard" unicode="(" horiz-adv-x="780" 
d="M970 1492c1.33301 -5.33301 1.99805 -14.3301 1.99805 -26.9971s-2 -19.667 -6 -21c-177.333 -118.667 -317.666 -280 -420.999 -484s-155 -400.667 -155 -590c0 -93.333 12.333 -182.333 37 -267s63.667 -161 117 -229c2.66699 -2.66699 1.66699 -9.33398 -3 -20.001
s-9.66699 -18.667 -15 -24c-6.66699 -6.66699 -14.667 -14 -24 -22s-15.333 -10.667 -18 -8c-141.333 88 -245.333 192.333 -312 313s-100 245.667 -100 375c0 201.333 75.333 398.666 226 591.999s365.334 341.333 644.001 444c4 1.33301 9.33301 -2.33398 16 -11.001
s10.667 -15.667 12 -21z" />
    <glyph glyph-name="parenright.standard" unicode=")" horiz-adv-x="780" 
d="M718 838c0 -200 -76.333 -399.002 -229 -597.002s-364.334 -345.667 -635.001 -443c-4 0 -9 4 -15 12s-10.333 14.667 -13 20s-3.66699 14 -3 26s3 19.333 7 22c180 122.667 321 283.334 423 482.001s153 396.667 153 594c0 88 -12.333 175.333 -37 262
s-63.667 164 -117 232c-4 4 -3 10.667 3 20l15 24c4 6.66699 11.333 13.667 22 21s17.334 10.333 20.001 9c138.667 -85.333 241 -188.666 307 -309.999s99 -246 99 -374z" />
    <glyph glyph-name="asterisk" unicode="*" 
d="M866 1120c-4 -16 -12.6699 -30.002 -26.0029 -42.002s-29.333 -20.667 -48 -26c-30.667 -9.33301 -66.667 -9.66602 -108 -0.999023s-77.333 9 -108 1c22.667 -20 55.334 -36 98.001 -48s74.667 -28.667 96 -50c13.333 -12 23.333 -26.333 30 -43s8 -33 4 -49l-9 -23
c-3.33301 -8.66699 -7.66602 -15 -12.999 -19c-12 -12 -25.667 -20 -41 -24s-29 -4.66699 -41 -2c-9.33301 2.66699 -18 6 -26 10s-17.333 10.667 -28 20c-25.333 25.333 -43.666 56.666 -54.999 93.999s-29 68 -53 92c-6.66699 -25.333 -4.33398 -60.666 6.99902 -105.999
s13 -81.333 5 -108c-6.66699 -26.667 -19.667 -48.334 -39 -65.001s-43 -21 -71 -13c-28 6.66699 -47.333 21.334 -58 44.001s-12.667 47.334 -6 74.001c6.66699 30.667 24.667 62.667 54 96s47.333 64 54 92c-33.333 -9.33301 -63.333 -29 -90 -59s-56.667 -49.667 -90 -59
c-13.333 -4 -24.666 -6.33301 -33.999 -7s-18.666 0.333008 -27.999 3c-14.667 4 -27.334 11 -38.001 21s-18.667 23 -24 39c-2.66699 9.33301 -3.66699 18 -3 26s1 15.333 1 22c4 16 12.333 29.667 25 41s29 20.333 49 27c28 9.33301 63.667 9.33301 107 0
s79.666 -9.33301 108.999 0c-24 22.667 -56.333 38.667 -97 48s-73 25.333 -97 48c-14.667 14.667 -25 30 -31 46s-7 32 -3 48c1.33301 6.66699 3.66602 13 6.99902 19s8.33301 13 15 21c12 13.333 25.333 22 40 26s28.667 4.66699 42 2
c9.33301 -2.66699 18.333 -6.66699 27 -12s17.667 -12 27 -20c24 -22.667 42.333 -54 55 -94s30.334 -70.667 53.001 -92c5.33301 25.333 3.33301 61.666 -6 108.999s-11.333 83 -6 107c6.66699 28 19.667 49.333 39 64s43 19.334 71 14.001c25.333 -5.33301 44 -20 56 -44
s14.667 -49.333 8 -76c-9.33301 -33.333 -27.333 -64.666 -54 -93.999s-44.667 -60 -54 -92c32 10.667 62 30.334 90 59.001s58 48.334 90 59.001c12 4 23.667 5.66699 35 5s20.333 -1.66699 27 -3c13.333 -2.66699 26 -9.33398 38 -20.001s20 -24 24 -40
c1.33301 -6.66699 2.33301 -14.334 3 -23.001s0.333984 -16.334 -0.999023 -23.001z" />
    <glyph glyph-name="plus" unicode="+" horiz-adv-x="874" 
d="M804 442c0 -14.667 -2.33301 -30.0029 -7 -46.0029s-11 -24 -19 -24h-272v-268c0 -8 -8 -14.333 -24 -19s-32 -7 -48 -7c-13.333 0 -28.333 2.33301 -45 7s-25 11 -25 19v268h-268c-8 0 -14.333 8 -19 24s-7 31.333 -7 46s2.33301 30.334 7 47.001s11 25 19 25h268v266
c0 6.66699 8 12.334 24 17.001s31.333 7 46 7c16 0 32 -2 48 -6s24 -10 24 -18v-266h272c8 0 14.333 -8.66699 19 -26s7 -32.666 7 -45.999z" />
    <glyph glyph-name="comma" unicode="," horiz-adv-x="644" 
d="M406 144c0 -76 -20 -145 -60 -207s-83.333 -111.667 -130 -149c-49.333 -40 -97.333 -71.667 -144 -95s-76 -35.666 -88 -36.999c-6.66699 0 -15 8.66699 -25 26s-15 30.666 -15 39.999c0 4 14.333 14 43 30s55.667 33.333 81 52c33.333 25.333 62 50 86 74
s36 55.333 36 94c0 4 -1.66699 7.33301 -5 10s-7 4 -11 4s-8 -0.333008 -12 -1s-8 -1 -12 -1c-29.333 0 -54.666 12.667 -75.999 38s-32 56 -32 92c0 61.333 19 112 57 152s82.333 60 133 60c49.333 0 90.666 -16.667 123.999 -50s50 -77.333 50 -132z" />
    <glyph glyph-name="hyphen.standard" unicode="-" horiz-adv-x="814" 
d="M704 676c0 -26.667 -2.33301 -47.667 -7 -63s-11 -23 -19 -23h-520c-8 0 -14.333 7.66699 -19 23s-7 36.333 -7 63c0 25.333 2.33301 46 7 62s11 24 19 24h520c8 0 14.333 -8 19 -24s7 -36.667 7 -62z" />
    <glyph glyph-name="period" unicode="." horiz-adv-x="644" 
d="M406 142c0 -49.333 -18 -92 -54 -128s-78.667 -54 -128 -54c-50.667 0 -93.667 18 -129 54s-53 78.667 -53 128c0 50.667 17.667 93.667 53 129s78.333 53 129 53c49.333 0 92 -17.667 128 -53s54 -78.333 54 -129z" />
    <glyph glyph-name="slash" unicode="/" horiz-adv-x="740" 
d="M892 1396l-862.001 -1444c-4 -6.66699 -13 -8 -27 -4s-27 10 -39 18c-12 6.66699 -23.333 15 -34 25s-14.667 18.333 -12 25l862 1444c2.66699 6.66699 10.334 8.33398 23.001 5.00098s27 -9.66602 43 -18.999c12 -6.66699 23.667 -15 35 -25s15 -18.333 11 -25z" />
    <glyph glyph-name="zero" unicode="0" horiz-adv-x="1110" 
d="M1028 598c0 -73.333 -13.668 -149.002 -41.001 -227.002s-67.666 -146.333 -120.999 -205c-58.667 -65.333 -123 -116.333 -193 -153s-157 -55 -261 -55c-112 0 -198 35.333 -258 106s-90 153.334 -90 248.001c0 80 13 155.333 39 226s67 139.334 123 206.001
c50.667 60 116 109.667 196 149s166 59 258 59c112 0 198 -35 258 -105s90 -153 90 -249zM723.999 771.998c0 26.667 -4.99902 47.332 -14.999 61.999s-25.667 22 -47 22c-34.667 0 -69.334 -25 -104.001 -75s-68 -117 -100 -201c-22.667 -61.333 -43.334 -135 -62.001 -221
s-28 -159 -28 -219c0 -26.667 5 -47.667 15 -63s25 -23 45 -23c36 0 72.333 26.333 109 79s69 118.334 97 197.001c26.667 76 48.334 154.667 65.001 236s25 150 25 206z" />
    <glyph glyph-name="one" unicode="1" horiz-adv-x="916" 
d="M896 888c0 -9.33301 -2.6709 -20.335 -8.00391 -33.002s-10.666 -19 -15.999 -19c-56 -5.33301 -101.333 -16.333 -136 -33s-60 -59.667 -76 -129l-104 -436c-4 -16 -7 -30.333 -9 -43s-3 -23.667 -3 -33c0 -36 13.667 -58 41 -66s62.333 -14 105 -18
c4 0 6.66699 -4.66699 8 -14s2 -16 2 -20c0 -9.33301 -2.33301 -20.666 -7 -33.999s-9.66699 -20 -15 -20c-41.333 0 -96.666 1.66699 -165.999 5s-128 5 -176 5c-46.667 0 -104 -1.66699 -172 -5s-122 -5 -162 -5c-2.66699 0 -5 3.33301 -7 10s-3 14.667 -3 24
s2.33301 20.333 7 33s10.334 19.667 17.001 21c62.667 6.66699 109 15 139 25s54.333 55 73 135l104 436c4 16 7 30.333 9 43s3 23.667 3 33c0 36 -12.667 57.667 -38 65s-62 14.333 -110 21c-2.66699 0 -5 4.33301 -7 13s-3 15 -3 19c0 9.33301 2.33301 21 7 35
s10.334 21 17.001 21c41.333 0 97 -2 167 -6s128.333 -6 175 -6s104 2 172 6s122 6 162 6c1.33301 0 3.33301 -3.66699 6 -11s4 -15.666 4 -24.999z" />
    <glyph glyph-name="two" unicode="2" horiz-adv-x="1022" 
d="M906 324c-18.667 -36 -43.667 -89.3291 -75 -159.996s-55 -129.334 -71 -176.001c-24 5.33301 -63.667 8.66602 -119 9.99902s-131.666 2 -228.999 2c-101.333 0 -186 -0.666992 -254 -2s-111.333 -4 -130 -8c-5.33301 0 -10.333 4.66699 -15 14s-7 18.666 -7 27.999
c0 4 0.333008 7.66699 1 11s2.33398 6.33301 5.00098 9l188 144c72 54.667 128 102 168 142c58.667 56 99.667 104.667 123 146s35 83.333 35 126c0 36 -10 67 -30 93s-50.667 39 -92 39s-75 -9.33301 -101 -28s-51.667 -41.334 -77 -68.001c-4 -2.66699 -7.66699 -5 -11 -7
s-6.33301 -3 -9 -3c-8 0 -19.667 7 -35 21s-23 23 -23 27c0 1.33301 0.666992 3.33301 2 6s2 4.66699 2 6c52 65.333 115.333 124.666 190 177.999s148.667 80 222 80c90.667 0 161 -27.667 211 -83s75 -118.333 75 -189c0 -77.333 -40.333 -154.666 -121 -231.999
s-201 -153.333 -361 -228l276 8c44 2.66699 77.667 13.334 101 32.001s49.666 50 78.999 94c1.33301 4 8.33301 5.33301 21 4s21.667 -3.33301 27 -6c6.66699 -2.66699 14.667 -7.33398 24 -14.001s12.666 -12 9.99902 -16z" />
    <glyph glyph-name="three" unicode="3" horiz-adv-x="968" 
d="M846 682c0 -60 -32.333 -118.664 -97 -175.997s-148.334 -96.666 -251.001 -117.999c84 -2.66699 152.667 -31.334 206 -86.001s80 -127.334 80 -218.001c0 -142.667 -74 -267.334 -222 -374.001s-306.667 -160 -476 -160c-85.333 0 -153.333 15.333 -204 46
s-76 70.667 -76 120c0 41.333 14.333 74.666 43 99.999s65 38 109 38c34.667 0 61.334 -11 80.001 -33s33.334 -45 44.001 -69c10.667 -25.333 22 -48.666 34 -69.999s28 -32 48 -32c74.667 0 140 41 196 123s84 171.667 84 269c0 68 -13.667 114.333 -41 139
s-63 37 -107 37c-13.333 0 -28 -2.33301 -44 -7s-30 -10.334 -42 -17.001c-5.33301 -2.66699 -16 1 -32 11s-24 22.333 -24 37c0 4 1.33301 10.333 4 19s6 14.334 10 17.001c130.667 69.333 222 135.666 274 198.999s78 107 78 131c0 36 -10 67 -30 93s-50.667 39 -92 39
c-33.333 0 -63.333 -8 -90 -24s-55.334 -40 -86.001 -72c-4 -2.66699 -7.66699 -4.66699 -11 -6s-6.33301 -2 -9 -2c-10.667 0 -24 7.33301 -40 22s-20.667 26.667 -14 36c54.667 69.333 117.667 129.666 189 180.999s145 77 221 77c92 0 163 -27.667 213 -83
s75 -117.666 75 -186.999z" />
    <glyph glyph-name="four" unicode="4" horiz-adv-x="1062" 
d="M986 94c0 -24 -4.33301 -45.6641 -13 -64.9971s-18.334 -29 -29.001 -29h-218l-98 -408c-2.66699 -10.667 -22.334 -20.334 -59.001 -29.001s-71 -13 -103 -13c-41.333 0 -78.666 3.66699 -111.999 11s-48.666 17.666 -45.999 30.999l96 408h-498
c-6.66699 0 -12 2.66699 -16 8s-6 10.666 -6 15.999c0 12 1.33301 22.333 4 31s7.33398 17 14.001 25l894 832c12 12 25 20.333 39 25s26.333 7 37 7c18.667 0 35.667 -4 51 -12s21.666 -16 18.999 -24l-190 -768h218c5.33301 0 9.33301 -5 12 -15s4 -20.333 4 -31z
M534 536.003l-430 -396h326z" />
    <glyph glyph-name="five" unicode="5" horiz-adv-x="922" 
d="M928 960c0 -45.333 -30.9971 -114.33 -92.9971 -206.997s-111.667 -139 -149 -139c-58.667 0 -119.334 5 -182.001 15s-114 23 -154 39l-40 -84c-4 -6.66699 -7 -14 -9 -22s-3 -14.667 -3 -20c0 -9.33301 3.66699 -17.333 11 -24s19 -11.334 35 -14.001
c126.667 -25.333 223.667 -75.666 291 -150.999s101 -162.333 101 -261c0 -146.667 -76 -273.667 -228 -381s-328.667 -161 -530 -161c-4 0 -7.33301 5 -10 15s-4 19.667 -4 29s2.33301 19 7 29s9 15 13 15c116 0 215 35.667 297 107s123 155 123 251
c0 78.667 -28.333 143.667 -85 195s-131 82.333 -223 93c-6.66699 1.33301 -11.334 4.66602 -14.001 9.99902s-4 12.666 -4 21.999c0 4 1 8.33301 3 13s3.66699 9 5 13l286 584c4 9.33301 8.66699 16.666 14 21.999s12.666 8 21.999 8c5.33301 0 18 -2.66699 38 -8
s49.333 -11.333 88 -18c37.333 -8 73 -14.333 107 -19s72.333 -7 115 -7c20 0 39 7.33301 57 22s30.333 32 37 52c1.33301 4 6.33301 6.66699 15 8s17.667 2 27 2c8 0 16 -3 24 -9s12 -12.333 12 -19z" />
    <glyph glyph-name="six" unicode="6" horiz-adv-x="1096" 
d="M1094 1300c0 -4 -0.99707 -8.33398 -2.99707 -13.001s-4.33301 -7.66699 -7 -9c-240 -116 -418 -255.333 -534 -418s-174 -352 -174 -568c0 -85.333 10.667 -146.333 32 -183s52.666 -55 93.999 -55c60 0 110 59 150 177s60 231 60 339c0 26.667 -5.33301 47 -16 61
s-26 21 -46 21c-10.667 0 -21.334 -2.66699 -32.001 -8s-22 -11.333 -34 -18c-4 -2.66699 -10.333 -1 -19 5s-15 12.333 -19 19s-7.66699 14.667 -11 24s-3.66602 16 -0.999023 20c21.333 24 48.666 42.667 81.999 56s74.666 20 123.999 20
c82.667 0 150.334 -28.333 203.001 -85s79 -133.667 79 -231c0 -128 -57.667 -242.667 -173 -344s-242.333 -152 -381 -152c-113.333 0 -209 35.667 -287 107s-117 169 -117 293c0 125.333 30.667 242 92 350s140.666 206.667 237.999 296c96 88 203 162.333 321 223
s235 106.334 351 137.001c4 1.33301 9.66699 -6 17 -22s11 -30 11 -42z" />
    <glyph glyph-name="seven" unicode="7" horiz-adv-x="956" 
d="M1020 894c0 -2.66699 -0.666992 -6.00098 -2 -10.001s-2.66602 -7.33301 -3.99902 -10l-824 -1338c-4 -9.33301 -15 -16 -33 -20s-36.333 -6 -55 -6c-16 0 -33.667 3 -53 9s-27 13.667 -23 23l728 1062h-410c-40 0 -75 -17.667 -105 -53s-57.667 -81.666 -83 -138.999
c-2.66699 -4 -8.66699 -7.66699 -18 -11s-18.666 -5 -27.999 -5c-8 0 -17 2 -27 6s-15 8 -15 12c21.333 61.333 46.666 147 75.999 257s50.666 199 63.999 267c10.667 -2.66699 29.334 -5 56.001 -7s54.667 -3 84 -3c24 0 56.667 -0.333008 98 -1s88 -1 140 -1
c76 0 158.667 0.666992 248 2s143.333 4 162 8c5.33301 1.33301 10.666 -3 15.999 -13s8 -19.667 8 -29z" />
    <glyph glyph-name="eight" unicode="8" horiz-adv-x="1046" 
d="M1060 1070c0 -81.333 -22.6699 -149.666 -68.0029 -204.999s-116 -107 -212 -155c38.667 -61.333 67 -118.333 85 -171s27 -109 27 -169c0 -102.667 -45.667 -197 -137 -283s-209.666 -129 -354.999 -129c-88 0 -167.667 29.667 -239 89s-107 132.333 -107 219
c0 89.333 32.333 168 97 236s148.334 124.667 251.001 170c-37.333 60 -66.333 116 -87 168s-31 108 -31 168c0 96 41.333 179.333 124 250s185.334 106 308.001 106c97.333 0 179 -31.333 245 -94s99 -129.334 99 -200.001zM863.997 1086
c0 56 -9.33105 100.333 -27.998 133s-47.334 49 -86.001 49c-44 0 -76.667 -14.667 -98 -44s-32 -66.666 -32 -111.999c0 -56 9.33301 -107 28 -153s46.667 -99 84 -159c53.333 41.333 88.666 83.666 105.999 126.999s26 96.333 26 159zM559.999 288
c0 50.667 -8.99902 99.334 -26.999 146.001s-43.667 96.667 -77 150c-62.667 -34.667 -109.334 -82 -140.001 -142s-46 -126.667 -46 -200c0 -61.333 14.333 -108 43 -140s65 -48 109 -48c48 0 83 21.667 105 65s33 99.666 33 168.999z" />
    <glyph glyph-name="nine" unicode="9" horiz-adv-x="1074" 
d="M1000 534c0 -105.333 -30.665 -211.333 -91.998 -318s-139.333 -203.334 -234 -290.001c-97.333 -88 -205.333 -165.667 -324 -233s-236 -115 -352 -143c-4 0 -10 7.33301 -18 22s-12 28.667 -12 42c0 4 1 8 3 12s4.33301 7.33301 7 10
c262.667 129.333 446.667 266.333 552 411s158 345.667 158 603c0 68 -8.33301 119.333 -25 154s-43 52 -79 52c-65.333 0 -118 -54 -158 -162s-60 -208.667 -60 -302c0 -32 6.66699 -57 20 -75s32 -27 56 -27c8 0 18 2.33301 30 7s23.333 11 34 19
c2.66699 2.66699 9 0.666992 19 -6s17 -12.667 21 -18c2.66699 -5.33301 6 -13.666 10 -24.999s4 -18.333 0 -21c-24 -24 -52 -42.333 -84 -55s-72 -19 -120 -19c-82.667 0 -151.334 25 -206.001 75s-82 124.333 -82 223c0 138.667 52 253.667 156 345s224 137 360 137
c129.333 0 231.666 -37 306.999 -111s113 -176.333 113 -307z" />
    <glyph glyph-name="colon" unicode=":" horiz-adv-x="644" 
d="M562 704c0 -50.667 -18 -93.667 -54 -129s-78.667 -53 -128 -53s-92 17.667 -128 53s-54 78.333 -54 129c0 49.333 18 92 54 128s78.667 54 128 54s92 -18 128 -54s54 -78.667 54 -128zM378 142c0 -49.333 -18 -92 -54 -128s-78.667 -54 -128 -54
c-50.667 0 -93.667 18 -129 54s-53 78.667 -53 128c0 50.667 17.667 93.667 53 129s78.333 53 129 53c49.333 0 92 -17.667 128 -53s54 -78.333 54 -129z" />
    <glyph glyph-name="semicolon" unicode=";" horiz-adv-x="644" 
d="M522 704c0 -50.667 -18 -93.667 -54 -129s-78.667 -53 -128 -53s-92 17.667 -128 53s-54 78.333 -54 129c0 49.333 18 92 54 128s78.667 54 128 54s92 -18 128 -54s54 -78.667 54 -128zM370 144c0 -76 -20 -145 -60 -207s-83.333 -111.667 -130 -149
c-49.333 -40 -97.333 -71.667 -144 -95s-76 -35.666 -88 -36.999c-6.66699 0 -15 8.66699 -25 26s-15 30.666 -15 39.999c0 4 14.333 14 43 30s55.667 33.333 81 52c33.333 25.333 62 50 86 74s36 55.333 36 94c0 4 -1.66699 7.33301 -5 10s-7 4 -11 4s-8 -0.333008 -12 -1
s-8 -1 -12 -1c-29.333 0 -54.666 12.667 -75.999 38s-32 56 -32 92c0 61.333 19 112 57 152s82.333 60 133 60c49.333 0 90.666 -16.667 123.999 -50s50 -77.333 50 -132z" />
    <glyph glyph-name="less" unicode="&#x3c;" horiz-adv-x="1064" 
d="M936 92c6.66699 -2.66699 8.66895 -12.666 6.00195 -29.999s-7.33398 -32 -14.001 -44s-16 -24.667 -28 -38s-21.333 -18 -28 -14l-776 394c-9.33301 5.33301 -16 13.666 -20 24.999s-6 23 -6 35c0 13.333 2 25.333 6 36s10.667 18.667 20 24l776 394
c6.66699 4 16.334 -1 29.001 -15s21.667 -26.333 27 -37c5.33301 -12 9.66602 -26.667 12.999 -44s1.66602 -27.333 -5.00098 -30l-654 -328z" />
    <glyph glyph-name="equal" unicode="=" horiz-adv-x="874" 
d="M804 590c0 -14.667 -2.33301 -30.002 -7 -46.002s-11 -24 -19 -24h-682c-8 0 -14.333 8 -19 24s-7 31.333 -7 46s2.33301 30.334 7 47.001s11 25 19 25h682c8 0 14.333 -8.66699 19 -26s7 -32.666 7 -45.999zM804 289.998c0 -14.667 -2.33301 -30.002 -7 -46.002
s-11 -24 -19 -24h-682c-8 0 -14.333 8 -19 24s-7 31.333 -7 46s2.33301 30.334 7 47.001s11 25 19 25h682c8 0 14.333 -8.66699 19 -26s7 -32.666 7 -45.999z" />
    <glyph glyph-name="greater" unicode="&#x3e;" horiz-adv-x="1064" 
d="M994 420c0 -10.667 -2.33105 -22.333 -6.99805 -35s-11 -21 -19 -25l-776 -394c-6.66699 -2.66699 -16 2 -28 14s-21.333 24.667 -28 38c-8 16 -13 31.333 -15 46s0.333008 24 7 28l654 328l-654 328c-6.66699 4 -8.33398 14 -5.00098 30s7.66602 30.667 12.999 44
c6.66699 13.333 16 26 28 38s21.333 16.667 28 14l776 -394c9.33301 -5.33301 16 -13.333 20 -24s6 -22.667 6 -36z" />
    <glyph glyph-name="question" unicode="?" horiz-adv-x="978" 
d="M1012 1074c0 -98.667 -29.3311 -173.334 -87.998 -224.001s-119.334 -90 -182.001 -118c-56 -25.333 -115 -58 -177 -98s-93 -86.667 -93 -140c0 -20 4.66699 -33.333 14 -40s22.666 -10 39.999 -10c26.667 0 51 9.66699 73 29s34.333 29 37 29
c6.66699 0 15.334 -8.66699 26.001 -26s16 -30.666 16 -39.999c0 -14.667 -22.333 -32.667 -67 -54s-92.334 -32 -143.001 -32c-80 0 -143.333 22.333 -190 67s-70 97.667 -70 159c0 81.333 29.667 147.333 89 198s124.333 96 195 136c72 41.333 137.333 81 196 119
s88 88.333 88 151c0 40 -8.66699 73 -26 99s-46 39 -86 39c-48 0 -84.667 -18 -110 -54s-38 -82.667 -38 -140c0 -48 -15.667 -85 -47 -111s-66.333 -39 -105 -39c-44 0 -80.667 13.333 -110 40s-44 64.667 -44 114c0 64 43 127.667 129 191s185 95 297 95
c117.333 0 209.333 -35.667 276 -107s100 -149 100 -233zM454.002 116c0 -42.667 -15.333 -79.3301 -46 -109.997s-67.334 -46 -110.001 -46s-79.334 15.667 -110.001 47s-46 67.666 -46 108.999s15.333 77.666 46 108.999s67.334 47 110.001 47s79.334 -15.333 110.001 -46
s46 -67.334 46 -110.001z" />
    <glyph glyph-name="at" unicode="@" horiz-adv-x="1556" 
d="M1528 832c0 -129.333 -48.0049 -245 -144.005 -347s-212 -153 -348 -153c-82.667 0 -137.667 16 -165 48s-31.666 80.667 -12.999 146c-42.667 -60 -87 -107.333 -133 -142s-95 -52 -147 -52c-46.667 0 -83 15.667 -109 47s-39 72.333 -39 123
c0 97.333 57.667 205.333 173 324s221 178 317 178c26.667 0 50.334 -7.66699 71.001 -23s31 -35 31 -59l26 64c2.66699 5.33301 14.667 9.66602 36 12.999s43.333 5 66 5c24 0 49 -4 75 -12s37.667 -14.667 35 -20l-182 -416c-17.333 -38.667 -23.333 -65.334 -18 -80.001
s17.333 -22 36 -22c97.333 0 176.333 37 237 111s91 163 91 267c0 117.333 -47.333 219 -142 305s-230.667 129 -408 129c-189.333 0 -337.666 -57 -444.999 -171s-161 -261.667 -161 -443c0 -169.333 54.667 -309 164 -419s252 -165 428 -165c128 0 231 16.333 309 49
s145.667 69.667 203 111c4 2.66699 10.333 -0.333008 19 -9s14.334 -15.667 17.001 -21c4 -6.66699 7.33301 -15.667 10 -27s2.66699 -17.666 0 -18.999c-69.333 -52 -147.333 -97.667 -234 -137s-200 -59 -340 -59c-236 0 -425.667 72.333 -569 217
s-215 316.334 -215 515.001c0 88 17.667 173.667 53 257s88.333 161 159 233c69.333 69.333 155.333 125.333 258 168s217.334 64 344.001 64c196 0 354 -54.667 474 -164s180 -247.333 180 -414zM975.995 872c0 12 -2 21.001 -6 27.001s-10 9 -18 9
c-30.667 0 -89.667 -53 -177 -159s-131 -188.333 -131 -247c0 -14.667 2.66699 -25.334 8 -32.001s16 -10 32 -10c38.667 0 97 56.333 175 169s117 193.667 117 243z" />
    <glyph glyph-name="A" unicode="A" horiz-adv-x="1548" 
d="M1384 44c0 -9.33301 -2.33105 -20.6699 -6.99805 -34.0029s-10.334 -20 -17.001 -20c-64 0 -127.667 1.66699 -191 5s-122.333 5 -177 5c-60 0 -126.667 -1.66699 -200 -5s-142 -5 -206 -5c-1.33301 0 -3.33301 3.33301 -6 10s-4 14.667 -4 24s2.66699 20.333 8 33
s10.666 19.667 15.999 21c90.667 5.33301 144.334 21.333 161.001 48s25 68 25 124l4 168h-386l-120 -148c-17.333 -21.333 -32.666 -43.666 -45.999 -66.999s-20 -42.333 -20 -57c0 -20 6.33301 -36 19 -48s39 -18.667 79 -20c2.66699 0 5 -4.66699 7 -14s3 -16 3 -20
c0 -9.33301 -2.33301 -20.666 -7 -33.999s-10.334 -20 -17.001 -20c-57.333 0 -105 1.66699 -143 5s-84.333 5 -139 5c-44 0 -81.667 -1.66699 -113 -5s-70.333 -5 -117 -5c-1.33301 0 -3.33301 3.33301 -6 10s-4 14.667 -4 24s2.33301 20.333 7 33s9.66699 19.667 15 21
c81.333 8 147.333 28.667 198 62s100 79.333 148 138l930 1118c0 4 6.66699 7.66699 20 11s26 5 38 5c14.667 0 28.667 -2 42 -6s20 -7.33301 20 -10l-14 -1132c-1.33301 -69.333 10.667 -115.666 36 -138.999s76.666 -39 153.999 -47c2.66699 0 5 -4.66699 7 -14
s3 -16 3 -20zM800.002 911.996l-318 -398h310z" />
    <glyph glyph-name="B" unicode="B" horiz-adv-x="1474" 
d="M1428 1058c0 -80 -34.3271 -152.999 -102.994 -218.999s-174.334 -103 -317.001 -111c129.333 -10.667 220.666 -43.667 273.999 -99s80 -121 80 -197c0 -129.333 -56.333 -235.333 -169 -318s-269 -124 -469 -124c-65.333 0 -130 1.66699 -194 5s-126.667 5 -188 5
s-125 -1.66699 -191 -5s-131.667 -5 -197 -5c-1.33301 0 -3.33301 3.33301 -6 10s-4 14.667 -4 24s4 20.333 12 33s14.667 19.667 20 21c78.667 9.33301 128.667 26 150 50s38 63.333 50 118l208 878c2.66699 12 5 23.667 7 35s3 22.333 3 33c0 32 -4 54.333 -12 67
s-52 23.667 -132 33c-4 1.33301 -7 6.33301 -9 15s-3 15 -3 19c0 9.33301 3.66699 20.666 11 33.999s14.333 20 21 20c65.333 0 126.666 -1.66699 183.999 -5s116.666 -5 177.999 -5s113.666 1.66699 156.999 5s97.666 5 162.999 5c162.667 0 282.667 -31.667 360 -95
s116 -139 116 -227zM1064.01 1070c0 66.667 -15.665 118.666 -46.998 155.999s-69 56 -113 56h-22c-22.667 0 -40.334 -6 -53.001 -18s-22.334 -31.333 -29.001 -58l-104 -436h96c81.333 0 147 26.333 197 79s75 126.334 75 221.001zM956.008 416
c0 93.333 -16.6689 159.667 -50.002 199s-84.666 59 -153.999 59h-80l-102 -428c-12 -50.667 -12.667 -89.667 -2 -117s37.334 -41 80.001 -41c76 0 146.333 29.333 211 88s97 138.667 97 240z" />
    <glyph glyph-name="C" unicode="C" horiz-adv-x="1516" 
d="M1426 1392c-12 -64 -25.3311 -145 -39.998 -243s-25.334 -171 -32.001 -219c0 -5.33301 -5.66699 -9.66602 -17 -12.999s-20.333 -5 -27 -5c-9.33301 0 -18.666 1.66699 -27.999 5s-14.666 7.66602 -15.999 12.999c-12 114.667 -32 205 -60 271s-84 99 -168 99
c-58.667 0 -121.334 -21 -188.001 -63s-129.334 -101.667 -188.001 -179c-54.667 -72 -100.667 -161.333 -138 -268s-56 -216 -56 -328c0 -144 30 -248 90 -312s132.667 -96 218 -96c92 0 178.667 42.667 260 128s143.333 182 186 290c2.66699 5.33301 9 9.33301 19 12
s19.667 4 29 4c6.66699 0 15.667 -1.66699 27 -5s15.666 -7 12.999 -11c-13.333 -50.667 -30.333 -122.334 -51 -215.001s-37.667 -171.667 -51 -237c-48 -12 -108.667 -25.333 -182 -40s-166 -22 -278 -22c-193.333 0 -352 52 -476 156s-186 243.333 -186 418
c0 110.667 24.333 219.334 73 326.001s121.667 202.667 219 288c94.667 81.333 211.667 146 351 194s297 72 473 72c46.667 0 87 -1.66699 121 -5s68.333 -8.33301 103 -15z" />
    <glyph glyph-name="D" unicode="D" horiz-adv-x="1696" 
d="M1628 826c0 -236 -92.668 -433.666 -278.001 -592.999s-404 -239 -656 -239c-41.333 0 -95 1 -161 3s-120.333 3 -163 3c-56 0 -127.667 -1.33301 -215 -4l-201 -6c-4 0 -7 2.66699 -9 8s-3 11.333 -3 18c0 9.33301 4 21.666 12 36.999s14.667 23.666 20 24.999
c78.667 9.33301 129 27.333 151 54s38.333 64.667 49 114l208 870c2.66699 12 5 23.667 7 35s3 22.333 3 33c0 29.333 -6.33301 51 -19 65s-55 25.667 -127 35c-2.66699 1.33301 -5 6.33301 -7 15s-3 15 -3 19c0 14.667 3.33301 27.334 10 38.001s13.334 16 20.001 16
c46.667 -1.33301 107 -2 181 -2h193c44 0 95.333 1 154 3s108 3 148 3c245.333 0 421 -53.667 527 -161s159 -237 159 -389zM1246 898.001c0 93.333 -23.667 180 -71 260s-131 120 -251 120l-26 -2c-26.667 0 -49 -7.66699 -67 -23s-33 -47 -45 -95l-224 -946
c-12 -48 -12.333 -79.667 -1 -95s30.333 -23 57 -23l52 -2c172 0 311 80.667 417 242s159 349.333 159 564z" />
    <glyph glyph-name="E" unicode="E" horiz-adv-x="1444" 
d="M1388 1380c-5.33301 -32 -9.99707 -69.333 -13.9971 -112s-7.33301 -80 -10 -112c-1.33301 -21.333 -3 -56.333 -5 -105s-3 -85 -3 -109c0 -4 -5.66699 -7.66699 -17 -11s-21 -5 -29 -5c-6.66699 0 -15.334 1.66699 -26.001 5s-16 7 -16 11c-2.66699 80 -30 155 -82 225
s-118.667 105 -200 105h-56c-29.333 0 -57.333 -5.66699 -84 -17s-47.334 -45 -62.001 -101l-94 -398h86c66.667 0 120 12 160 36s72 70.667 96 140c1.33301 4 7.33301 7.66699 18 11s19.334 5 26.001 5c9.33301 0 19.666 -1.66699 30.999 -5s15.666 -7 12.999 -11l-30 -117
c-10.667 -40.667 -20 -77.667 -28 -111c-13.333 -52 -22.333 -94.667 -27 -128s-13.667 -77.333 -27 -132c-2.66699 -5.33301 -9.33398 -9.33301 -20.001 -12s-18.667 -4 -24 -4c-13.333 0 -24 1.66699 -32 5s-12 7 -12 11c8 78.667 -3 134 -33 166s-75 48 -135 48h-86
l-98 -412c-2.66699 -10.667 -5 -23 -7 -37s-3 -24.333 -3 -31c0 -30.667 8.66699 -51.667 26 -63s39.333 -17 66 -17h132c98.667 0 189.334 37 272.001 111s136.667 154.333 162 241c0 2.66699 4.66699 4.66699 14 6s16 2 20 2c10.667 0 23 -3.33301 37 -10
s19.667 -12 17 -16c-16 -57.333 -34.667 -130.666 -56 -219.999s-38 -163.333 -50 -222c-73.333 2.66699 -175.333 5 -306 7s-236 3 -316 3s-185.333 -1.33301 -316 -4s-233.334 -4.66699 -308.001 -6c-1.33301 0 -3.33301 3.33301 -6 10s-4 14.667 -4 24s4 20.333 12 33
s14.667 19.667 20 21c78.667 9.33301 128.667 26 150 50s38 63.333 50 118l208 878l8 35c2.66699 11.333 4 22.333 4 33c0 29.333 -6.33301 51 -19 65s-55 25.667 -127 35c-4 1.33301 -6.66699 6.33301 -8 15s-2 15 -2 19c0 9.33301 3.33301 20.666 10 33.999
s13.334 20 20.001 20l270 -6c120 -2.66699 212.667 -4 278 -4c64 0 159 1 285 3s221.667 4.33301 287 7z" />
    <glyph glyph-name="F" unicode="F" horiz-adv-x="1350" 
d="M1380 1380c-2.66699 -16 -5.33496 -48.332 -8.00195 -96.999s-4.66699 -83.667 -6 -105c-2.66699 -32 -4.66699 -69.333 -6 -112s-2 -86.667 -2 -132c0 -4 -5.33301 -7.66699 -16 -11s-20 -5 -28 -5s-17.333 1.66699 -28 5s-16 7 -16 11
c-5.33301 78.667 -33.666 154.667 -84.999 228s-125 110 -221 110h-32c-29.333 0 -57.333 -5.66699 -84 -17s-47.334 -45 -62.001 -101l-96 -406h94c69.333 0 123.666 12.667 162.999 38s70.333 72 93 140c1.33301 4 7.33301 7.66699 18 11s19.334 5 26.001 5
c10.667 0 21.334 -1.66699 32.001 -5s15.334 -7 14.001 -11c-9.33301 -38.667 -19.333 -78 -30 -118l-30 -112c-9.33301 -38.667 -18.333 -82.334 -27 -131.001s-17.667 -91.667 -27 -129c-2.66699 -5.33301 -9.33398 -9.33301 -20.001 -12s-18.667 -4 -24 -4
c-13.333 0 -24 1.66699 -32 5s-12 7 -12 11c8 80 -3 136 -33 168s-75 48 -135 48h-92l-98 -406c-2.66699 -10.667 -5 -23 -7 -37s-3 -24.333 -3 -31c0 -28 7.66699 -49.667 23 -65s59 -27 131 -35c4 0 6.66699 -4.66699 8 -14s2 -16 2 -20
c0 -9.33301 -2.33301 -20.666 -7 -33.999s-9.66699 -20 -15 -20c-65.333 0 -133 1.66699 -203 5s-131.667 5 -185 5c-52 0 -112.667 -1.66699 -182 -5s-134 -5 -194 -5c-1.33301 0 -3.33301 3.33301 -6 10s-4 14.667 -4 24s2.66699 20.333 8 33s10.666 19.667 15.999 21
c81.333 9.33301 135 23.333 161 42s46.333 60.667 61 126l210 878c2.66699 12 5 23.667 7 35s3 22.333 3 33c0 29.333 -7 51 -21 65s-58.333 25.667 -133 35c-2.66699 1.33301 -5 6.33301 -7 15s-3 15 -3 19c0 9.33301 2.33301 20.666 7 33.999s10.334 20 17.001 20l284 -6
c128 -2.66699 226 -4 294 -4c62.667 0 153.334 1 272.001 3s210.667 4.33301 276 7z" />
    <glyph glyph-name="G" unicode="G" horiz-adv-x="1572" 
d="M1568 630c0 -8 -2.66797 -19.001 -8.00098 -33.001s-10.666 -21 -15.999 -21c-64 -6.66699 -105.333 -20.667 -124 -42s-36 -63.333 -52 -126l-30 -132c-9.33301 -36 -17.333 -74.333 -24 -115s-8.66699 -72.334 -6 -95.001
c-90.667 -33.333 -184.334 -59.666 -281.001 -78.999s-199.667 -29 -309 -29c-168 0 -315.333 52.333 -442 157s-190 243.667 -190 417c0 110.667 24.333 219.334 73 326.001s121.667 202.667 219 288c94.667 81.333 212 146 352 194s297.333 72 472 72
c46.667 0 95.334 -2 146.001 -6s92.667 -8.66699 126 -14c-12 -64 -25 -148 -39 -252l-31 -226c-1.33301 -5.33301 -7 -9.66602 -17 -12.999s-19.667 -5 -29 -5c-6.66699 0 -15.334 1.66699 -26.001 5s-16 7.66602 -16 12.999c-12 120 -36 215 -72 285s-94 105 -174 105
c-64 0 -131 -21.333 -201 -64s-135.667 -102.667 -197 -180c-57.333 -72 -105.666 -161.667 -144.999 -269s-59 -217 -59 -329c0 -144 30 -248 90 -312s122.667 -96 188 -96c72 0 124.667 12.333 158 37s56 65 68 121l52 218l4 20c1.33301 6.66699 2 12 2 16
c0 34.667 -9.66699 60.334 -29 77.001s-59.666 27.667 -120.999 33c-2.66699 1.33301 -5 6.33301 -7 15s-3 15 -3 19c0 9.33301 2.66699 20.666 8 33.999s10.666 20 15.999 20c65.333 0 122 -2 170 -6s102.667 -6 164 -6s115.333 2 162 6s102.667 6 168 6
c1.33301 0 3.33301 -3.33301 6 -10s4 -14.667 4 -24z" />
    <glyph glyph-name="H" unicode="H" horiz-adv-x="1798" 
d="M1874 1354c0 -8 -3.66895 -20.3359 -11.002 -37.0029s-14.333 -25 -21 -25c-77.333 -8 -126 -23.667 -146 -47s-37.333 -63.666 -52 -120.999l-210 -878c-2.66699 -10.667 -5 -23 -7 -37s-3 -24.333 -3 -31c0 -28 6.33301 -49.667 19 -65s55 -27 127 -35
c2.66699 0 5 -4.66699 7 -14s3 -16 3 -20c0 -9.33301 -3.66699 -20.666 -11 -33.999s-14.333 -20 -21 -20c-64 0 -128.667 1.66699 -194 5s-124 5 -176 5s-106 -1.66699 -162 -5s-114 -5 -174 -5c-1.33301 0 -3.33301 3.33301 -6 10s-4 14.667 -4 24s4 20.333 12 33
s14.667 19.667 20 21c66.667 8 110 26 130 54s35.333 66 46 114l92 396h-468l-94 -396c-2.66699 -10.667 -5.33398 -23 -8.00098 -37s-4 -24.333 -4 -31c0 -29.333 1.66699 -51.333 5 -66s42.333 -26 117 -34c4 0 6.66699 -4.66699 8 -14s2 -16 2 -20
c0 -9.33301 -3.66699 -20.666 -11 -33.999s-13.666 -20 -18.999 -20c-65.333 0 -126.333 1.66699 -183 5s-111.667 5 -165 5c-50.667 -0 -108.667 -1.66699 -174 -5s-126.666 -5 -183.999 -5c-2.66699 0 -5.33398 3.33301 -8.00098 10s-4 14.667 -4 24s4 20.333 12 33
s14.667 19.667 20 21c78.667 9.33301 128.667 26 150 50s38 63.333 50 118l208 878l8 35c2.66699 11.333 4 22.333 4 33c0 29.333 -6.33301 51 -19 65s-55 25.667 -127 35c-4 1.33301 -6.66699 6.33301 -8 15s-2 15 -2 19c0 9.33301 3.33301 20.666 10 33.999
s13.334 20 20.001 20c64 0 128.667 -1.66699 194 -5s124 -5 176 -5s106 1.66699 162 5s114 5 174 5c2.66699 0 5.33398 -2 8.00098 -6s4 -10.667 4 -20s-4 -22 -12 -38s-14.667 -24 -20 -24c-65.333 -6.66699 -108 -23.667 -128 -51s-36 -66.333 -48 -117l-92 -384h470
l92 384c2.66699 12 5 23.667 7 35s3 22.333 3 33c0 34.667 -6.33301 58.334 -19 71.001s-47 22.334 -103 29.001c-2.66699 1.33301 -5 6.33301 -7 15s-3 15 -3 19c0 9.33301 3.66699 20.666 11 33.999s14.333 20 21 20c65.333 0 126 -1.66699 182 -5s110.667 -5 164 -5
c52 0 110 1.66699 174 5s126 5 186 5c1.33301 0 3.33301 -2 6 -6s4 -10.667 4 -20z" />
    <glyph glyph-name="I" unicode="I" horiz-adv-x="1056" 
d="M1070 1354c0 -9.33301 -3.99902 -22 -11.999 -38s-14.667 -24 -20 -24c-77.333 -8 -126.333 -23.667 -147 -47s-38.334 -63.666 -53.001 -120.999l-208 -878c-2.66699 -10.667 -5 -23 -7 -37s-3 -24.333 -3 -31c0 -28 6 -49.667 18 -65s54.667 -27 128 -35
c2.66699 0 5 -4.66699 7 -14s3 -16 3 -20c0 -9.33301 -4 -20.666 -12 -33.999s-14.667 -20 -20 -20c-64 0 -128.667 1.66699 -194 5s-124 5 -176 5s-110 -1.66699 -174 -5s-126 -5 -186 -5c-2.66699 0 -5 3.33301 -7 10s-3 14.667 -3 24c0 8 3.66699 18.667 11 32
s14.333 20.666 21 21.999c78.667 9.33301 128.334 26 149.001 50s37 63.333 49 118l210 878c2.66699 12 5 23.667 7 35s3 22.333 3 33c0 29.333 -6.33301 51 -19 65s-55 25.667 -127 35c-2.66699 1.33301 -5 6.33301 -7 15s-3 15 -3 19c0 9.33301 3.66699 20.666 11 33.999
s13.666 20 18.999 20c64 0 128.667 -1.66699 194 -5s124 -5 176 -5s110.667 1.66699 176 5s126.666 5 183.999 5c2.66699 0 5.33398 -2 8.00098 -6s4 -10.667 4 -20z" />
    <glyph glyph-name="J" unicode="J" horiz-adv-x="1332" 
d="M1316 1270c0 -41.333 -17.6699 -80.0029 -53.0029 -116.003s-81 -58.667 -137 -68c-13.333 -25.333 -26.333 -68.666 -39 -129.999s-37 -160.666 -73 -297.999h168c4 0 7 -5 9 -15s3 -17 3 -21c0 -10.667 -2.66699 -23.667 -8 -39s-12 -23 -20 -23h-178
c-17.333 -68 -29.666 -119.333 -36.999 -154s-17.666 -78 -30.999 -130c-57.333 -240 -152 -437.667 -284 -593s-306.667 -233 -524 -233c-77.333 0 -158.333 26 -243 78s-127 118.667 -127 200c0 52 14.667 95.667 44 131s74.666 53 135.999 53
c46.667 0 83.667 -17.667 111 -53s49.666 -73.666 66.999 -114.999c13.333 -34.667 30 -71 50 -109s42 -57 66 -57c40 0 85 40.333 135 121s101 231 153 451c18.667 82.667 36.334 149.667 53.001 201l65 209h-212c-2.66699 0 -5.33398 4 -8.00098 12s-4 17.333 -4 28
c0 9.33301 3 21 9 35s12.333 21.667 19 23h226c28 81.333 62.667 155 104 221s82 123 122 171c-17.333 -14.667 -35.666 -24 -54.999 -28s-45 -6 -77 -6c-30.667 0 -61.667 11.667 -93 35s-59.666 47 -84.999 71c-29.333 28 -58 53 -86 75s-54 33 -78 33
c-38.667 0 -66.334 -10.667 -83.001 -32s-25 -42.666 -25 -63.999c0 -25.333 24 -56.333 72 -93s72 -73 72 -109c0 -53.333 -13 -96 -39 -128s-69 -48 -129 -48c-50.667 0 -92 16.667 -124 50s-48 74.666 -48 123.999c0 113.333 46.333 223 139 329s218.334 159 377.001 159
c52 0 95 -10 129 -30s61.667 -43.333 83 -70l59 -74c23.333 -29.333 47 -48 71 -56c17.333 52 46 102 86 150s82.667 72 128 72c46.667 0 82.334 -12.667 107.001 -38s37 -59.333 37 -102z" />
    <glyph glyph-name="K" unicode="K" horiz-adv-x="1658" 
d="M1702 1346c0 -8 -2.33496 -18.998 -7.00195 -32.998s-9.66699 -21 -15 -21c-52 -5.33301 -98.333 -17.666 -139 -36.999s-83.667 -47 -129 -83l-382 -322l314 -636c20 -40 48.667 -75.333 86 -106s92 -53.334 164 -68.001c4 0 6.66699 -4.66699 8 -14s2 -16 2 -20
c0 -12 -3.33301 -24.333 -10 -37s-13.334 -17.667 -20.001 -15c-65.333 12 -157.333 21 -276 27s-208.667 9 -270 9l-258 568c-9.33301 21.333 -22.666 42.333 -39.999 63s-38.666 31 -63.999 31l-98 -406c-2.66699 -10.667 -5 -23 -7 -37s-3 -24.333 -3 -31
c0 -28 6.33301 -49.667 19 -65s55 -27 127 -35c4 0 6.66699 -4.66699 8 -14s2 -16 2 -20c0 -9.33301 -3.66699 -20.666 -11 -33.999s-14.333 -20 -21 -20c-65.333 0 -130 1.66699 -194 5s-122.667 5 -176 5c-52 0 -110 -1.66699 -174 -5s-126 -5 -186 -5
c-1.33301 0 -3.33301 3.33301 -6 10s-4 14.667 -4 24s4 20.333 12 33s14.667 19.667 20 21c78.667 9.33301 128.667 26 150 50s38 63.333 50 118l208 878c2.66699 12 5 23.667 7 35s3 22.333 3 33c0 29.333 -6.33301 51 -19 65s-55 25.667 -127 35
c-2.66699 1.33301 -5 6.33301 -7 15s-3 15 -3 19c0 9.33301 3.66699 20.666 11 33.999s14.333 20 21 20c65.333 0 130 -1.66699 194 -5s122.667 -5 176 -5c52 0 106 1.66699 162 5s114 5 174 5c1.33301 0 3.33301 -2 6 -6s4 -10.667 4 -20s-3.66699 -22 -11 -38
s-13.666 -24 -18.999 -24c-65.333 -6.66699 -108 -23.667 -128 -51s-36 -66.333 -48 -117l-92 -382c29.333 0 53.333 4.66699 72 14s36.667 22 54 38l418 362c12 10.667 23.333 22.667 34 36s16 26.666 16 39.999c0 17.333 -8.33301 30.333 -25 39s-43.667 15.667 -81 21
c-2.66699 1.33301 -5.33398 6.33301 -8.00098 15s-4 15 -4 19c0 9.33301 2.33301 20.666 7 33.999s10.334 20 17.001 20c48 0 94 -1.66699 138 -5s92 -5 144 -5c50.667 0 91 1.66699 121 5s64.333 5 103 5c1.33301 0 3.33301 -3.33301 6 -10s4 -14.667 4 -24z" />
    <glyph glyph-name="L" unicode="L" horiz-adv-x="1382" 
d="M1280 478c-18.667 -54.667 -41.3281 -132.335 -67.9951 -233.002s-47.334 -185.667 -62.001 -255c-74.667 2.66699 -169 5 -283 7s-211 3 -291 3s-185.333 -1.33301 -316 -4s-232.667 -4.66699 -306 -6c-2.66699 0 -5.33398 3.33301 -8.00098 10s-4 14.667 -4 24
s4 20.333 12 33s14.667 19.667 20 21c78.667 9.33301 128.667 26 150 50s38 63.333 50 118l208 878c4 13.333 7 25.333 9 36s3 21.334 3 32.001c0 29.333 -6.33301 51 -19 65s-55 25.667 -127 35c-4 1.33301 -6.66699 6.33301 -8 15s-2 15 -2 19
c0 9.33301 3.66699 20.666 11 33.999s13.666 20 18.999 20c64 0 128.667 -1.66699 194 -5s124 -5 176 -5c50.667 0 109 1.66699 175 5s127.667 5 185 5c2.66699 0 5.33398 -2 8.00098 -6s4 -10.667 4 -20s-4 -22 -12 -38s-14.667 -24 -20 -24
c-77.333 -8 -126.333 -23.667 -147 -47s-38.334 -63.666 -53.001 -120.999l-202 -846c-2.66699 -10.667 -6.33398 -27.667 -11.001 -51s-7 -39.666 -7 -48.999c0 -30.667 8.66699 -51.667 26 -63s39.333 -17 66 -17h54c98.667 0 193.667 40.333 285 121s159 177 203 289
c0 1.33301 5 2.33301 15 3s18.333 1 25 1c12 0 23.667 -4.33301 35 -13s15.666 -15.667 12.999 -21z" />
    <glyph glyph-name="M" unicode="M" horiz-adv-x="2110" 
d="M2124 1346c0 -6.66699 -2.00098 -17.333 -6.00098 -32s-9.33301 -22 -16 -22c-92 -9.33301 -148.333 -25.333 -169 -48s-36.334 -62.667 -47.001 -120l-122 -878c-8 -52 -8.66699 -90.333 -2 -115s60.667 -42.334 162 -53.001c4 0 6.66699 -4.66699 8 -14s2 -16 2 -20
c0 -9.33301 -2.33301 -20.666 -7 -33.999s-9.66699 -20 -15 -20c-65.333 0 -130 1.66699 -194 5s-126.667 5 -188 5s-124.666 -1.66699 -189.999 -5s-130.666 -5 -195.999 -5c-1.33301 0 -3.33301 3.33301 -6 10s-4 14.667 -4 24s2.66699 20.333 8 33
s10.666 19.667 15.999 21c88 10.667 145 27.334 171 50.001s42.333 62 49 118l120 836l-646 -1108c-1.33301 -2.66699 -8 -6 -20 -10s-25.333 -6 -40 -6c-18.667 0 -32.667 2 -42 6s-15.333 7.33301 -18 10l-160 1068l-260 -796c-17.333 -53.333 -23 -92 -17 -116
s61 -41.333 165 -52c4 0 7 -4.66699 9 -14s3 -16 3 -20c0 -9.33301 -2.66699 -20.666 -8 -33.999s-10.666 -20 -15.999 -20c-52 0 -98 1.66699 -138 5s-83.333 5 -130 5c-48 0 -93.667 -1.66699 -137 -5s-87 -5 -131 -5c-2.66699 0 -5 3.33301 -7 10s-3 14.667 -3 24
s2.33301 20.333 7 33s9.66699 19.667 15 21c93.333 10.667 155.666 28 186.999 52s55.666 62.667 72.999 116l306 878c18.667 60 21.334 100.667 8.00098 122s-67.333 36.666 -162 45.999c-4 1.33301 -6.66699 6.33301 -8 15s-2 15 -2 19c0 9.33301 2.33301 20.666 7 33.999
s9.66699 20 15 20c29.333 0 77.333 -1.66699 144 -5s116.667 -5 150 -5c34.667 0 75 1.66699 121 5s90.333 5 133 5l156 -850l504 850c54.667 0 108.667 -1.66699 162 -5s97.333 -5 132 -5c38.667 0 82.334 1.66699 131.001 5s93 5 133 5c2.66699 0 5 -3.33301 7 -10
s3 -14.667 3 -24z" />
    <glyph glyph-name="N" unicode="N" horiz-adv-x="1694" 
d="M1752 1348c0 -8 -2.33203 -19 -6.99902 -33s-10.334 -21 -17.001 -21c-80 -9.33301 -130 -28.333 -150 -57s-34.667 -65.667 -44 -111l-224 -1148c0 -4 -4.33301 -8.33301 -13 -13s-23 -7 -43 -7s-34.667 1.33301 -44 4s-16 6.66699 -20 12l-692 966l-134 -694
c-13.333 -49.333 -13 -88 1 -116s57 -45.333 129 -52c2.66699 0 5 -4.66699 7 -14s3 -16 3 -20c0 -9.33301 -2.66699 -20.666 -8 -33.999s-10.666 -20 -15.999 -20c-38.667 0 -79.334 1.66699 -122.001 5s-82 5 -118 5c-38.667 0 -78.334 -1.66699 -119.001 -5
s-78.334 -5 -113.001 -5c-1.33301 0 -3.33301 3.33301 -6 10s-4 14.667 -4 24s2.66699 20.333 8 33s10.666 19.667 15.999 21c78.667 9.33301 131.334 27.333 158.001 54s45.334 64.667 56.001 114l178 814c2.66699 10.667 4.66699 20 6 28s2 19.333 2 34
c0 45.333 -13.333 82.333 -40 111s-70.667 47 -132 55c-2.66699 1.33301 -5 6.33301 -7 15s-3 15 -3 19c0 9.33301 2.66699 20.666 8 33.999s10.666 20 15.999 20c28 0 59.333 -1 94 -3s63.334 -3 86.001 -3c29.333 0 56 1 80 3s76.667 3 158 3l618 -872l112 622
c8 52 4 90.333 -12 115s-63.333 42.334 -142 53.001c-4 1.33301 -7 6.33301 -9 15s-3 15 -3 19c0 9.33301 2.33301 20.666 7 33.999s10.334 20 17.001 20c40 0 78.667 -2 116 -6s78 -6 122 -6c42.667 0 82 2 118 6s74.667 6 116 6c1.33301 0 3.33301 -3.33301 6 -10
s4 -14.667 4 -24z" />
    <glyph glyph-name="O" unicode="O" horiz-adv-x="1616" 
d="M1548 854c0 -234.667 -87.332 -442.669 -261.999 -624.002s-383.334 -272 -626.001 -272c-156 0 -290.667 46.333 -404 139s-170 232.334 -170 419.001c0 234.667 87 442.667 261 624s383 272 627 272c154.667 0 289 -46.667 403 -140s171 -232.666 171 -417.999z
M1164 1004c0 104 -16.332 182.001 -48.999 234.001s-80.334 78 -143.001 78c-76 0 -145 -29.667 -207 -89s-115 -134.333 -159 -225s-78 -193 -102 -307s-36 -223.667 -36 -329c0 -102.667 16.333 -180.334 49 -233.001s81 -79 145 -79c73.333 0 142 30.333 206 91
s116.667 135 158 223c48 102.667 83 208.667 105 318s33 215.333 33 318z" />
    <glyph glyph-name="P" unicode="P" horiz-adv-x="1458" 
d="M1440 1010c0 -136 -59.999 -246.332 -179.999 -330.999s-264 -127 -432 -127c-44 0 -77.667 1.66699 -101 5s-49.666 7.66602 -78.999 12.999l-78 -324c-2.66699 -10.667 -5 -23 -7 -37s-3 -24.333 -3 -31c0 -28 7.66699 -49.667 23 -65s59 -27 131 -35
c2.66699 0 5 -4.66699 7 -14s3 -16 3 -20c0 -9.33301 -2.33301 -20.666 -7 -33.999s-10.334 -20 -17.001 -20c-64 0 -131.333 1.66699 -202 5s-132 5 -184 5s-112.667 -1.66699 -182 -5s-134 -5 -194 -5c-1.33301 0 -3.33301 3.33301 -6 10s-4 14.667 -4 24
s2.66699 20.333 8 33s10.666 19.667 15.999 21c98.667 12 157.667 30 177 54s34.333 62 45 114l210 878c2.66699 12 5 23.667 7 35s3 22.333 3 33c0 29.333 -7 51 -21 65s-58.333 25.667 -133 35c-4 1.33301 -6.66699 6.33301 -8 15s-2 15 -2 19
c0 9.33301 2.33301 20.666 7 33.999s9.66699 20 15 20c65.333 0 124.333 -1.66699 177 -5s104.334 -5 155.001 -5c52 0 104.333 1.66699 157 5s111.667 5 177 5c165.333 0 293.666 -33 384.999 -99s137 -156.333 137 -271zM1038 1066
c0 70.667 -14.665 124.335 -43.998 161.002s-62 55 -98 55c-34.667 0 -58.334 -7.33301 -71.001 -22s-24.334 -43.334 -35.001 -86.001l-106 -448c-8 -26.667 -6.33301 -46.334 5 -59.001s34.333 -19 69 -19c100 0 171.667 38.667 215 116s65 178 65 302z" />
    <glyph glyph-name="Q" unicode="Q" horiz-adv-x="1532" 
d="M2424 -292c0 -110.667 -57.3311 -211.001 -171.998 -301.001s-258.667 -135 -432 -135c-101.333 0 -206.666 23.333 -315.999 70s-214 102.667 -314 168c-101.333 66.667 -196.666 137.334 -285.999 212.001s-166 142 -230 202l-124 120
c-62.667 -32 -113.667 -54.333 -153 -67s-89 -19 -149 -19c-66.667 0 -120.334 16 -161.001 48s-61 72.667 -61 122c0 66.667 34.667 129 104 187s156.666 87 261.999 87c76 0 141.667 -11.333 197 -34s107.666 -55.334 156.999 -98.001c110.667 69.333 202 160 274 272
s108 228 108 348c0 129.333 -31.333 229.666 -94 300.999s-148.667 107 -258 107c-97.333 0 -180.666 -35.333 -249.999 -106s-104 -157.334 -104 -260.001c0 -88 19.667 -156 59 -204s91.666 -72 156.999 -72c61.333 0 106.666 13 135.999 39s44 53.667 44 83
c0 21.333 -10.333 38.666 -31 51.999s-41 25.333 -61 36c-24 12 -45.667 26.333 -65 43s-29 41.667 -29 75c0 34.667 13.667 64.334 41 89.001s61.666 37 102.999 37c53.333 0 95 -21.667 125 -65s45 -101 45 -173c0 -100 -38.667 -188 -116 -264s-173.333 -114 -288 -114
c-116 0 -213 37.667 -291 113s-117 158.333 -117 249c0 164 72 297.667 216 401s314 155 510 155c202.667 0 359.334 -46.667 470.001 -140s166 -210.666 166 -351.999c0 -137.333 -54 -265.666 -162 -384.999s-276 -230.333 -504 -333
c74.667 -61.333 156 -131.666 244 -210.999s190 -164.333 306 -255c106.667 -82.667 214 -154 322 -214s206 -90 294 -90c64 0 108.667 8.33301 134 25s38 37 38 61c0 48 -11 81 -33 99s-33 49 -33 93s15 80.667 45 110s70.333 44 121 44c52 0 91 -16 117 -48
s39 -68 39 -108zM470.002 115.999c-32 30.667 -65.3291 54 -99.9961 70s-69.334 24 -104.001 24s-62.667 -9 -84 -27s-32 -38.333 -32 -61c0 -20 7.66699 -36.333 23 -49s43.666 -19 84.999 -19c45.333 0 85.666 6.33301 120.999 19s65.666 27 90.999 43z" />
    <glyph glyph-name="R" unicode="R" horiz-adv-x="1594" 
d="M1502 2c0 -12 -3.99609 -23.335 -11.9961 -34.002s-16 -15.334 -24 -14.001c-78.667 10.667 -168.334 19.334 -269.001 26.001s-183 10 -247 10l-182 552c-8 26.667 -20.333 44 -37 52s-41.667 12 -75 12l-88 -360c-2.66699 -10.667 -5 -23 -7 -37s-3 -24.333 -3 -31
c0 -30.667 8 -53.667 24 -69s54 -25.666 114 -30.999c4 0 6.66699 -4.66699 8 -14s2 -16 2 -20c0 -9.33301 -2.33301 -20.666 -7 -33.999s-9.66699 -20 -15 -20c-64 0 -128.667 1.66699 -194 5s-124 5 -176 5s-113.333 -1.66699 -184 -5s-134.667 -5 -192 -5
c-2.66699 0 -5.33398 3.33301 -8.00098 10s-4 14.667 -4 24s2.66699 20.333 8 33s10.666 19.667 15.999 21c100 12 159.333 30 178 54s34 62 46 114l208 878c4 13.333 7 25.333 9 36s3 21.334 3 32.001c0 29.333 -7 51 -21 65s-59 25.667 -135 35
c-2.66699 1.33301 -5 6.33301 -7 15s-3 15 -3 19c0 9.33301 2.66699 20.666 8 33.999s10.666 20 15.999 20c64 0 125.333 -1.66699 184 -5s112.667 -5 162 -5c52 0 107.667 1.66699 167 5s121 5 185 5c192 0 322.667 -31 392 -93s104 -139.667 104 -233s-41 -176 -123 -248
s-163.667 -115.333 -245 -130l194 -478c18.667 -49.333 46.667 -85.333 84 -108s84 -40 140 -52c4 0 6 -5 6 -15v-21zM1058 1070c0 72 -15.001 125.333 -45.001 160s-71 52 -123 52c-26.667 0 -46.667 -5 -60 -15s-23.333 -27 -30 -51l-122 -514h68
c86.667 0 160.334 30 221.001 90s91 152.667 91 278z" />
    <glyph glyph-name="S" unicode="S" horiz-adv-x="1254" 
d="M1170 1344c-12 -68 -21.999 -133.999 -29.999 -197.999s-15.333 -128 -22 -192c-1.33301 -4 -8 -7.66699 -20 -11s-21.333 -5 -28 -5c-9.33301 0 -18.666 1.33301 -27.999 4s-14 6.66699 -14 12c2.66699 98.667 -19.333 183.667 -66 255s-100 107 -160 107
c-50.667 0 -93 -16.333 -127 -49s-51 -80.334 -51 -143.001c0 -61.333 25.667 -117 77 -167l149 -141c56 -50.667 107.667 -109.667 155 -177s71 -151 71 -251c0 -112 -49.667 -211.667 -149 -299s-239.666 -131 -420.999 -131c-92 0 -169.333 14.667 -232 44
s-133.334 51.333 -212.001 66l37 210c14 78.667 24.333 148.667 31 210c0 4 6.66699 7.66699 20 11s23.333 5 30 5c9.33301 0 18 -1.33301 26 -4s12 -6.66699 12 -12c5.33301 -133.333 36.666 -239 93.999 -317s124.666 -117 201.999 -117c66.667 0 118.334 18 155.001 54
s55 89.333 55 160c0 60 -24.667 116 -74 168s-101.333 104 -156 156c-58.667 56 -112 116 -160 180s-72 140 -72 228c0 101.333 41.333 195.333 124 282s212 130 388 130c76 0 147.667 -10 215 -30s127.666 -32.667 180.999 -38z" />
    <glyph glyph-name="T" unicode="T" horiz-adv-x="1454" 
d="M1550 1398c-14.667 -73.333 -30.0039 -158.001 -46.0039 -254.001s-28 -176.667 -36 -242c-1.33301 -4 -7 -7.66699 -17 -11s-19.667 -5 -29 -5s-18.666 1.66699 -27.999 5s-14 7 -14 11c-5.33301 92 -28.333 176.667 -69 254s-95 116 -163 116h-14
c-29.333 0 -49.666 -6.66699 -60.999 -20s-19.666 -31.333 -24.999 -54l-228 -952c-2.66699 -10.667 -5 -23 -7 -37s-3 -24.333 -3 -31c0 -28 10.667 -49.667 32 -65s67.333 -27 138 -35c4 0 6.66699 -4.66699 8 -14s2 -16 2 -20c0 -9.33301 -2.33301 -20.666 -7 -33.999
s-10.334 -20 -17.001 -20c-65.333 0 -135.333 1.66699 -210 5s-138.667 5 -192 5c-52 -0 -112.667 -1.66699 -182 -5s-134 -5 -194 -5c-1.33301 0 -3.33301 3.33301 -6 10s-4 14.667 -4 24s2.66699 20.333 8 33s10.666 19.667 15.999 21
c85.333 9.33301 139.333 21.333 162 36s42.667 58.667 60 132l228 952c6.66699 30.667 5.66699 50.667 -3 60s-30.334 14 -65.001 14h-16c-70.667 0 -145 -38.667 -223 -116s-132.333 -155.333 -163 -234c-1.33301 -4 -6.66602 -8.33301 -15.999 -13s-18.666 -7 -27.999 -7
c-13.333 0 -24 2.33301 -32 7s-12 9 -12 13l60 245c20 84.667 36 161.667 48 231c46.667 -8 120.334 -14.667 221.001 -20s256.334 -8 467.001 -8c181.333 0 326.333 2.66699 435 8s183.667 12 225 20z" />
    <glyph glyph-name="U" unicode="U" horiz-adv-x="1572" 
d="M1718 1346c0 -6.66699 -2.33105 -17.3301 -6.99805 -31.9971s-10.334 -22 -17.001 -22c-100 -10.667 -162.667 -28 -188 -52s-44.666 -62.667 -57.999 -116l-142 -602c-38.667 -158.667 -103 -292.334 -193 -401.001s-221 -163 -393 -163
c-182 0 -316.333 41.667 -403 125s-130 194.666 -130 333.999c0 18 2 42 6 72s9 58.333 15 85l130 550c4 13.333 7 25.333 9 36s3 21.334 3 32.001c0 29.333 -7 51 -21 65s-59 25.667 -135 35c-2.66699 1.33301 -5 6.33301 -7 15s-3 15 -3 19
c0 9.33301 2.66699 20.666 8 33.999s10.666 20 15.999 20c64 0 131.333 -1.66699 202 -5s132 -5 184 -5s113 1.66699 183 5s134.333 5 193 5c2.66699 0 5 -3.33301 7 -10s3 -14.667 3 -24c0 -6.66699 -2.33301 -17.334 -7 -32.001s-10.334 -22 -17.001 -22
c-89.333 -9.33301 -145 -24.666 -167 -45.999s-40.333 -62 -55 -122l-154 -648c-28 -110.667 -30.667 -204.667 -8 -282s89.334 -116 200.001 -116c126.667 0 222.334 43.333 287.001 130s109.667 184 135 292l148 624l8 35c2.66699 11.333 4 22.333 4 33
c0 29.333 -7.33301 51 -22 65s-59.334 25.667 -134.001 35c-2.66699 1.33301 -5.33398 6.33301 -8.00098 15s-4 15 -4 19c0 9.33301 2.33301 20.666 7 33.999s10.334 20 17.001 20c45.333 0 85.666 -1.66699 120.999 -5s77.666 -5 126.999 -5c46.667 0 87.667 1.66699 123 5
s77 5 125 5c2.66699 0 5.33398 -3.33301 8.00098 -10s4 -14.667 4 -24z" />
    <glyph glyph-name="V" unicode="V" horiz-adv-x="1552" 
d="M1742 1346c0 -6.66699 -2.33691 -17.332 -7.00391 -31.999s-10.334 -22 -17.001 -22c-74.667 -5.33301 -131.667 -22.333 -171 -51s-86.333 -78.334 -141 -149.001l-834 -1118c-2.66699 -4 -9.66699 -7.66699 -21 -11s-24.333 -5 -39 -5c-13.333 0 -26.666 2 -39.999 6
s-20 7.33301 -20 10l-82 1132c-5.33301 66.667 -18.333 112.334 -39 137.001s-65.667 41 -135 49c-4 1.33301 -6.66699 6.33301 -8 15s-2 15 -2 19c0 9.33301 2.33301 20.666 7 33.999s9.66699 20 15 20c64 0 125 -1.66699 183 -5s114.333 -5 169 -5
c61.333 0 128 1.66699 200 5s140.667 5 206 5c2.66699 0 5.33398 -3.33301 8.00098 -10s4 -14.667 4 -24c0 -8 -2.66699 -19 -8 -33s-10.666 -21 -15.999 -21c-89.333 -4 -143.333 -19 -162 -45s-26.667 -68.333 -24 -127l34 -646l468 626
c18.667 25.333 34.334 48 47.001 68s19 38.667 19 56c0 21.333 -5.66699 37.333 -17 48s-38.333 17.334 -81 20.001c-4 1.33301 -6.66699 6.33301 -8 15s-2 15 -2 19c0 9.33301 2.33301 20.666 7 33.999s10.334 20 17.001 20c57.333 0 105 -1.66699 143 -5s84.333 -5 139 -5
c42.667 0 74.667 1.66699 96 5s54.666 5 99.999 5c2.66699 0 5.33398 -3.33301 8.00098 -10s4 -14.667 4 -24z" />
    <glyph glyph-name="W" unicode="W" horiz-adv-x="2262" 
d="M2444 1346c0 -6.66699 -2.33691 -17.3311 -7.00391 -31.998s-10.334 -22 -17.001 -22c-50.667 -4 -92.667 -20.667 -126 -50s-77.333 -79.333 -132 -150l-842 -1118c-1.33301 -4 -7.66602 -7.66699 -18.999 -11s-24.333 -5 -39 -5s-28.667 2.33301 -42 7
s-20 8.33398 -20 11.001l-98 498l-402 -500c-2.66699 -4 -9.66699 -7.66699 -21 -11s-24.333 -5 -39 -5c-13.333 0 -26.666 2.66699 -39.999 8s-20 9.33301 -20 12l-234 1128c-16 73.333 -31.667 121 -47 143s-52.333 36.333 -111 43c-4 1.33301 -6.66699 6.33301 -8 15
s-2 15 -2 19c0 9.33301 2.33301 20.666 7 33.999s9.66699 20 15 20c65.333 0 116 -1.66699 152 -5s81.333 -5 136 -5c50.667 0 99 1.66699 145 5s93 5 141 5c2.66699 0 5 -3.33301 7 -10s3 -14.667 3 -24c0 -8 -2.33301 -19 -7 -33s-9.66699 -21 -15 -21
c-34.667 -2.66699 -54.667 -14.667 -60 -36s0 -66.666 16 -135.999l172 -746l184 238l-102 502c-14.667 69.333 -30 115.333 -46 138s-40 36 -72 40c-4 1.33301 -6.66699 6.33301 -8 15s-2 15 -2 19c0 9.33301 2.33301 20.666 7 33.999s10.334 20 17.001 20
c34.667 0 79 -1.66699 133 -5s99.667 -5 137 -5c44 0 90.667 1.66699 140 5s96 5 140 5c1.33301 0 3.33301 -3.33301 6 -10s4 -14.667 4 -24c0 -8 -2.66699 -19 -8 -33s-10.666 -21 -15.999 -21c-38.667 -2.66699 -63 -14.667 -73 -36s-8.33301 -64 5 -128l40 -184l120 156
c36 46.667 59.333 88.334 70 125.001s-9.33301 59 -60 67c-4 1.33301 -6.66699 6.33301 -8 15s-2.66602 15 -3.99902 19c0 9.33301 2 20.666 6 33.999s9.33301 20 16 20c41.333 0 79.333 -1.66699 114 -5s67.334 -5 98.001 -5c29.333 0 57.666 1.66699 84.999 5
s64.333 5 111 5c1.33301 0 3.66602 -3.66699 6.99902 -11s5 -15 5 -23s-2 -19 -6 -33s-9.33301 -21 -16 -21c-52 -2.66699 -101 -22 -147 -58s-93 -83.333 -141 -142l-222 -280l98 -432l524 720c46.667 64 68.667 110.667 66 140s-32 46.666 -88 51.999
c-2.66699 1.33301 -5 6.33301 -7 15s-3 15 -3 19c0 9.33301 2.33301 20.666 7 33.999s10.334 20 17.001 20c57.333 0 97.666 -1.66699 121 -5c23.333 -3.33301 57 -5 101 -5c40 0 71 1.66699 93 5s55.667 5 101 5c2.66699 0 5 -3.33301 7 -10s3 -14.667 3 -24z" />
    <glyph glyph-name="X" unicode="X" horiz-adv-x="1628" 
d="M1668 1346c0 -8 -2.33789 -19.002 -7.00488 -33.002s-9.66699 -21 -15 -21c-58.667 -5.33301 -111.667 -22 -159 -50s-97 -67.333 -149 -118l-348 -344l252 -534c24 -53.333 44.333 -92.333 61 -117s66.334 -41.667 149.001 -51c4 0 7 -4.66699 9 -14s3 -16 3 -20
c0 -9.33301 -2.66699 -20.666 -8 -33.999s-10.666 -20 -15.999 -20c-46.667 0 -100.667 1.66699 -162 5s-114 5 -158 5c-46.667 0 -108.667 -1.66699 -186 -5s-149.333 -5 -216 -5c-2.66699 0 -5.33398 3.33301 -8.00098 10s-4 14.667 -4 24s2.66699 20.333 8 33
s10.666 19.667 15.999 21c54.667 6.66699 86.667 15.334 96 26.001s14 28 14 52c0 10.667 -2.33301 24.334 -7 41.001s-11 33 -19 49l-132 280l-264 -280c-16 -16 -29 -33 -39 -51s-15 -32.333 -15 -43c0 -22.667 3.33301 -39.334 10 -50.001s35.334 -18.667 86.001 -24
c2.66699 0 5 -4.66699 7 -14s3 -16 3 -20c0 -9.33301 -2.33301 -20.666 -7 -33.999s-10.334 -20 -17.001 -20c-61.333 0 -108.666 1.66699 -141.999 5s-70 5 -110 5c-36 0 -74 -1.66699 -114 -5s-87.333 -5 -142 -5c-2.66699 0 -5 3.33301 -7 10s-3 14.667 -3 24
s2.33301 20.333 7 33s9.66699 19.667 15 21c70.667 8 125 23.333 163 46s86.333 63.334 145 122.001l378 378l-238 500c-29.333 62.667 -59.666 104.667 -90.999 126s-76.333 35.333 -135 42c-4 1.33301 -6.66699 6.33301 -8 15s-2 15 -2 19
c0 9.33301 2.33301 20.666 7 33.999s9.66699 20 15 20c48 0 106.333 -1.66699 175 -5s127 -5 175 -5c54.667 0 119.667 1.66699 195 5s145 5 209 5c2.66699 0 5.33398 -3.33301 8.00098 -10s4 -14.667 4 -24c0 -8 -2.66699 -19 -8 -33s-10.666 -21 -15.999 -21
c-45.333 -4 -77.333 -13.333 -96 -28s-28 -34.667 -28 -60c0 -16 2 -29 6 -39s10 -23.667 18 -41l118 -248l234 248c18.667 20 32.667 37.333 42 52s14 28.667 14 42c0 20 -4.33301 35.333 -13 46s-43 20 -103 28c-4 1.33301 -6.66699 6.33301 -8 15s-2 15 -2 19
c0 9.33301 2.33301 20.666 7 33.999s10.334 20 17.001 20c60 0 106.667 -1.66699 140 -5s76 -5 128 -5c36 0 74.333 1.66699 115 5s89 5 145 5c1.33301 0 3 -3.33301 5 -10s3 -14.667 3 -24z" />
    <glyph glyph-name="Y" unicode="Y" horiz-adv-x="1598" 
d="M1726 1136c0 -5.33301 -2.66504 -11.6689 -7.99805 -19.002s-11.333 -13 -18 -17c-8 -4 -17.333 -7.66699 -28 -11s-17.334 -3 -20.001 1c-16 38.667 -43 68.334 -81 89.001s-83 31 -135 31c-101.333 0 -199 -75 -293 -225s-165.667 -328.333 -215 -535l-48 -204
c-2.66699 -10.667 -5 -23 -7 -37s-3 -24.333 -3 -31c0 -28 7.66699 -49.667 23 -65s59 -27 131 -35c4 0 6.66699 -4.66699 8 -14s2 -16 2 -20c0 -9.33301 -2.33301 -20.666 -7 -33.999s-9.66699 -20 -15 -20c-64 0 -131.333 1.66699 -202 5s-132 5 -184 5
s-113.333 -1.66699 -184 -5s-134.667 -5 -192 -5c-2.66699 0 -5.33398 3.33301 -8.00098 10s-4 14.667 -4 24s2.66699 20.333 8 33s10.666 19.667 15.999 21c86.667 9.33301 142.334 24.333 167.001 45s43.667 61.667 57 123l58 246c30.667 132 46 240.333 46 325
s-10 153 -30 205s-47.333 89.333 -82 112s-72 34 -112 34c-45.333 0 -83.333 -9 -114 -27s-64.667 -50.333 -102 -97c-4 -4 -10.333 -3 -19 3s-17 13 -25 21c-5.33301 6.66699 -9.66602 14 -12.999 22s-4.33301 14 -3 18c53.333 93.333 119.666 167.333 198.999 222
s161.666 82 246.999 82c98.667 0 187.667 -47 267 -141s119 -211.667 119 -353c0 -10.667 -0.333008 -23 -1 -37s-1.66699 -28.333 -3 -43c70.667 168 154.334 305.667 251.001 413s193 161 289 161c76 0 139 -31 189 -93s76.333 -123 79 -183z" />
    <glyph glyph-name="Z" unicode="Z" horiz-adv-x="1548" 
d="M1512 1352c0 -2.66699 -0.333984 -5.33594 -1.00098 -8.00293s-1.66699 -4.66699 -3 -6l-998 -1240h244c128 0 229 35.333 303 106s133.667 160.667 179 270c1.33301 4 7 7 17 9s18.333 3 25 3c12 0 23.333 -3.33301 34 -10s14.667 -12.667 12 -18l-65 -237
c-26 -96.667 -43.667 -176.334 -53 -239.001c-29.333 6.66699 -96.333 11.334 -201 14.001s-223.667 4 -357 4c-164 0 -297 -1 -399 -3s-171.667 -7 -209 -15c-9.33301 -1.33301 -16.666 1.66699 -21.999 9s-8 16.333 -8 27c0 2.66699 0.666992 5.33398 2 8.00098
s2 4.66699 2 6l1000 1240h-256c-104 0 -190 -30.667 -258 -92s-125.333 -144.666 -172 -249.999c-2.66699 -5.33301 -8.33398 -9 -17.001 -11s-15.667 -3 -21 -3c-13.333 0 -25.333 3.33301 -36 10s-15.334 12.667 -14.001 18l57 223
c24.667 96.667 40.334 170.334 47.001 221.001c34.667 -6.66699 98 -11.334 190 -14.001s215.333 -4 370 -4c158.667 0 286.334 1 383.001 3s161.667 7 195 15c8 2.66699 15 -0.666016 21 -9.99902s9 -18 9 -26z" />
    <glyph glyph-name="bracketleft.standard" unicode="[" horiz-adv-x="934" 
d="M1154 1486c1.33301 -6.66699 1.6709 -15.333 1.00391 -26s-3 -17.334 -7 -20.001c-41.333 -44 -86 -77 -134 -99s-103.333 -33 -166 -33c-12 0 -26.667 0.333008 -44 1s-36 2.33398 -56 5.00098c-29.333 -108 -55.333 -209.667 -78 -305l-84 -347
c-40 -164 -68 -283.333 -84 -358l-66 -304c10.667 1.33301 21.667 2.33301 33 3s21 1 29 1c61.333 0 116.666 -10.333 165.999 -31s86 -51.667 110 -93c2.66699 -2.66699 2.33398 -9 -0.999023 -19s-7.66602 -18.333 -12.999 -25c-6.66699 -8 -14.334 -15.667 -23.001 -23
s-14.334 -10.333 -17.001 -9c-36 12 -83.333 21 -142 27s-110.667 9 -156 9c-64 0 -133.667 -6.33301 -209 -19s-124.333 -19 -147 -19c-4 0 -7.33301 2.33301 -10 7s-4 9.66699 -4 15c16 74.667 48 200.334 96 377.001s83.333 312.334 106 407.001
c4 16 -11.667 27.333 -47 34s-69 12.667 -101 18c-4 1.33301 -6.33301 7.33301 -7 18s-1 18 -1 22s3.33301 11.333 10 22s12 16.667 16 18c42.667 5.33301 81.334 11 116.001 17s54 17.667 58 35c20 88 46.333 210.333 79 367l73 343
c1.33301 5.33301 4.66602 10.333 9.99902 15s10 7 14 7c24 0 68.333 -6.66699 133 -20s149 -20 253 -20c40 0 91 4 153 12s100.333 16 115 24c1.33301 1.33301 3.66602 0.666016 6.99902 -2.00098s5.66602 -5.33398 6.99902 -8.00098s3.66602 -6.66699 6.99902 -12
s5 -9.33301 5 -12z" />
    <glyph glyph-name="backslash" unicode="\" horiz-adv-x="1208" 
d="M1122 16c4 -6.66699 0.667969 -14.999 -9.99902 -24.999s-22.667 -18.333 -36 -25c-12 -6.66699 -25 -12.334 -39 -17.001s-23 -3.66699 -27 3l-862 1444c-4 6.66699 0 14.667 12 24l34 26c13.333 8 26.666 14 39.999 18s22 2.66699 26 -4z" />
    <glyph glyph-name="bracketright.standard" unicode="]" horiz-adv-x="934" 
d="M888 1498c-17.333 -73.333 -49.333 -199.005 -96 -377.005l-106 -407c-4 -16 11.667 -27.667 47 -35s69 -13 101 -17c4 0 6.66699 -5.66699 8 -17s1.33301 -19 0 -23s-5 -11.667 -11 -23s-11 -17 -15 -17c-33.333 -4 -69.666 -10.333 -108.999 -19s-61 -19.667 -65 -33
c-20 -85.333 -46 -206.666 -78 -363.999s-56.667 -272.666 -74 -345.999c-2.66699 -5.33301 -6.33398 -10.333 -11.001 -15s-9 -7 -13 -7c-24 0 -68.333 6.66699 -133 20s-149 20 -253 20c-45.333 0 -96.666 -4 -153.999 -12s-95.333 -16 -114 -24
c-4 -1.33301 -8.66699 2.33398 -14 11.001s-9.33301 16.334 -12 23.001s-3 15 -1 25s4.33301 17 7 21c37.333 42.667 82.666 75.334 135.999 98.001s108 34 164 34c20 0 38.667 -0.666992 56 -2s32 -2.66602 44 -3.99902l77 301c23.333 91.333 51.666 208.333 84.999 351
l76 324c25.333 109.333 50 222 74 338c-8 0 -17.667 -0.666992 -29 -2s-22.333 -2 -33 -2c-57.333 0 -111.666 10.667 -162.999 32s-89 52 -113 92c-4 4 -3.66699 10.333 1 19l13 25c4 6.66699 11 13.667 21 21s16.333 11 19 11c32 -10.667 77.333 -19.334 136 -26.001
s112.667 -10 162 -10c64 0 133.667 6.33301 209 19s124.333 19 147 19c4 0 7.66699 -2.33301 11 -7s4.33301 -9.66699 3 -15z" />
    <glyph glyph-name="asciicircum" unicode="^" horiz-adv-x="900" 
d="M922 1026c-1.33301 -6.66699 -3.66895 -13.668 -7.00195 -21.001s-9 -13.666 -17 -18.999c-6.66699 -4 -13.667 -7.33301 -21 -10s-13.666 -4 -18.999 -4c-4 0 -8.33301 1 -13 3s-9 4.33301 -13 7l-248 154l-384 -154c-4 -1.33301 -9 -3.33301 -15 -6s-11 -4 -15 -4
s-8.66699 1 -14 3s-10.666 5.66699 -15.999 11c-8 8 -12.333 15 -13 21s-1 12.333 -1 19c0 4 1.33301 7.66699 4 11s5.33398 6.33301 8.00098 9l454 332c4 5.33301 11 10 21 14s18.333 6 25 6c9.33301 0 18 -2 26 -6s13.333 -8.66699 16 -14l238 -332
c1.33301 -2.66699 2.66602 -5.66699 3.99902 -9s1.33301 -7 0 -11z" />
    <glyph glyph-name="underscore" unicode="_" horiz-adv-x="1000" 
d="M884 -70c0 -14.667 -2.00195 -30 -6.00195 -46s-10 -24 -18 -24h-998c-8 0 -14.333 8 -19 24s-7 31.333 -7 46c0 16 2.33301 31.667 7 47s10.334 23 17.001 23h1000c6.66699 -0 12.334 -7.66699 17.001 -23s7 -31 7 -47z" />
    <glyph glyph-name="grave" unicode="`" 
d="M666 1080c0 -4 -2 -10.3281 -6 -18.9951s-8 -14.334 -12 -17.001c-5.33301 -4 -13.333 -8 -24 -12s-16.667 -6 -18 -6c-2.66699 0 -5 0.666992 -7 2l-3 2l-352 230c-11.333 7.33301 -19.833 17.166 -25.5 29.499s-8.5 25.166 -8.5 38.499c0 17.333 5 36.666 15 57.999
s21 38 33 50c10 10 26.5 20.5 49.5 31.5s43.167 16.5 60.5 16.5c20 0 34.833 -3 44.5 -9s17.5 -13.667 23.5 -23l226 -354c1.33301 -2 2.33301 -4.83301 3 -8.5s1 -6.83398 1 -9.50098z" />
    <glyph glyph-name="a" unicode="a" horiz-adv-x="1162" 
d="M1146 856l-256.002 -584.002c-12 -28 -20.667 -49.667 -26 -65s-8 -26.333 -8 -33c0 -9.33301 1.33301 -15.666 4 -18.999s6.66699 -5 12 -5c28 0 57 15.667 87 47s49.667 47 59 47c10.667 0 21.334 -7 32.001 -21s16 -23.667 16 -29c0 -25.333 -44 -71 -132 -137
s-167.333 -99 -238 -99c-54.667 0 -96 10.333 -124 31s-42 50.334 -42 89.001c0 32 3.33301 58.333 10 79s16.667 45 30 73c-60 -85.333 -120.333 -152 -181 -200s-127.667 -72 -201 -72c-62.667 0 -112.667 22 -150 66s-56 101.333 -56 172c0 141.333 82.333 294 247 458
s311.667 246 441 246c38.667 0 72 -10 100 -30s42 -47.333 42 -82l36 88c2.66699 8 19.334 14 50.001 18s62 6 94 6c40 0 77 -5 111 -15s48.333 -19.667 43 -29zM757.998 729.998c0 16 -2.66699 27.667 -8 35s-13.333 11 -24 11c-24 0 -60 -21 -108 -63
s-98.667 -95.667 -152 -161c-48 -58.667 -91 -122 -129 -190s-57 -123.333 -57 -166c0 -21.333 4.66699 -36.333 14 -45s24 -13 44 -13c52 0 135 80.333 249 241s171 277.667 171 351z" />
    <glyph glyph-name="b" unicode="b" horiz-adv-x="1102" 
d="M1050 700c0 -165.333 -75.668 -330.334 -227.001 -495.001s-324.333 -247 -519 -247c-88 0 -153.333 23.333 -196 70s-64 106 -64 178c0 38.667 4.66699 75.667 14 111s20 69.666 32 102.999l264 692c6.66699 18.667 12 35.667 16 51s6 28.333 6 39
c0 14.667 -7.66699 25 -23 31s-43.666 11.667 -84.999 17c-4 1.33301 -8 7 -12 17s-6 18.333 -6 25s1.66699 15 5 25s7 15 11 15c65.333 10.667 145.333 26.334 240 47.001s166 40.334 214 59.001c4 2.66699 12 5.66699 24 9s21.333 5 28 5
c5.33301 0 9.66602 -2.33301 12.999 -7s5 -9.66699 5 -15c0 -6.66699 -0.666992 -14.667 -2 -24s-4 -18.666 -8 -27.999l-238 -614c53.333 53.333 107.333 91.666 162 114.999s108 35 160 35c66.667 0 114.334 -18 143.001 -54s43 -89.333 43 -160zM735.999 691.999
c0 20 -4.66895 35.333 -14.002 46s-24 16 -44 16c-65.333 0 -140.666 -82.333 -225.999 -247s-128 -290.334 -128 -377.001c0 -21.333 3.33301 -36.666 10 -45.999s18.667 -14 36 -14c46.667 0 119.334 83.333 218.001 250s148 290.667 148 372z" />
    <glyph glyph-name="c" unicode="c" horiz-adv-x="946" 
d="M914 708c0 -36 -14.334 -67.334 -43.001 -94.001s-65.667 -40 -111 -40c-32 0 -55.333 11.333 -70 34s-26 48 -34 76c-9.33301 28 -18.333 53.667 -27 77s-25 35 -49 35c-17.333 0 -37.333 -11.667 -60 -35s-46.667 -59 -72 -107c-24 -46.667 -44 -106 -60 -178
s-24 -148 -24 -228c0 -56 12 -95.333 36 -118s50.667 -34 80 -34c32 0 75 18.667 129 56s93 72.666 117 105.999c2.66699 2.66699 7.66699 1.33398 15 -3.99902s13 -10.666 17 -15.999c4 -4 9 -10.333 15 -19s7.66699 -15 5 -19
c-17.333 -34.667 -67.666 -83.667 -150.999 -147s-177 -95 -281 -95c-80 0 -152.333 29 -217 87s-97 141.667 -97 251c0 62.667 15.333 127.667 46 195s76 135 136 203c53.333 60 119 111.667 197 155s158.333 65 241 65c76 0 138.667 -23.333 188 -70s74 -92 74 -136z" />
    <glyph glyph-name="d" unicode="d" horiz-adv-x="1184" 
d="M1332 1430c0 -6.66699 -1.00098 -14.6699 -3.00098 -24.0029s-5 -18.666 -9 -27.999l-380 -1064c-6.66699 -17.333 -14.667 -39.666 -24 -66.999s-14 -46.333 -14 -57c0 -9.33301 1.33301 -17 4 -23s8.66699 -9 18 -9c24 0 49 20 75 60s43 60 51 60
c9.33301 0 19.333 -7 30 -21s16 -23.667 16 -29c0 -24 -33.667 -75 -101 -153s-138.333 -117 -213 -117c-49.333 0 -86.333 12 -111 36s-37 58.667 -37 104c0 25.333 3.66699 51.666 11 78.999s18.333 58.333 33 93c-54.667 -92 -112.667 -167 -174 -225
s-135.333 -87 -222 -87c-76 0 -136.667 25.333 -182 76s-68 118.667 -68 204c0 166.667 69 321 207 463s281.667 213 431 213c40 0 71.333 -6.33301 94 -19s38 -25 46 -37l90 254c6.66699 18.667 12 35.667 16 51s6 28.333 6 39c0 14.667 -7.66699 25 -23 31
s-43.666 11.667 -84.999 17c-4 1.33301 -7.66699 7 -11 17s-5 18.333 -5 25s1.33301 15 4 25s6.66699 15 12 15c66.667 10.667 149 27.334 247 50.001s165 41.334 201 56.001c4 2.66699 11.667 5.66699 23 9s20.333 5 27 5c5.33301 0 10 -2.33301 14 -7s6 -9.66699 6 -15z
M769.999 747.997c0 20 -4.00098 34.333 -12.001 43s-20.667 13 -38 13c-84 0 -165.667 -63.667 -245 -191s-119 -259 -119 -395c0 -32 5.66699 -55.667 17 -71s26.333 -23 45 -23c29.333 0 64.333 24.333 105 73s80.334 111 119.001 187c40 80 71.333 150.667 94 212
s34 112 34 152z" />
    <glyph glyph-name="e" unicode="e" horiz-adv-x="924" 
d="M870 696c0 -76 -44.998 -150.331 -134.998 -222.998s-215.667 -109 -377 -109c-4 -17.333 -6.66699 -34.333 -8 -51s-2 -32.334 -2 -47.001c0 -46.667 9.33301 -85.334 28 -116.001s50 -46 94 -46c52 0 100.667 16.667 146 50s81.333 68.666 108 105.999h5
c3.33301 0 6.33301 -0.666992 9 -2s5.66699 -3.66602 9 -6.99902l9 -9c5.33301 -5.33301 10.666 -12.333 15.999 -21s6.66602 -15 3.99902 -19c-32 -65.333 -89.333 -122.333 -172 -171s-164 -73 -244 -73c-94.667 0 -173 27.333 -235 82s-93 122.667 -93 204
c0 170.667 68.333 325 205 463s267.667 207 393 207c88 0 150 -22.333 186 -67s54 -95 54 -151zM624.002 714.002c0 22.667 -3 39.667 -9 51s-19.667 17 -41 17c-41.333 0 -82 -33 -122 -99s-66 -140.333 -78 -223c72 0 131.667 28.333 179 85s71 113 71 169z" />
    <glyph glyph-name="f" unicode="f" horiz-adv-x="752" 
d="M1254 1254c0 -46.667 -14.667 -86.333 -44 -119s-68 -49 -116 -49c-38.667 0 -67 11.667 -85 35s-33 49.666 -45 78.999s-25 56 -39 80s-36.333 36 -67 36c-64 0 -112 -32.333 -144 -97s-69.333 -191 -112 -379h216c8 0 13 -5.33301 15 -16s3 -21.334 3 -32.001
c0 -13.333 -3.66699 -28.666 -11 -45.999s-15 -26 -23 -26l-226 8l-164 -690c-48 -198.667 -125 -348.334 -231 -449.001s-232.333 -151 -379 -151c-84 0 -158 23 -222 69s-96.667 98.333 -98 157c0 42.667 15.333 79.334 46 110.001s72 46 124 46c44 0 79 -13.667 105 -41
s47 -55.666 63 -84.999s32.667 -57.333 50 -84s38 -40 62 -40c30.667 1.33301 55.334 23 74.001 65s34.667 100.333 48 175l192 894c1.33301 5.33301 0.666016 10.333 -2.00098 15s-8.66699 7 -18 7h-160c-5.33301 0 -9.66602 5.66699 -12.999 17s-5 19 -5 23
c0 6.66699 2.66699 15 8 25s10.666 15 15.999 15c82.667 10.667 138.667 21 168 31s45.333 21 48 33c44 157.333 128.333 296 253 416s271.667 180 441 180c69.333 1.33301 132 -20.667 188 -66s84 -94 84 -146z" />
    <glyph glyph-name="g" unicode="g" horiz-adv-x="1030" 
d="M1110 748c-2.66699 -18.667 -8.00098 -40.333 -16.001 -65s-17.333 -37 -28 -37l-130 6c0 -6.66699 0.666992 -15.667 2 -27s2 -21.666 2 -30.999c0 -116 -45.333 -208 -136 -276s-216 -102 -376 -102c-40 0 -68.333 -5.66699 -85 -17s-25 -21.666 -25 -30.999
c0 -30.667 35 -54.334 105 -71.001s131 -32.334 183 -47.001c68 -17.333 133 -44.666 195 -81.999s93 -90.666 93 -159.999c0 -98.667 -56.333 -184.334 -169 -257.001s-229.667 -109 -351 -109c-148 0 -266.333 26 -355 78s-133 112.667 -133 182c0 57.333 21 104 63 140
s113 60.667 213 74c-45.333 17.333 -80.666 37.666 -105.999 60.999s-38 50.333 -38 81c0 44 21 85 63 123s106.333 63.667 193 77c-56 28 -97.333 61.667 -124 101s-40 86.333 -40 141c0 124 49.667 224 149 300s207 114 323 114c81.333 0 146 -12.333 194 -37
s86 -57 114 -97l206 8c6.66699 0 11 -4.33301 13 -13s2.33301 -17.667 1 -27zM665.999 730.001c0 25.333 -6 46.332 -18 62.999s-28 25 -48 25c-40 0 -84.333 -45.667 -133 -137s-73 -185.666 -73 -282.999c0 -25.333 5.66699 -46 17 -62s28.333 -24 51 -24
c52 0 99 47.333 141 142s63 186.667 63 276zM641.999 -300c0 52 -35.333 88.3311 -106 108.998s-160 41.667 -268 63c-53.333 -9.33301 -94 -26.666 -122 -51.999s-42 -62 -42 -110c0 -49.333 21 -90.333 63 -123s112.333 -49 211 -49c84 0 149 17.333 195 52
s69 71.334 69 110.001z" />
    <glyph glyph-name="h" unicode="h" horiz-adv-x="1184" 
d="M1102 654c0 -77.333 -14.666 -158.669 -43.999 -244.002s-68.666 -160 -117.999 -224c-53.333 -68 -112.333 -123 -177 -165s-136.334 -63 -215.001 -63c-24 0 -48.667 9 -74 27s-38 43 -38 75c0 28 9.66699 51.667 29 71s43.666 29 72.999 29c32 0 53 -9.33301 63 -28
s22.333 -28 37 -28c32 0 65.333 63.667 100 191s52 235.666 52 324.999c0 26.667 -6.33301 47.334 -19 62.001s-30.334 22 -53.001 22c-56 0 -122.667 -49.333 -200 -148s-154 -278.667 -230 -540c-4 -10.667 -28 -19 -72 -25s-72.667 -9 -86 -9c-16 0 -46 3.33301 -90 10
s-65.333 14.667 -64 24l346 1096c6.66699 18.667 11.667 35.667 15 51s5 28.333 5 39c0 14.667 -7.33301 25 -22 31s-42.667 11.667 -84 17c-4 1.33301 -8 7 -12 17s-6 18.333 -6 25s1.66699 15 5 25s7 15 11 15c57.333 9.33301 135.333 25 234 47
s169.334 41.667 212.001 59c4 2.66699 11.667 5.66699 23 9s20.333 5 27 5s11.667 -2.33301 15 -7s5 -9.66699 5 -15c0 -6.66699 -1 -14.667 -3 -24s-5 -18.666 -9 -27.999l-230 -722c50.667 78.667 108.667 141.334 174 188.001s136 70 212 70
c62.667 0 113 -21.333 151 -64s57 -108 57 -196z" />
    <glyph glyph-name="i" unicode="i" horiz-adv-x="752" 
d="M804 1258c0 -49.333 -17.667 -92 -53 -128s-78.333 -54 -129 -54c-49.333 0 -92 18 -128 54s-54 78.667 -54 128s18 92 54 128s78.667 54 128 54c50.667 0 93.667 -18 129 -54s53 -78.667 53 -128zM650 226c0 -21.333 -50.333 -71.335 -151 -150.002
s-191.667 -118 -273 -118c-56 0 -96.667 14.333 -122 43s-38 61 -38 97c0 22.667 3.33301 43.667 10 63s14 39 22 59l190 394c10.667 22.667 18.334 41 23.001 55s7 26.333 7 37s-2 18.334 -6 23.001s-9.33301 7 -16 7c-17.333 0 -51 -26.333 -101 -79s-79.667 -79 -89 -79
c-10.667 0 -21.334 7.33301 -32.001 22s-16 24 -16 28c0 13.333 12.667 35 38 65s57.333 61.667 96 95c34.667 30.667 76.334 59.334 125.001 86.001s91.667 40 129 40c60 0 105 -17 135 -51s45 -75 45 -123c0 -20 -2 -41.333 -6 -64s-12.667 -46 -26 -70l-152 -334
c-12 -28 -20.667 -50.667 -26 -68s-8 -29.333 -8 -36c0 -8 2 -13 6 -15s8 -3 12 -3c29.333 0 63.666 21 102.999 63s64.333 63 75 63c9.33301 0 19.333 -7 30 -21s16 -23.667 16 -29z" />
    <glyph glyph-name="j" unicode="j" horiz-adv-x="696" 
d="M736 1260c0 -49.333 -18 -92 -54 -128s-79.333 -54 -130 -54c-49.333 0 -92 18 -128 54s-54 78.667 -54 128s18 92 54 128s78.667 54 128 54c50.667 0 94 -18 130 -54s54 -78.667 54 -128zM618 752c0 -18.667 -2.66602 -41.666 -7.99902 -68.999s-12 -53 -20 -77
l-174 -564c-66.667 -218.667 -153 -373.334 -259 -464.001s-235 -136 -387 -136c-82.667 0 -156.667 23 -222 69s-98 98.333 -98 157c0 42.667 15 79.334 45 110.001s71 46 123 46c42.667 0 77 -13 103 -39s47.667 -55 65 -87c16 -29.333 32.667 -57.333 50 -84
s38 -40 62 -40c13.333 0 28 12 44 36s37.333 78 64 162l264 842c6.66699 21.333 11.667 38.666 15 51.999s5 26 5 38s-2.33301 20.667 -7 26s-11 8 -19 8c-18.667 0 -50.334 -26.333 -95.001 -79s-72.334 -79 -83.001 -79c-9.33301 0 -19.666 7 -30.999 21
s-17 23.667 -17 29c0 10.667 12.333 30.667 37 60s57.667 62 99 98c36 30.667 79.667 59.334 131 86.001s97 40 137 40c61.333 0 106 -14.333 134 -43s42 -68.334 42 -119.001z" />
    <glyph glyph-name="k" unicode="k" horiz-adv-x="1172" 
d="M1104 196c0 -61.333 -23.668 -116.335 -71.001 -165.002s-115 -73 -203 -73c-86.667 0 -169.667 31 -249 93s-141.666 151.667 -186.999 269l-104 -304c-4 -10.667 -29.333 -19 -76 -25s-76.667 -9 -90 -9c-16 0 -45 2.66699 -87 8s-61.667 14 -59 26l362 1096
c6.66699 18.667 11.667 35.667 15 51s5 28.333 5 39c0 14.667 -7.33301 25 -22 31s-42.667 11.667 -84 17c-4 1.33301 -8 7 -12 17s-6 18.333 -6 25s1.66699 15 5 25s7 15 11 15c57.333 9.33301 135.333 25 234 47s169.334 41.667 212.001 59c4 2.66699 11.667 5.66699 23 9
s20.333 5 27 5s11.667 -2.33301 15 -7s5 -9.66699 5 -15c0 -6.66699 -1 -14.667 -3 -24s-5 -18.666 -9 -27.999l-224 -658c50.667 58.667 107.667 105.667 171 141s129.666 53 198.999 53c66.667 0 115.667 -20.667 147 -62s47 -86 47 -134c0 -69.333 -36 -134 -108 -194
s-168.667 -101.333 -290 -124c0 -56 29 -108.667 87 -158s107.667 -74 149 -74c14.667 0 26.334 4.33301 35.001 13s13 20.334 13 35.001c0 16 -6.33301 29.333 -19 40s-19 18 -19 22c0 9.33301 7 21.333 21 36s24.333 22 31 22c21.333 0 44.666 -13.333 69.999 -40
s38 -60 38 -100zM783.999 685.998c0 16 -1.99902 29.001 -5.99902 39.001s-16.667 15 -38 15c-58.667 0 -122.334 -37.333 -191.001 -112s-103 -131.334 -103 -170.001c0 -13.333 3.33301 -24 10 -32s20.667 -12 42 -12c64 0 127.667 29.333 191 88s95 120 95 184z" />
    <glyph glyph-name="l" unicode="l" horiz-adv-x="688" 
d="M778 1430c0 -6.66699 -0.999023 -15.0029 -2.99902 -25.0029s-4.33301 -19 -7 -27l-362 -1106l-24 -76c-5.33301 -17.333 -8 -28.666 -8 -33.999c0 -4 1.33301 -7 4 -9s6 -3 10 -3c29.333 0 61.333 18.333 96 55s57.334 55 68.001 55c9.33301 0 19.333 -7 30 -21
s16 -23.667 16 -29c0 -21.333 -47.333 -68.666 -142 -141.999s-182.667 -110 -264 -110c-46.667 0 -82.334 12.667 -107.001 38s-37 61.333 -37 108c0 18.667 1.66699 36.334 5 53.001s8.33301 37.667 15 63l282 892c6.66699 18.667 12 35.667 16 51s6 28.333 6 39
c0 14.667 -7.66699 25 -23 31s-43.666 11.667 -84.999 17c-4 1.33301 -7.66699 7 -11 17s-5 18.333 -5 25s1.33301 15 4 25s6 15 10 15c57.333 9.33301 135.666 25.333 234.999 48s169.666 42 210.999 58c4 2.66699 12 5.66699 24 9s20.667 5 26 5
c6.66699 0 11.667 -2.33301 15 -7s5 -9.66699 5 -15z" />
    <glyph glyph-name="m" unicode="m" horiz-adv-x="1776" 
d="M1714 226c0 -21.333 -50.668 -71.3398 -152.001 -150.007s-192.666 -118 -273.999 -118c-56 0 -96.333 14 -121 42s-37 60.667 -37 98c0 21.333 2.33301 40.333 7 57s13 38.334 25 65.001l182 376c8 18.667 15 36 21 52s9 29.333 9 40s-2.33301 18.334 -7 23.001
s-10.334 7 -17.001 7c-42.667 0 -97.334 -43 -164.001 -129s-150.667 -217.667 -252 -395l-80 -170c-6.66699 -12 -28.334 -22 -65.001 -30s-70.334 -12 -101.001 -12c-41.333 0 -78.666 4.33301 -111.999 13s-48 18.334 -44 29.001l274 572
c10.667 22.667 18.334 41 23.001 55s7 26.333 7 37s-2 18.334 -6 23.001s-9.33301 7 -16 7c-44 0 -102.667 -44.667 -176 -134s-158.666 -219.333 -255.999 -390l-78 -170c-6.66699 -12 -28.334 -22 -65.001 -30s-71 -12 -103 -12c-38.667 0 -74.667 4.66699 -108 14
s-48 18.666 -44 27.999l272 590c8 18.667 15 36 21 52s9 29.333 9 40s-2.33301 18.334 -7 23.001s-10.334 7 -17.001 7c-16 0 -49.333 -26.333 -100 -79s-80 -79 -88 -79c-10.667 0 -21.667 7.33301 -33 22s-17 24 -17 28c0 13.333 12.667 35 38 65s57.333 61.667 96 95
c34.667 30.667 76.334 59.334 125.001 86.001s91.667 40 129 40c58.667 0 102 -16 130 -48s42 -71.333 42 -118c0 -18.667 -2 -38.667 -6 -60s-12.667 -44 -26 -68l-10 -22c66.667 100 138.334 177.667 215.001 233s151 83 223 83c58.667 0 99.334 -18.333 122.001 -55
s34 -73.667 34 -111c0 -20 -2.66699 -42 -8 -66s-14 -46 -26 -66l-10 -24c62.667 98.667 131.334 177 206.001 235s145.334 87 212.001 87c60 0 105 -17 135 -51s45 -75 45 -123c0 -21.333 -2.33301 -42.666 -7 -63.999s-13 -44.666 -25 -69.999l-152 -334
c-14.667 -32 -24 -55.667 -28 -71s-6 -26.333 -6 -33c0 -8 1.66699 -13 5 -15s7.66602 -3 12.999 -3c26.667 0 60.667 21 102 63s66.666 63 75.999 63s19.333 -7 30 -21s16 -23.667 16 -29z" />
    <glyph glyph-name="n" unicode="n" horiz-adv-x="1186" 
d="M1124 194c0 -22.667 -43.999 -67.6699 -131.999 -135.003s-175.333 -101 -262 -101c-54.667 0 -95.334 9.66699 -122.001 29s-40 48.333 -40 87c0 20 2.33301 40.667 7 62s13.667 49.333 27 84l138 326c9.33301 24 16.333 44 21 60s7 32 7 48
c0 18.667 -2.33301 32.667 -7 42s-16.334 14 -35.001 14c-32 0 -81 -48.667 -147 -146s-125.667 -206 -179 -326l-78 -222c-4 -10.667 -26.667 -19 -68 -25s-70.666 -9 -87.999 -9c-16 0 -48 3 -96 9s-70.667 14.333 -68 25l198 598c9.33301 26.667 16 47.334 20 62.001
s6 27.334 6 38.001c0 6.66699 -1.66699 12 -5 16s-7.66602 6 -12.999 6c-20 0 -46 -18.333 -78 -55s-53.333 -55 -64 -55s-21.334 7.33301 -32.001 22s-16 24 -16 28c0 24 37 69.667 111 137s150.333 101 229 101c57.333 0 102.666 -15.667 135.999 -47s50 -73 50 -125
c0 -12 -0.666992 -22.667 -2 -32s-4 -18.666 -8 -27.999l-28 -76c45.333 78.667 108 149.667 188 213s158 95 234 95c46.667 0 88.667 -13.667 126 -41s56 -67.666 56 -120.999c0 -26.667 -3.66699 -56.334 -11 -89.001s-17 -62.334 -29 -89.001l-122 -302
c-12 -28 -20.667 -49.667 -26 -65s-8 -26.333 -8 -33c0 -9.33301 1.33301 -15.666 4 -18.999s6.66699 -5 12 -5c28 0 57 15.667 87 47s49.667 47 59 47c10.667 0 21.334 -7 32.001 -21s16 -23.667 16 -29z" />
    <glyph glyph-name="o" unicode="o" horiz-adv-x="1068" 
d="M1002 582c0 -73.333 -14 -148.001 -42 -224.001s-68 -142.667 -120 -200c-56 -61.333 -119.333 -110 -190 -146s-158 -54 -262 -54c-112 0 -199.333 31.333 -262 94s-94 141.334 -94 236.001c0 78.667 13 153 39 223s67 137 123 201c50.667 60 115 108.667 193 146
s164.333 56 259 56c112 0 199.333 -31.333 262 -94s94 -142 94 -238zM708 731.999c0 28 -4.99805 48.999 -14.998 62.999s-25.667 21 -47 21c-36 0 -72.667 -23.333 -110 -70s-72.666 -108.667 -105.999 -186c-32 -74.667 -57 -151.334 -75 -230.001s-27 -142 -27 -190
c0 -26.667 5 -47.667 15 -63s25 -23 45 -23c37.333 0 75.666 25.333 114.999 76s73.666 111.334 102.999 182.001s53.666 144.334 72.999 221.001s29 143 29 199z" />
    <glyph glyph-name="p" unicode="p" horiz-adv-x="1138" 
d="M1072 600c0 -152 -55.3369 -297.001 -166.004 -435.001s-248 -207 -412 -207c-38.667 0 -73.667 7.33301 -105 22s-53 33.334 -65 56.001l-114 -332c-5.33301 -14.667 -9 -27.667 -11 -39s-3 -21.666 -3 -30.999c0 -28 14.667 -47 44 -57s56 -16.333 80 -19
c2.66699 0 5 -1.66699 7 -5s3 -7 3 -11c0 -10.667 -4 -25.334 -12 -44.001s-15.333 -28 -22 -28c-82.667 6.66699 -187.334 11.334 -314.001 14.001s-226.667 4 -300 4c-1.33301 0 -3 3.66699 -5 11s-3 15.666 -3 24.999c0 8 4 18.667 12 32s14.667 20 20 20
c46.667 4 85.334 16 116.001 36s52.667 50.667 66 92l330 962c-25.333 -10.667 -49.333 -22.334 -72 -35.001l-56 -31c-4 -1.33301 -8.33301 2.33398 -13 11.001s-8.33398 17.667 -11.001 27c-4 18.667 -4.66699 33 -2 43s9.33398 18.333 20.001 25
c28 20 55.333 37.667 82 53s60 32.333 100 51l94 274c2.66699 10.667 29 19 79 25s81 9 93 9c18.667 0 49.334 -2.66699 92.001 -8s61.334 -14 56.001 -26l-64 -192c22.667 8 43.334 13.667 62.001 17s38 5 58 5c94.667 0 174.334 -23.667 239.001 -71s97 -128.333 97 -243z
M757.996 651.999c0 57.333 -9.00098 94.668 -27.001 112.001s-41.667 26 -71 26c-17.333 0 -31.666 -1.66699 -42.999 -5s-25.666 -8.33301 -42.999 -15l-158 -462c-10.667 -30.667 -18.334 -58.334 -23.001 -83.001s-7 -47 -7 -67c0 -32 9 -57 27 -75s37.667 -27 59 -27
c60 0 122.667 66.667 188 200s98 265.333 98 396z" />
    <glyph glyph-name="q" unicode="q" horiz-adv-x="1154" 
d="M1190 906l-467.999 -1202c-5.33301 -12 -9.66602 -25.333 -12.999 -40s-5 -25.334 -5 -32.001c0 -28 12.333 -46.667 37 -56s48.334 -15.333 71.001 -18c2.66699 0 4.66699 -4.33301 6 -13s2 -15 2 -19c0 -9.33301 -2.66699 -21 -8 -35s-11.333 -21 -18 -21
c-81.333 6.66699 -185.333 11.334 -312 14.001s-226.667 4 -300 4c-2.66699 0 -5 3.66699 -7 11s-3 15.666 -3 24.999s3 20.333 9 33s11.667 19 17 19c44 4 85 16.333 123 37s64.333 51 79 91l182 442c-60 -68 -114.333 -116.333 -163 -145s-104.334 -43 -167.001 -43
c-48 0 -96.333 19.667 -145 59s-73 101.666 -73 186.999c0 153.333 78.333 310 235 470s327 240 511 240c32 0 57.333 -5.33301 76 -16s33.334 -20 44.001 -28c13.333 -9.33301 27.666 -18.666 42.999 -27.999s32.333 -14 51 -14s35 5.66699 49 17s30.333 32.333 49 63
c1.33301 4 9.66602 7.33301 24.999 10s25.666 4 30.999 4c6.66699 0 16 -1.66699 28 -5s16.667 -7 14 -11zM792.001 742.001c0 21.333 -3.33301 36.667 -10 46s-18.667 14 -36 14c-68 0 -148.667 -79 -242 -237s-140 -281 -140 -369c0 -20 4.66699 -35.333 14 -46
s24 -16 44 -16c62.667 0 140 77.667 232 233s138 280.333 138 375z" />
    <glyph glyph-name="r" unicode="r" horiz-adv-x="940" 
d="M998 744c0 -48 -13.667 -88 -41 -120s-64.333 -48 -111 -48c-25.333 0 -44.333 4.66699 -57 14s-23.667 20.666 -33 33.999c-8 12 -17.333 23.333 -28 34s-24.667 16 -42 16c-42.667 0 -99.667 -67.667 -171 -203s-135.666 -287 -192.999 -455
c-4 -10.667 -27.333 -19 -70 -25s-71.334 -9 -86.001 -9c-16 0 -48 3 -96 9s-70.667 14.333 -68 25l198 598l20 64c4 13.333 6 25.333 6 36c0 6.66699 -1.66699 12 -5 16s-7.66602 6 -12.999 6c-20 0 -46 -18.333 -78 -55s-53.333 -55 -64 -55s-21.334 7.33301 -32.001 22
s-16 24 -16 28c0 24 37 69.667 111 137s150.333 101 229 101c57.333 0 102.666 -15.667 135.999 -47s50 -73 50 -125c0 -12 -0.666992 -22.667 -2 -32s-4 -18.666 -8 -27.999l-58 -156c65.333 129.333 125.333 226.333 180 291s111.334 97 170.001 97
c50.667 0 92 -15.667 124 -47s48 -72.333 48 -123z" />
    <glyph glyph-name="s" unicode="s" horiz-adv-x="862" 
d="M830 734c0 -37.333 -9.66699 -68.666 -29 -93.999s-47.666 -38 -84.999 -38c-26.667 0 -50 11.667 -70 35s-37.333 47 -52 71c-16 26.667 -33.667 51 -53 73s-41.666 33 -66.999 33c-24 0 -40.667 -5.33301 -50 -16s-14 -27.334 -14 -50.001s15 -53.667 45 -93l89 -117
c33.333 -42.667 64 -88.667 92 -138s42 -97.333 42 -144c0 -84 -36.333 -154.667 -109 -212s-162.334 -86 -269.001 -86c-81.333 0 -154 20.667 -218 62s-96 87.333 -96 138c0 37.333 10 66.666 30 87.999s48.667 32 86 32c26.667 0 51 -12 73 -36s41.667 -49.333 59 -76
c18.667 -26.667 38.667 -52 60 -76s45.333 -36 72 -36c17.333 0 30.666 4.66699 39.999 14s14 24.666 14 45.999c0 26.667 -14 60.334 -42 101.001l-82 115c-32 42.667 -61 87.667 -87 135s-39 93 -39 137c0 78.667 33.667 150.334 101 215.001s160.333 97 279 97
c80 0 146.667 -20 200 -60s80 -80 80 -120z" />
    <glyph glyph-name="t" unicode="t" horiz-adv-x="772" 
d="M816 820c0 -13.333 -5.00195 -28.667 -15.002 -46s-19 -26 -27 -26l-200 6l-162 -482c-5.33301 -16 -10 -32.333 -14 -49s-6 -30.334 -6 -41.001s1.33301 -18.667 4 -24s8.66699 -8 18 -8c33.333 0 72 21.667 116 65s70.667 65 80 65c10.667 0 23.667 -7.33301 39 -22
s23 -24.667 23 -30c0 -8 -15 -27.333 -45 -58s-65 -60 -105 -88c-49.333 -36 -95.666 -65.667 -138.999 -89s-89.666 -35 -138.999 -35c-57.333 0 -103 15 -137 45s-51 72.333 -51 127c0 20 1.66699 36.667 5 50s8.33301 31.333 15 54l176 518l-152 -4
c-8 0 -13.667 6 -17 18s-5 22 -5 30c0 14.667 5 30.334 15 47.001s18.333 25 25 25h174l74 216c2.66699 10.667 29 19 79 25s81 9 93 9c18.667 0 49 -3.33301 91 -10s61 -14.667 57 -24l-74 -216h182c8 0 13.667 -6 17 -18s5 -22 5 -30z" />
    <glyph glyph-name="u" unicode="u" horiz-adv-x="1198" 
d="M1152 866l-203.997 -607.998c-6.66699 -18.667 -12.667 -38 -18 -58s-8 -34 -8 -42s2 -14 6 -18s8.66699 -6 14 -6c17.333 0 43 18.333 77 55s55 55 63 55c10.667 0 21.667 -7 33 -21s17 -23.667 17 -29c0 -22.667 -38.333 -67.667 -115 -135s-151.667 -101 -225 -101
c-54.667 0 -99 15 -133 45s-51 71 -51 123c0 13.333 1 26 3 38s6.33301 28 13 48l36 100c-61.333 -102.667 -130.333 -187.334 -207 -254.001s-154.334 -100 -233.001 -100c-44 0 -85 14.667 -123 44s-57 68.666 -57 117.999c0 28 3.66699 57 11 87s17 60.333 29 91l124 306
l23 57c7.33301 18 11 31.667 11 41s-1.66699 15.666 -5 18.999s-7 5 -11 5c-26.667 0 -56.334 -16.667 -89.001 -50s-52.334 -50 -59.001 -50c-10.667 0 -21.334 7.33301 -32.001 22s-16 24 -16 28c0 22.667 45.333 68 136 136s176.667 102 258 102
c54.667 0 95.334 -9.66699 122.001 -29s40 -48.333 40 -87c0 -17.333 -2.66699 -39.333 -8 -66s-14 -53.334 -26 -80.001l-138 -326c-8 -17.333 -14.667 -36.666 -20 -57.999s-8 -38.666 -8 -51.999c0 -18.667 2.33301 -32.667 7 -42s16.334 -14 35.001 -14
c36 0 90.667 58.333 164 175s132.666 231.667 177.999 345l64 186c2.66699 10.667 24.667 19 66 25s71.333 9 90 9c20 0 53.667 -3 101 -9s69 -14.333 65 -25z" />
    <glyph glyph-name="v" unicode="v" horiz-adv-x="1138" 
d="M1096 740c0 -102.667 -22.332 -202.332 -66.999 -298.999s-99.667 -179.667 -165 -249c-70.667 -76 -141.334 -134 -212.001 -174s-139.334 -60 -206.001 -60c-74.667 0 -132.667 21.667 -174 65s-62 100.333 -62 171c0 73.333 23.667 156.666 71 249.999
s105 170.666 173 231.999c-9.33301 -4 -20.666 -7.66699 -33.999 -11s-27.333 -5 -42 -5c-28 0 -53 8.66699 -75 26s-45.667 26 -71 26c-32 0 -56.667 -6.33301 -74 -19s-26 -29 -26 -49c0 -16 13.667 -34.667 41 -56s41 -44.666 41 -69.999c0 -29.333 -9 -53.333 -27 -72
s-42.333 -28 -73 -28c-22.667 0 -45.334 10.333 -68.001 31s-34 57 -34 109c0 80 34.667 159.333 104 238s139.333 118 210 118c37.333 0 68.333 -5.33301 93 -16s51.667 -16 81 -16c28 0 56.333 3 85 9s47 9 55 9c9.33301 0 17.333 -3.33301 24 -10s10 -14.667 10 -24
c0 -12 -10.667 -31 -32 -57s-42.666 -53.667 -63.999 -83c-25.333 -34.667 -48 -79.667 -68 -135s-30 -120.333 -30 -195c0 -53.333 14 -98.333 42 -135s69.333 -55 124 -55c72 0 131.333 26 178 78s70 134 70 246c0 56 -14.333 99.333 -43 130s-43 64.667 -43 102
c0 41.333 14 77 42 107s62 45 102 45c44 0 79 -15 105 -45s39 -73 39 -129z" />
    <glyph glyph-name="w" unicode="w" horiz-adv-x="1598" 
d="M1552 740c0 -160 -72.6699 -330.33 -218.003 -510.997s-273.333 -271 -384 -271c-52 0 -98.333 11.667 -139 35s-67.667 58.333 -81 105c-42.667 -45.333 -87 -80 -133 -104s-95.667 -36 -149 -36c-74.667 0 -133 21.667 -175 65s-63 100.333 -63 171
c0 73.333 24.333 156.666 73 249.999s105.667 170.666 171 231.999c-9.33301 -4 -20.666 -7.66699 -33.999 -11s-26.666 -5 -39.999 -5c-29.333 0 -54.666 8.66699 -75.999 26s-45.333 26 -72 26c-32 0 -56.667 -6.33301 -74 -19s-26 -29 -26 -49c0 -16 14 -34.667 42 -56
s42 -44.666 42 -69.999c0 -29.333 -9.33301 -53.333 -28 -72s-43.334 -28 -74.001 -28c-22.667 0 -45.334 10.333 -68.001 31s-34 57 -34 109c0 80 34.667 159.333 104 238s139.333 118 210 118c37.333 0 69 -5.33301 95 -16s52.333 -16 79 -16c28 0 56.667 3 86 9
s48 9 56 9c9.33301 0 17 -3.33301 23 -10s9 -14.667 9 -24c0 -12 -10.667 -31 -32 -57s-42.666 -53.667 -63.999 -83c-24 -34.667 -46 -79.667 -66 -135s-30 -120.333 -30 -195c0 -52 14 -96.667 42 -134s66 -56 114 -56c5.33301 0 12 0.666992 20 2s14 3.33301 18 6
c-1.33301 9.33301 -2 18.333 -2 27v23c0 165.333 36 315 108 449s152 201 240 201c40 0 71.667 -15.667 95 -47s35 -71 35 -119c0 -73.333 -23.333 -154.333 -70 -243s-96.667 -168.334 -150 -239.001c17.333 -18.667 37 -33.334 59 -44.001s55.667 -16 101 -16
c72 0 132.667 26 182 78s74 134 74 246c0 56 -14 99.333 -42 130s-42 64.667 -42 102c0 44 13.333 80.333 40 109s61.334 43 104.001 43c44 0 79 -15 105 -45s39 -73 39 -129zM1022 682.003c0 17.333 -4.66699 30.667 -14 40s-20 14 -32 14c-32 0 -59.333 -20.667 -82 -62
s-34 -106.666 -34 -195.999c0 -20 1 -38.333 3 -55s6.33301 -36.334 13 -59.001c45.333 56 81 112 107 168s39 106 39 150z" />
    <glyph glyph-name="x" unicode="x" horiz-adv-x="1190" 
d="M1156 748c0 -42.667 -13.3262 -79.667 -39.9932 -111s-59.334 -47 -98.001 -47c-25.333 0 -44.333 4.66699 -57 14s-23.667 20.666 -33 33.999c-8 13.333 -15.667 25 -23 35s-17.666 15 -30.999 15c-18.667 0 -42.334 -16.667 -71.001 -50s-61 -85.333 -97 -156l26 -166
c13.333 -73.333 29.333 -124.333 48 -153s40.667 -43 66 -43c32 0 52 15.333 60 46s12 69.334 12 116.001c0 4 4.66699 7.33301 14 10s16 4 20 4c9.33301 0 19 -1.33301 29 -4s15.667 -6 17 -10c2.66699 -6.66699 6 -16.667 10 -30s6 -30 6 -50
c0 -73.333 -29 -132.333 -87 -177s-122.333 -67 -193 -67c-64 0 -121.333 25.667 -172 77s-87.334 125.666 -110.001 222.999c-53.333 -102.667 -99.333 -178.334 -138 -227.001s-91.334 -73 -158.001 -73c-40 0 -79 13.333 -117 40s-57 65.334 -57 116.001
c0 44 13.667 81.667 41 113s63.666 47 108.999 47c37.333 0 64.666 -13.333 81.999 -40s38 -40 62 -40c17.333 0 38 14 62 42s52.667 73.333 86 136l-34 186c-12 66.667 -26.667 115.334 -44 146.001s-36.666 46 -57.999 46c-32 0 -50.667 -15.333 -56 -46
s-8 -68.667 -8 -114c0 -4 -4.66699 -7.33301 -14 -10s-16 -4 -20 -4c-10.667 0 -20.334 1.33301 -29.001 4s-14.334 6 -17.001 10c-4 6.66699 -7.66699 17.667 -11 33s-5 31 -5 47c0 70.667 25.667 129 77 175s111.666 69 180.999 69c68 0 129.667 -27.667 185 -83
s90.333 -132.333 105 -231c56 109.333 106.667 189 152 239s94.666 75 147.999 75c54.667 0 98.334 -15.667 131.001 -47s49 -71 49 -119z" />
    <glyph glyph-name="y" unicode="y" horiz-adv-x="1070" 
d="M1046 856c0 -65.333 -33.668 -176 -101.001 -332s-151.666 -314 -252.999 -474c-105.333 -164 -215 -306.333 -329 -427s-223.667 -181 -329 -181c-96 0 -168.667 19 -218 57s-74 79 -74 123c0 42.667 11.667 79.667 35 111s63 47 119 47c32 0 59.333 -11.333 82 -34
s42 -45.334 58 -68.001c13.333 -21.333 29.666 -43.666 48.999 -66.999s37.666 -35 54.999 -35c38.667 0 79.334 46.333 122.001 139s64 227 64 403c0 173.333 -13.333 311.666 -40 414.999s-54 155 -82 155c-30.667 0 -56 -23.333 -76 -70s-34.667 -70 -44 -70
c-13.333 0 -28.666 5.33301 -45.999 16s-26 19.334 -26 26.001c0 60 38.333 129 115 207s157 117 241 117c33.333 0 64.333 -11 93 -33s53.667 -57 75 -105c24 -52 42.333 -114.333 55 -187s19 -169.667 19 -291v-79c0 -30 -1.33301 -66.333 -4 -109
c77.333 136 130.666 266.667 159.999 392s48.666 235.333 57.999 330c2.66699 34.667 18.334 57 47.001 67s47 15 55 15c22.667 0 48.334 -5 77.001 -15s43 -24.333 43 -43z" />
    <glyph glyph-name="z" unicode="z" horiz-adv-x="1024" 
d="M1006 838c0 -14.667 -9 -28.666 -27 -41.999s-45 -35.333 -81 -66l-562 -476c5.33301 6.66699 16.333 12 33 16s33 6 49 6c41.333 0 93.666 -22.333 156.999 -67s113 -67 149 -67c10.667 0 19.334 3.33301 26.001 10s10 15.334 10 26.001c0 16 -14 35.333 -42 58
s-42 50.667 -42 84c0 40 11.333 70.667 34 92s53.334 32 92.001 32c30.667 0 59 -13 85 -39s39 -65.667 39 -119c0 -54.667 -36 -123 -108 -205s-155.333 -123 -250 -123c-50.667 0 -110.334 15.333 -179.001 46s-126.334 46 -173.001 46c-41.333 0 -71 -15.333 -89 -46
s-38.333 -46 -61 -46c-16 0 -33.333 7.33301 -52 22s-28 32.667 -28 54c0 13.333 9 26 27 38s45.667 34.667 83 68l546 478c-8 -6.66699 -20 -12.334 -36 -17.001s-32 -7 -48 -7c-48 0 -98.333 16.333 -151 49s-101 49 -145 49c-14.667 0 -25.334 -3.33301 -32.001 -10
s-10 -15.334 -10 -26.001c0 -14.667 7 -27.667 21 -39s25.667 -20.333 35 -27c14.667 -10.667 27.334 -21.667 38.001 -33s16 -27 16 -47c0 -34.667 -10.333 -61.667 -31 -81s-49 -29 -85 -29c-32 0 -62 14.333 -90 43s-42 71 -42 127c0 78.667 38.333 155.667 115 231
s154.334 113 233.001 113c52 0 111 -18.333 177 -55s122.333 -55 169 -55c41.333 0 71.333 18.333 90 55s38.667 55 60 55c16 0 33.333 -7.33301 52 -22s28 -32.667 28 -54z" />
    <glyph glyph-name="braceleft.standard" unicode="{" horiz-adv-x="868" 
d="M996 1476c-2.66699 -8 -6.66895 -17.333 -12.002 -28s-10 -16 -14 -16c-62.667 -8 -111.667 -33.667 -147 -77s-60.333 -100.333 -75 -171l-62 -310c-12 -56 -41.333 -98.333 -88 -127s-102 -49.667 -166 -63c66.667 -16 113.334 -42 140.001 -78s34.667 -74 24 -114
l-116 -428c-14.667 -48 -11.667 -86.667 9 -116s58.334 -50.666 113.001 -63.999c4 0 6.33301 -5.33301 7 -16s0.333984 -19.334 -0.999023 -26.001c-2.66699 -9.33301 -7 -19 -13 -29s-11 -15 -15 -15c-85.333 0 -157 10 -215 30s-103 46 -135 78
c-33.333 33.333 -54.333 69.666 -63 108.999s-8.33398 79.666 0.999023 120.999l104 372c6.66699 26.667 2.66699 53.667 -12 81s-58.667 45.666 -132 54.999c-1.33301 0 -3 1.66699 -5 5s-3.66699 7 -5 11c0 4 0.333008 8.33301 1 13s1 8.33398 1 11.001
c0 4 3.33301 11.333 10 22s12 16.667 16 18c54.667 6.66699 101.667 21.334 141 44.001s62.333 53.334 69 92.001l62 322c18.667 106.667 75.334 189.667 170.001 249s228.667 89 402 89c4 0 6.66699 -5.66699 8 -17s0.666016 -20.333 -2.00098 -27z" />
    <glyph glyph-name="bar" unicode="|" horiz-adv-x="246" 
d="M196 -4c0 -8 -8.66699 -13.333 -26 -16s-32.666 -4 -45.999 -4c-14.667 0 -30.334 1.33301 -47.001 4s-25 8 -25 16v1392c0 8 8.33301 13.333 25 16s32.334 4 47.001 4c13.333 0 28.666 -1.66699 45.999 -5s26 -8.33301 26 -15v-1392z" />
    <glyph glyph-name="braceright.standard" unicode="}" horiz-adv-x="868" 
d="M780 634c-1.33301 -4 -5.00098 -11.6689 -11.001 -23.002s-11 -17 -15 -17c-54.667 -5.33301 -101.334 -19.666 -140.001 -42.999s-62 -54.333 -70 -93l-62 -322c-21.333 -108 -77.666 -191.333 -168.999 -250s-225.666 -88 -402.999 -88c-4 0 -6.33301 5 -7 15
s-0.333984 19.667 0.999023 29c1.33301 6.66699 5 15.334 11 26.001s11 16.667 15 18c64 9.33301 113.667 35.333 149 78s59.666 99.334 72.999 170.001l62 310c10.667 57.333 40 99.666 88 126.999s103.333 48.333 166 63c-70.667 18.667 -118 44.667 -142 78
s-31.333 71.333 -22 114l116 428c13.333 49.333 10.333 88 -9 116s-57 49.333 -113 64c-4 1.33301 -6 7 -6 17v25c1.33301 8 5.33301 17.333 12 28s12 16 16 16c170.667 0 287.334 -36.667 350.001 -110s83.334 -149.333 62.001 -228l-104 -372c-6.66699 -24 0 -51 20 -81
s61.333 -48.333 124 -55c4 0 7 -5.66699 9 -17s1.66699 -19 -1 -23z" />
    <glyph glyph-name="asciitilde" unicode="~" horiz-adv-x="900" 
d="M790 602c-17.333 -120 -47.002 -199.999 -89.002 -239.999s-95.667 -56 -161 -48l-270 26c-42.667 4 -80 -4 -112 -24s-58.667 -49.333 -80 -88c-1.33301 -2.66699 -3.33301 -4.66699 -6 -6s-6 -2 -10 -2c-13.333 0 -26.666 4.66699 -39.999 14s-18 25.333 -14 48
c20 100 54.333 176.667 103 230s118.334 74.666 209.001 63.999l232 -26c48 -4 85 4.33301 111 25s45 47.667 57 81c1.33301 2.66699 4 4.66699 8 6s8 2 12 2c10.667 0 22.667 -5.33301 36 -16s18 -26 14 -46z" />
    <glyph glyph-name="nonbreakingspace" unicode="&#xa0;" horiz-adv-x="205" 
 />
    <glyph glyph-name="exclamdown.standard" unicode="&#xa1;" horiz-adv-x="674" 
d="M668 1256c0 -42.667 -15.333 -79.334 -46 -110.001s-67.334 -46 -110.001 -46s-79.334 15.333 -110.001 46s-46 67.334 -46 110.001s15.333 79.334 46 110.001s67.334 46 110.001 46s79.334 -15.333 110.001 -46s46 -67.334 46 -110.001zM480 948l-60 -872
c-2.66699 -36 -17.667 -64.333 -45 -85s-68.333 -31 -123 -31c-86.667 0 -143.667 24.333 -171 73s-31 98.334 -11 149.001l318 786c1.33301 6.66699 6 12 14 16s18.667 6 32 6c17.333 0 30 -4.33301 38 -13s10.667 -18.334 8 -29.001z" />
    <glyph glyph-name="cent" unicode="&#xa2;" horiz-adv-x="956" 
d="M938 710c0 -36 -14.665 -67.3301 -43.998 -93.9971s-66.666 -40 -111.999 -40s-75 23 -89 69s-25.667 80.333 -35 103l-188 -646c4 0 9.33301 -0.666992 16 -2s12 -2 16 -2c29.333 0 71 17.667 125 53s95 71 123 107h5c3.33301 0 6.33301 -0.666992 9 -2
s5.66699 -3.66602 9 -6.99902l9 -9c5.33301 -5.33301 10.666 -12.333 15.999 -21s6.66602 -14.334 3.99902 -17.001c-14.667 -30.667 -57.334 -74.334 -128.001 -131.001s-152 -92.334 -244 -107.001l-34 -116c-1.33301 -8 -7 -12.333 -17 -13s-18.333 0.333008 -25 3
c-9.33301 1.33301 -17.666 4 -24.999 8s-11 10.667 -11 20l28 96c-76 5.33301 -146.333 36.666 -211 93.999s-97 138 -97 242c0 110.667 58 236 174 376s252.667 219.333 410 238l42 144c1.33301 8 7 12 17 12h27c6.66699 -1.33301 14.667 -5 24 -11
s12.666 -12.333 9.99902 -19l-36 -126h8c64 -8 117.333 -33.667 160 -77s64 -85 64 -125zM588.002 796.003c-34.667 -10.667 -79.333 -63.665 -134 -158.998s-82 -224.333 -82 -387c0 -22.667 2.66699 -42.334 8 -59.001s12 -30.334 20 -41.001z" />
    <glyph glyph-name="sterling.standard" unicode="&#xa3;" horiz-adv-x="1430" 
d="M1724 -248c0 -61.333 -28.002 -121.333 -84.002 -180s-150.667 -88 -284 -88c-164 0 -291 33 -381 99s-164.333 140.333 -223 223l-149 211c-52.667 74 -107.667 111 -165 111c-33.333 -48 -75.666 -88.333 -126.999 -121s-103.666 -49 -156.999 -49
c-58.667 0 -102 10.333 -130 31s-42 49 -42 85c0 61.333 36 109 108 143s142.667 55 212 63c17.333 38.667 32.333 74.334 45 107.001s25 79 37 139l-216 -4c-8 0 -14.333 7.66699 -19 23s-7 29.666 -7 42.999s2.33301 27.666 7 42.999s11 23 19 23l246 -6
c33.333 114.667 68.333 214.667 105 300s84.334 164 143.001 236c53.333 65.333 117.666 117 192.999 155s164.333 57 267 57c89.333 0 171 -28.333 245 -85s111 -117.667 111 -183c0 -48 -13.667 -87.667 -41 -119s-63.666 -47 -108.999 -47
c-61.333 0 -101.333 17.667 -120 53s-30 73.666 -34 114.999c-4 42.667 -9.33301 81.667 -16 117s-29.334 53 -68.001 53c-57.333 0 -100.333 -15 -129 -45s-52.334 -75 -71.001 -135c-20 -62.667 -36 -130.667 -48 -204s-35.333 -163.333 -70 -270l268 8
c8 0 14.333 -7.66699 19 -23s7 -29.666 7 -42.999s-2.33301 -27.666 -7 -42.999s-11 -23 -19 -23l-312 6c-14.667 -46.667 -32 -88 -52 -124s-50 -74.667 -90 -116h14h14c84 0 162.333 -38 235 -114s138.334 -156 197.001 -240
c57.333 -85.333 115.333 -165.666 174 -240.999s114.667 -113 168 -113c36 0 62.333 6.66699 79 20s25 30 25 50c0 26.667 -4.66699 46 -14 58s-14 29.333 -14 52c0 49.333 11.667 86.666 35 111.999s53 38 89 38c38.667 0 71 -12 97 -36s39 -64.667 39 -122z" />
    <glyph glyph-name="Euro" unicode="&#x20ac;" horiz-adv-x="1496" 
d="M1428 1254c-4.66699 -26.667 -9.8291 -58.666 -15.4961 -95.999l-17.5 -114.5c-6 -39 -11.5 -76.833 -16.5 -113.5l-12.5 -94c0 -2.66699 -1.5 -5 -4.5 -7s-6.66699 -3.66699 -11 -5s-9 -2.33301 -14 -3s-9.16699 -1 -12.5 -1c-8 0 -17 1.16699 -27 3.5s-15 6.5 -15 12.5
c-3.33301 48 -9.33301 92.333 -18 133s-21.167 75.667 -37.5 105s-37.5 52.333 -63.5 69s-58.333 25 -97 25s-77 -8 -115 -24s-74.833 -38.833 -110.5 -68.5s-69.334 -65.5 -101.001 -107.5s-60.167 -88.667 -85.5 -140l374 2c6 0 11.5 -7 16.5 -21s7.5 -29 7.5 -45
c0 -6.66699 -0.5 -14 -1.5 -22s-2.5 -15.167 -4.5 -21.5s-4.5 -11.666 -7.5 -15.999s-6.5 -6.5 -10.5 -6.5l-424 2c-9.33301 -28 -16.833 -57.167 -22.5 -87.5s-10.167 -61.166 -13.5 -92.499l394 2c5.33301 0 10.666 -6.66699 15.999 -20s8 -28.666 8 -45.999
c0 -6.66699 -0.333008 -14 -1 -22s-2 -15.167 -4 -21.5s-4.5 -11.666 -7.5 -15.999s-6.83301 -6.5 -11.5 -6.5l-400 2c2 -59.333 10 -110.5 24 -153.5s33.167 -78.333 57.5 -106s53.333 -48 87 -61s70.834 -19.5 111.501 -19.5c42 0 82.167 10.167 120.5 30.5
s74.166 47.666 107.499 81.999s63.666 74.5 90.999 120.5s51 94.333 71 145c3.33301 5.33301 9.16602 9 17.499 11s16.5 3 24.5 3c4.66699 0 9.66699 -0.5 15 -1.5s10.166 -2.5 14.499 -4.5s8 -4 11 -6s4.16699 -4 3.5 -6l-21 -88.5l-26.5 -113l-25.5 -114.5
c-8 -37.333 -14.333 -68.666 -19 -93.999c-21.333 -5.33301 -47.333 -11.333 -78 -18s-64.5 -13 -101.5 -19s-76.167 -11 -117.5 -15s-83.666 -6 -126.999 -6c-83.333 0 -159.666 10.167 -228.999 30.5s-130 49.333 -182 87s-94.333 83.167 -127 136.5s-54 113.333 -64 180
l-138 -2c-6 0 -11.833 6 -17.5 18s-8.5 28 -8.5 48c0 7.33301 0.666992 15 2 23s3.16602 15.167 5.49902 21.5s5 11.5 8 15.5s5.83301 6 8.5 6l134 -2c2 30 6 60.167 12 90.5s14 60.166 24 89.499l-102 -2c-7.33301 0 -13.5 6.66699 -18.5 20s-7.5 28.666 -7.5 45.999
s2.5 32.666 7.5 45.999s10.5 20 16.5 20l164 -2c38.667 64.667 87 124.167 145 178.5s125.5 101.333 202.5 141s162.833 70.667 257.5 93s197.667 33.5 309 33.5c19.333 0 39 -0.333008 59 -1s39.833 -1.83398 59.5 -3.50098s38.5 -3.83398 56.5 -6.50098
s34.333 -5.66699 49 -9z" />
    <glyph glyph-name="yen.standard" unicode="&#xa5;" horiz-adv-x="1598" 
d="M1726 1136c0 -5.33301 -2.66504 -11.666 -7.99805 -18.999s-11.333 -13 -18 -17c-8 -4 -17.333 -7.66699 -28 -11s-17.334 -3 -20.001 1c-16 38.667 -43 68.334 -81 89.001s-83 31 -135 31c-72 0 -143.333 -40.333 -214 -121s-134.667 -186.334 -192 -317.001h370
c8 0 13 -4 15 -12s3 -14 3 -18c0 -12 -3.33301 -23.667 -10 -35s-14 -17 -22 -17h-388c-8 -22.667 -16.667 -50.334 -26 -83.001s-18 -61 -26 -85h394c8 0 13.333 -4 16 -12s4 -14.667 4 -20c0 -10.667 -3.66699 -21.667 -11 -33s-15 -17 -23 -17h-400l-46 -194
c-2.66699 -10.667 -5 -23 -7 -37s-3 -24.333 -3 -31c0 -28 7.66699 -49.667 23 -65s59 -27 131 -35c4 0 6.66699 -4.66699 8 -14s2 -16 2 -20c0 -9.33301 -2.33301 -20.666 -7 -33.999s-9.66699 -20 -15 -20c-64 0 -131.333 1.66699 -202 5s-132 5 -184 5
s-113.333 -1.66699 -184 -5s-134.667 -5 -192 -5c-2.66699 0 -5.33398 3.33301 -8.00098 10s-4 14.667 -4 24s2.66699 20.333 8 33s10.666 19.667 15.999 21c86.667 9.33301 142.334 24.333 167.001 45s43.667 61.667 57 123l46 194h-390c-8 0 -13.333 4 -16 12
s-4 14.667 -4 20c0 12 3.66699 23.333 11 34s14.333 16 21 16h396l2 6l16 84c5.33301 29.333 9.33301 55.333 12 78h-378c-8 0 -13.333 4 -16 12s-4 14.667 -4 20c0 12 3.33301 23.333 10 34s14 16 22 16h374c6.66699 141.333 -12 242.666 -56 303.999s-99.333 92 -166 92
c-45.333 0 -83.333 -9 -114 -27s-64.667 -50.333 -102 -97c-4 -4 -10.333 -3 -19 3s-17 13 -25 21c-5.33301 6.66699 -9.66602 14 -12.999 22s-4.33301 14 -3 18c53.333 93.333 119.666 167.333 198.999 222s161.666 82 246.999 82c98.667 0 187.667 -47 267 -141
s119 -211.667 119 -353c0 -10.667 -0.333008 -23 -1 -37s-1.66699 -28.333 -3 -43c70.667 168 154.334 305.667 251.001 413s193 161 289 161c76 0 139 -31 189 -93s76.333 -123 79 -183z" />
    <glyph glyph-name="Scaron" unicode="&#x160;" horiz-adv-x="1254" 
d="M1170 1344c-12 -68 -21.999 -133.999 -29.999 -197.999s-15.333 -128 -22 -192c-1.33301 -4 -8 -7.66699 -20 -11s-21.333 -5 -28 -5c-9.33301 0 -18.666 1.33301 -27.999 4s-14 6.66699 -14 12c2.66699 98.667 -19.333 183.667 -66 255s-100 107 -160 107
c-50.667 0 -93 -16.333 -127 -49s-51 -80.334 -51 -143.001c0 -61.333 25.667 -117 77 -167l149 -141c56 -50.667 107.667 -109.667 155 -177s71 -151 71 -251c0 -112 -49.667 -211.667 -149 -299s-239.666 -131 -420.999 -131c-92 0 -169.333 14.667 -232 44
s-133.334 51.333 -212.001 66l37 210c14 78.667 24.333 148.667 31 210c0 4 6.66699 7.66699 20 11s23.333 5 30 5c9.33301 0 18 -1.33301 26 -4s12 -6.66699 12 -12c5.33301 -133.333 36.666 -239 93.999 -317s124.666 -117 201.999 -117c66.667 0 118.334 18 155.001 54
s55 89.333 55 160c0 60 -24.667 116 -74 168s-101.333 104 -156 156c-58.667 56 -112 116 -160 180s-72 140 -72 228c0 101.333 41.333 195.333 124 282s212 130 388 130c76 0 147.667 -10 215 -30s127.666 -32.667 180.999 -38zM1340 1870l-3.99707 -12.0039
c-1.33301 -4 -4 -7.33301 -8 -10l-454 -332c-5.33301 -4 -12 -8 -20 -12s-17.333 -6 -28 -6c-6.66699 0 -14 1.33301 -22 4s-14 7.33398 -18 14.001l-240 332c-2.66699 2.66699 -4 6 -4 10v12c0 5.33301 2 11.333 6 18s10 13.334 18 20.001c6.66699 5.33301 13.667 9 21 11
s13.666 3 18.999 3c4 0 8.66699 -1 14 -3s10 -3.66699 14 -5l246 -156l384 156c5.33301 2.66699 10.666 4.66699 15.999 6s10 2 14 2c5.33301 0 11 -1.33301 17 -4s10.333 -6 13 -10c5.33301 -5.33301 9.66602 -11.666 12.999 -18.999s4.33301 -13.666 3 -18.999z" />
    <glyph glyph-name="section" unicode="&#xa7;" horiz-adv-x="1312" 
d="M1248 1212c0 -49.333 -14.999 -90.335 -44.999 -123.002s-66.333 -49 -109 -49c-38.667 0 -68 12.333 -88 37s-37.333 52.334 -52 83.001c-12 26.667 -26.667 53.667 -44 81s-36.666 41 -57.999 41c-42.667 0 -74.334 -10 -95.001 -30s-31 -60 -31 -120
c0 -62.667 20.667 -127 62 -193s88.666 -137 141.999 -213c53.333 -77.333 100.666 -153 141.999 -227s62 -158.333 62 -253c0 -125.333 -35.667 -224.333 -107 -297s-156.333 -133 -255 -181c-17.333 -105.333 -76.333 -195.666 -177 -270.999s-211 -113 -331 -113
c-93.333 0 -166.666 18.667 -219.999 56s-80 84 -80 140c0 45.333 15.667 85 47 119s75 51 131 51c40 0 69.667 -12.667 89 -38s34.333 -52 45 -80c12 -28 24.667 -54.333 38 -79s33.333 -37 60 -37c40 0 71.333 11 94 33s34 60.333 34 115c0 65.333 -20 130 -60 194
s-84.667 130 -134 198c-48 64 -92.667 133.667 -134 209s-62 155 -62 239c0 100 32 193.333 96 280s149.333 158 256 214c14.667 96 71 189 169 279s207.667 135 329 135c88 0 157.667 -19.333 209 -58s77 -86 77 -142zM860.001 47.998c0 60 -17.668 123 -53.001 189
s-73.666 128.333 -114.999 187l-125 187c-46 71.333 -76.333 131 -91 179c-2.66699 12 -5 25.333 -7 40s-3 27.334 -3 38.001c-30.667 -14.667 -54 -36 -70 -64s-24 -60 -24 -96c0 -77.333 18.333 -149.333 55 -216s81 -135.334 133 -206.001
c38.667 -53.333 81.667 -118.333 129 -195s74.333 -145 81 -205c36 25.333 60 50.333 72 75s18 53.667 18 87z" />
    <glyph glyph-name="scaron" unicode="&#x161;" horiz-adv-x="862" 
d="M830 734c0 -37.333 -9.66699 -68.666 -29 -93.999s-47.666 -38 -84.999 -38c-26.667 0 -50 11.667 -70 35s-37.333 47 -52 71c-16 26.667 -33.667 51 -53 73s-41.666 33 -66.999 33c-24 0 -40.667 -5.33301 -50 -16s-14 -27.334 -14 -50.001s15 -53.667 45 -93l89 -117
c33.333 -42.667 64 -88.667 92 -138s42 -97.333 42 -144c0 -84 -36.333 -154.667 -109 -212s-162.334 -86 -269.001 -86c-81.333 0 -154 20.667 -218 62s-96 87.333 -96 138c0 37.333 10 66.666 30 87.999s48.667 32 86 32c26.667 0 51 -12 73 -36s41.667 -49.333 59 -76
c18.667 -26.667 38.667 -52 60 -76s45.333 -36 72 -36c17.333 0 30.666 4.66699 39.999 14s14 24.666 14 45.999c0 26.667 -14 60.334 -42 101.001l-82 115c-32 42.667 -61 87.667 -87 135s-39 93 -39 137c0 78.667 33.667 150.334 101 215.001s160.333 97 279 97
c80 0 146.667 -20 200 -60s80 -80 80 -120zM1072 1388c-1.33301 -2.66699 -2.83496 -5.83496 -4.50195 -9.50195s-4.16699 -7.16699 -7.5 -10.5l-380 -332c-5.33301 -4.66699 -11.666 -8.83398 -18.999 -12.501s-15.666 -5.5 -24.999 -5.5c-8 0 -15.5 1.5 -22.5 4.5
s-12.167 7.5 -15.5 13.5l-174 332c-1.33301 2.66699 -2.33301 6 -3 10s-1 7.33301 -1 10c0 5.33301 1.66699 11.333 5 18s9 13.334 17 20.001c6 4.66699 12.833 8.16699 20.5 10.5s13.5 3.5 17.5 3.5s8.83301 -1.33301 14.5 -4s9.5 -4.66699 11.5 -6l182 -144l312 144
c4 2 8.66699 4.16699 14 6.5s10 3.5 14 3.5c5.33301 0 10.666 -1.33301 15.999 -4s10 -6 14 -10c5.33301 -5.33301 9.33301 -11.666 12 -18.999s3.33398 -13.666 2.00098 -18.999z" />
    <glyph glyph-name="copyright" unicode="&#xa9;" horiz-adv-x="1600" 
d="M1532 686c0 -198.667 -71.3311 -369.669 -213.998 -513.002s-313.334 -215 -512.001 -215c-200 0 -371.333 71.333 -514 214s-214 314 -214 514c0 198.667 71.667 369.334 215 512.001s314.333 214 513 214c201.333 0 372.666 -71.667 513.999 -215
s212 -313.666 212 -510.999zM1468 685.998c0 182.667 -65 338.667 -195 468s-285.667 194 -467 194c-182.667 0 -339 -65 -469 -195s-195 -285.667 -195 -467c0 -182.667 65.333 -339 196 -469s286.667 -195 468 -195c182.667 0 338.667 65.333 468 196s194 286.667 194 468
zM1176 545.998c-6.66699 -29.333 -13.6641 -68.6641 -20.9971 -117.997s-14.333 -91.333 -21 -126c-37.333 0 -83 -5.66699 -137 -17s-105.667 -17 -155 -17c-165.333 0 -287 42.667 -365 128s-117 180.666 -117 285.999c0 108 42.667 205.333 128 292
s206.666 130 363.999 130c49.333 0 96.666 -3.33301 141.999 -10s86 -10 122 -10c2.66699 -32 6.66699 -72.333 12 -121s10 -89.667 14 -123c0 -2.66699 -3.33301 -5 -10 -7s-12 -3 -16 -3s-8.33301 1 -13 3s-7.66699 4.33301 -9 7c-12 49.333 -41 95.666 -87 138.999
s-99 65 -159 65c-88 0 -153.333 -33.333 -196 -100s-64 -154 -64 -262c0 -106.667 21 -192.334 63 -257.001s105.667 -97 191 -97c68 0 126.333 20.667 175 62s85.667 93.333 111 156c1.33301 2.66699 4.66602 4.66699 9.99902 6s10 2 14 2s9 -1 15 -3s9 -3.66699 9 -5z" />
    <glyph glyph-name="ordfeminine" unicode="&#xaa;" horiz-adv-x="778" 
d="M852 1376l-158.001 -359.999c-5.33301 -12 -10 -23.333 -14 -34s-6 -19.334 -6 -26.001c0 -4 0.666992 -7.33301 2 -10s3.33301 -4 6 -4c18.667 0 37 9.33301 55 28s29 28 33 28c8 0 16.667 -5 26 -15s14 -17 14 -21c0 -21.333 -26 -50.333 -78 -87s-106 -55 -162 -55
c-37.333 0 -64.333 6.33301 -81 19s-25 31.667 -25 57c0 13.333 1 24.666 3 33.999s5.66699 20 11 32c-38.667 -53.333 -75.667 -90.333 -111 -111s-73.666 -31 -114.999 -31c-42.667 0 -75.667 15 -99 45s-35 66.333 -35 109c0 86.667 51.333 181 154 283
s194.667 153 276 153c24 0 45.333 -7.33301 64 -22s28 -32 28 -52l22 56c1.33301 4 13 7.33301 35 10s40.333 4 55 4c21.333 0 44 -3.66699 68 -11s34.667 -13.666 32 -18.999zM597.999 1284c0 12 -1.66699 20.001 -5 24.001s-8.33301 6 -15 6c-24 0 -75 -46.333 -153 -139
s-117 -162.334 -117 -209.001c0 -12 2.33301 -20.333 7 -25s13.667 -7 27 -7c34.667 0 86 47 154 141s102 163.667 102 209z" />
    <glyph glyph-name="guillemotleft" unicode="&#xab;" horiz-adv-x="960" 
d="M916 704l-196.001 -293.999l66 -296c0 -6.66699 -2 -14.334 -6 -23.001s-9.33301 -15 -16 -19c-4 -1.33301 -10 -5 -18 -11s-13.333 -9 -16 -9c-1.33301 0 -3.33301 0.333008 -6 1l-4 1l-272 336c-2.66699 2.66699 -4.66699 5.66699 -6 9s-2 7 -2 11
c0 1.33301 0.666992 4.33301 2 9s3.33301 8.33398 6 11.001l402 334c1.33301 1.33301 3 2.33301 5 3s3.66699 1 5 1c2.66699 0 8.33398 -3.33301 17.001 -10s14.334 -10.667 17.001 -12c2.66699 -2.66699 7.66699 -9.33398 15 -20.001s9.66602 -18 6.99902 -22z
M519.999 704.001l-195.999 -293.999l64 -296c1.33301 -6.66699 -0.333984 -14.334 -5.00098 -23.001s-10.334 -15 -17.001 -19c-4 -2.66699 -9.66699 -6.66699 -17 -12s-13 -8 -17 -8c-1.33301 0 -3 0.333008 -5 1l-3 1l-274 336c-1.33301 1.33301 -2.66602 4 -3.99902 8
s-2 8 -2 12c0 1.33301 0.666992 4.33301 2 9s2.66602 8.33398 3.99902 11.001l404 334c1.33301 1.33301 3 2.33301 5 3s3.66699 1 5 1c2.66699 0 8.33398 -3.33301 17.001 -10s14.334 -10.667 17.001 -12c2.66699 -2.66699 7.66699 -9.33398 15 -20.001
s9.66602 -18 6.99902 -22z" />
    <glyph glyph-name="logicalnot" unicode="&#xac;" horiz-adv-x="976" 
d="M906 58c0 -8 -8.00098 -14.334 -24.001 -19.001s-31.333 -7 -46 -7c-16 0 -32 2.33301 -48 7s-24 10.334 -24 17.001v318h-700c-8 0 -14 7.66699 -18 23s-6 31 -6 47s2.33301 31.667 7 47s10.334 23 17.001 23h802c12 0 21.667 -4.33301 29 -13s11 -19.667 11 -33v-410z
" />
    <glyph glyph-name="registered" unicode="&#xae;" horiz-adv-x="1600" 
d="M1532 686c0 -198.667 -71.3311 -369.669 -213.998 -513.002s-313.334 -215 -512.001 -215c-200 0 -371.333 71.333 -514 214s-214 314 -214 514c0 198.667 71.667 369.334 215 512.001s314.333 214 513 214c201.333 0 372.666 -71.667 513.999 -215
s212 -313.666 212 -510.999zM1468 685.998c0 182.667 -65 338.667 -195 468s-285.667 194 -467 194c-182.667 0 -339 -65 -469 -195s-195 -285.667 -195 -467c0 -182.667 65.333 -339 196 -469s286.667 -195 468 -195c182.667 0 338.667 65.333 468 196s194 286.667 194 468
zM1314 315.998c0 -5.33301 -0.998047 -11.332 -2.99805 -17.999s-4.33301 -10 -7 -10c-26.667 0 -53.334 1.66699 -80.001 5s-50 5 -70 5c-26.667 0 -52 -1.33301 -76 -4s-48.667 -4 -74 -4l-142 272c-18.667 32 -36.334 53.667 -53.001 65s-41 17 -73 17v-188
c0 -34.667 6.33301 -61 19 -79s40.334 -29.667 83.001 -35c1.33301 0 3 -3.33301 5 -10s3 -12.667 3 -18c0 -4 -1 -9.33301 -3 -16s-3.66699 -10 -5 -10c-37.333 0 -71 1.33301 -101 4s-66.333 4 -109 4c-44 0 -82.667 -1.33301 -116 -4s-68.666 -4 -105.999 -4
c-1.33301 0 -3 3.33301 -5 10s-3 12 -3 16c0 5.33301 1 11 3 17s3.66699 9.66699 5 11c57.333 8 91 20.667 101 38s15 46 15 86v428c0 42.667 -5.33301 71.667 -16 87s-44 27.666 -100 36.999c-1.33301 0 -3 3.33301 -5 10s-3 12 -3 16c0 5.33301 1 11.333 3 18
s3.66699 10 5 10c37.333 0 75.666 -1.66699 114.999 -5s80.333 -5 123 -5c33.333 0 70 1.33301 110 4s78 4 114 4c96 0 170.667 -17 224 -51s80 -82.333 80 -145c0 -40 -14.333 -77.333 -43 -112s-70.334 -62 -125.001 -82l158 -248c18.667 -29.333 35.667 -50 51 -62
s46.333 -21.333 93 -28c1.33301 0 3 -3 5 -9s3 -11.667 3 -17zM952.004 859.999c0 49.333 -9.66699 86.333 -29 111s-55 37 -107 37c-29.333 0 -50 -4.66699 -62 -14s-18 -31.333 -18 -66v-224c8 0 16 -0.666992 24 -2s18.667 -2 32 -2c56 0 96.667 11.667 122 35
s38 65 38 125z" />
    <glyph glyph-name="macron" unicode="&#xaf;" 
d="M882 1242c0 -20 -3.99902 -39.333 -11.999 -58s-18 -28 -30 -28h-584c-12 0 -22 10 -30 30s-12 38.667 -12 56c0 16 3.66699 34.667 11 56s17.666 32 30.999 32h584c12 0 22 -10.333 30 -31s12 -39.667 12 -57z" />
    <glyph glyph-name="degree" unicode="&#xb0;" horiz-adv-x="696" 
d="M734 1196c0 -57.333 -20.667 -108 -62 -152s-96.666 -66 -165.999 -66c-66.667 0 -121.667 22.333 -165 67s-65 95 -65 151s21.667 106 65 150s98.333 66 165 66c65.333 0 119.666 -22 162.999 -66s65 -94 65 -150zM626 1196c0 37.333 -11.002 68.666 -33.002 93.999
s-51 38 -87 38c-32 0 -60 -12.667 -84 -38s-36 -56.666 -36 -93.999c0 -38.667 11.333 -70.667 34 -96s51.334 -38 86.001 -38s63.334 12.667 86.001 38s34 57.333 34 96z" />
    <glyph glyph-name="plusminus" unicode="&#xb1;" horiz-adv-x="896" 
d="M820 590c0 -14.667 -2.33301 -30.0029 -7 -46.0029s-11 -24 -19 -24h-272v-268c0 -8 -8 -14.333 -24 -19s-32 -7 -48 -7c-13.333 0 -28.333 2.33301 -45 7s-25 11 -25 19v268h-268c-8 0 -14.333 8 -19 24s-7 31.333 -7 46s2.33301 30.334 7 47.001s11 25 19 25h268v266
c0 6.66699 8 12.334 24 17.001s31.333 7 46 7c16 0 32 -2 48 -6s24 -10 24 -18v-266h272c8 0 14.333 -8.66699 19 -26s7 -32.666 7 -45.999zM820 69.9971c0 -14.667 -2.33301 -30 -7 -46s-11 -24 -19 -24h-682c-8 0 -14.333 8 -19 24s-7 31.333 -7 46s2.33301 30 7 46
s11 24 19 24h682c8 0 14.333 -8.33301 19 -25s7 -31.667 7 -45z" />
    <glyph glyph-name="uni00B2" unicode="&#xb2;" horiz-adv-x="730" 
d="M878 1414c0 -52 -20.999 -104.669 -62.999 -158.002s-113 -116 -213 -188l-170 -124h230c26.667 0 47.667 9.33301 63 28s29.666 37.334 42.999 56.001c1.33301 2.66699 3.66602 4.33398 6.99902 5.00098s7 1 11 1c12 0 25.667 -5.66699 41 -17s21 -19.666 17 -24.999
c-17.333 -28 -37 -65 -59 -111l-53 -113c-20 4 -55 6.66699 -105 8s-107 2 -171 2c-69.333 0 -128.333 -0.333008 -177 -1s-81.667 -2.33398 -99 -5.00098c-2.66699 0 -7 5.33301 -13 16s-9 19.334 -9 26.001l4 6c198.667 164 328 283.667 388 359s90 139.666 90 192.999
c0 32 -8.33301 56 -25 72s-39 24 -67 24c-36 0 -64 -6.66699 -84 -20s-46 -38 -78 -74l-4 -4c-1.33301 -1.33301 -2.66602 -2 -3.99902 -2c-8 0 -20.333 8 -37 24s-25 28 -25 36l2 2c37.333 56 81.333 101.667 132 137s106.667 53 168 53c80 0 143.333 -20.333 190 -61
s70 -89 70 -145z" />
    <glyph glyph-name="uni00B3" unicode="&#xb3;" horiz-adv-x="680" 
d="M836 1460c0 -48 -19.998 -92.9971 -59.998 -134.997s-103.333 -75.667 -190 -101c68 -2.66699 118 -20.667 150 -54s48 -78 48 -134c0 -89.333 -55.333 -172.333 -166 -249s-225.334 -115 -344.001 -115c-62.667 0 -109.334 9.33301 -140.001 28s-46 42.667 -46 72
c0 25.333 8.33301 48 25 68s43 30 79 30c16 0 30 -6 42 -18s22 -24.667 30 -38c6.66699 -10.667 15.334 -22.667 26.001 -36s21.334 -20 32.001 -20c81.333 0 140.666 28.667 177.999 86s56 119.333 56 186c0 41.333 -11.333 69.666 -34 84.999s-50 23 -82 23
c-24 0 -45.333 -2.33301 -64 -7s-30 -7 -34 -7s-8 5.33301 -12 16s-6 20 -6 28c0 4 1 9.66699 3 17s5 11.666 9 12.999c102.667 29.333 176.334 61.333 221.001 96s67 72 67 112c0 28 -6.33301 49 -19 63s-37.667 21 -75 21c-28 0 -50.333 -7.33301 -67 -22
s-34.334 -33.334 -53.001 -56.001l-3 -2c-2 -1.33301 -3.66699 -2 -5 -2c-6.66699 0 -17.334 7.33301 -32.001 22s-22 26 -22 34c0 1.33301 0.333008 3.33301 1 6s1 4.66699 1 6c20 32 55.333 64 106 96s102 48 154 48c54.667 0 106 -14 154 -42s72 -67.333 72 -118z" />
    <glyph glyph-name="Zcaron" unicode="&#x17d;" horiz-adv-x="1548" 
d="M1512 1352c0 -2.66699 -0.333984 -5.33594 -1.00098 -8.00293s-1.66699 -4.66699 -3 -6l-998 -1240h244c128 0 229 35.333 303 106s133.667 160.667 179 270c1.33301 4 7 7 17 9s18.333 3 25 3c12 0 23.333 -3.33301 34 -10s14.667 -12.667 12 -18l-65 -237
c-26 -96.667 -43.667 -176.334 -53 -239.001c-29.333 6.66699 -96.333 11.334 -201 14.001s-223.667 4 -357 4c-164 0 -297 -1 -399 -3s-171.667 -7 -209 -15c-9.33301 -1.33301 -16.666 1.66699 -21.999 9s-8 16.333 -8 27c0 2.66699 0.666992 5.33398 2 8.00098
s2 4.66699 2 6l1000 1240h-256c-104 0 -190 -30.667 -258 -92s-125.333 -144.666 -172 -249.999c-2.66699 -5.33301 -8.33398 -9 -17.001 -11s-15.667 -3 -21 -3c-13.333 0 -25.333 3.33301 -36 10s-15.334 12.667 -14.001 18l57 223
c24.667 96.667 40.334 170.334 47.001 221.001c34.667 -6.66699 98 -11.334 190 -14.001s215.333 -4 370 -4c158.667 0 286.334 1 383.001 3s161.667 7 195 15c8 2.66699 15 -0.666016 21 -9.99902s9 -18 9 -26zM1439 1870l-3.99707 -12.0039
c-1.33301 -4 -4 -7.33301 -8 -10l-454 -332c-5.33301 -4 -12 -8 -20 -12s-17.333 -6 -28 -6c-6.66699 0 -14 1.33301 -22 4s-14 7.33398 -18 14.001l-240 332c-2.66699 2.66699 -4 6 -4 10v12c0 5.33301 2 11.333 6 18s10 13.334 18 20.001c6.66699 5.33301 13.667 9 21 11
s13.666 3 18.999 3c4 0 8.66699 -1 14 -3s10 -3.66699 14 -5l246 -156l384 156c5.33301 2.66699 10.666 4.66699 15.999 6s10 2 14 2c5.33301 0 11 -1.33301 17 -4s10.333 -6 13 -10c5.33301 -5.33301 9.66602 -11.666 12.999 -18.999s4.33301 -13.666 3 -18.999z" />
    <glyph glyph-name="mu" unicode="&#xb5;" horiz-adv-x="1252" 
d="M1250 78c0 -8 -1.67188 -16.6631 -5.00488 -25.9961s-7 -14 -11 -14c-42.667 -4 -104.334 -13.333 -185.001 -28s-141 -28 -181 -40l-20 -7c-9.33301 -3.33301 -18.666 -5 -27.999 -5c-10.667 0 -19 3 -25 9s-9 11.667 -9 17l-10 140
c-30.667 -54.667 -66.667 -96 -108 -124s-85.333 -42 -132 -42c-13.333 0 -26.666 1 -39.999 3s-23.333 5 -30 9c-5.33301 2.66699 -10.666 4.66699 -15.999 6s-10.666 2 -15.999 2s-10 -2 -14 -6s-6 -10.667 -6 -20c0 -74.667 4 -130.667 12 -168s17.333 -65.333 28 -84
s20 -31 28 -37s12 -15 12 -27c0 -37.333 -44.667 -79 -134 -125s-154 -69 -194 -69c-14.667 0 -25.667 5.33301 -33 16s-11 22.667 -11 36c0 9.33301 1.33301 20.666 4 33.999s5.33398 40.666 8.00098 81.999c2.66699 33.333 5.33398 87 8.00098 161s4 162.333 4 265v588
c0 60 -10.333 100 -31 120s-57.667 29.333 -111 28c-4 0 -7.66699 4.66699 -11 14s-5 18.666 -5 27.999c0 6.66699 1.66699 16 5 28s7 18 11 18c42.667 0 113 4.33301 211 13s173 19.667 225 33c12 4 22.667 1.33301 32 -8s14 -16 14 -20v-616c0 -52 11 -91 33 -117
s55.667 -39 101 -39c32 0 60.667 13 86 39s46 58.333 62 97v382c0 57.333 -10.333 96.666 -31 117.999s-58.334 31.333 -113.001 30c-4 0 -7.66699 5 -11 15s-5 19 -5 27c0 6.66699 1.66699 16 5 28s7 18 11 18c44 0 116.333 4 217 12s174.334 18 221.001 30
c10.667 2.66699 20.667 -0.333008 30 -9s14 -15 14 -19v-612c0 -57.333 7.66699 -94 23 -110s50.333 -26 105 -30c4 0 7.66699 -5.66699 11 -17s5 -20.333 5 -27z" />
    <glyph glyph-name="paragraph" unicode="&#xb6;" horiz-adv-x="1368" 
d="M1476 1326c-2.66699 -9.33301 -5.99902 -19.001 -9.99902 -29.001s-8 -15 -12 -15h-184l-432 -1820c-1.33301 -4 -8 -7.66699 -20 -11s-22.667 -5 -32 -5s-19 1.66699 -29 5s-15 7 -15 11l432 1820h-120l-372 -1566c-22.667 -89.333 -63.667 -159 -123 -209
s-135.666 -75 -228.999 -75c-72 0 -133.333 21 -184 63s-76 99.667 -76 173c0 62.667 24 120.334 72 173.001s106.667 79 176 79c50.667 0 89 -12.333 115 -37s39 -59 39 -103c0 -40 -11 -76.333 -33 -109s-56.333 -49 -103 -49c-26.667 0 -47.334 7.33301 -62.001 22
s-22 33.334 -22 56.001c0 34.667 12.667 56.667 38 66s38 24.666 38 45.999c0 6.66699 -1.66699 11.667 -5 15s-9.66602 5 -18.999 5c-42.667 0 -76.334 -17.333 -101.001 -52s-37 -72 -37 -112c0 -50.667 17.667 -87.667 53 -111s77.666 -35 126.999 -35
c48 0 96.667 16.333 146 49s80.666 81 93.999 145l120 508h-100c-133.333 0 -247.666 49 -342.999 147s-143 209.667 -143 335c0 189.333 73.667 347.333 221 474s326.333 190 537 190h590c4 0 7 -5.66699 9 -17s1.66699 -20.333 -1 -27z" />
    <glyph glyph-name="periodcentered" unicode="&#xb7;" horiz-adv-x="618" 
d="M514 684c0 -50.667 -18 -93.667 -54 -129s-78.667 -53 -128 -53s-92 17.667 -128 53s-54 78.333 -54 129c0 49.333 18 92 54 128s78.667 54 128 54s92 -18 128 -54s54 -78.667 54 -128z" />
    <glyph glyph-name="zcaron" unicode="&#x17e;" horiz-adv-x="1024" 
d="M1006 838c0 -14.667 -9 -28.666 -27 -41.999s-45 -35.333 -81 -66l-562 -476c5.33301 6.66699 16.333 12 33 16s33 6 49 6c41.333 0 93.666 -22.333 156.999 -67s113 -67 149 -67c10.667 0 19.334 3.33301 26.001 10s10 15.334 10 26.001c0 16 -14 35.333 -42 58
s-42 50.667 -42 84c0 40 11.333 70.667 34 92s53.334 32 92.001 32c30.667 0 59 -13 85 -39s39 -65.667 39 -119c0 -54.667 -36 -123 -108 -205s-155.333 -123 -250 -123c-50.667 0 -110.334 15.333 -179.001 46s-126.334 46 -173.001 46c-41.333 0 -71 -15.333 -89 -46
s-38.333 -46 -61 -46c-16 0 -33.333 7.33301 -52 22s-28 32.667 -28 54c0 13.333 9 26 27 38s45.667 34.667 83 68l546 478c-8 -6.66699 -20 -12.334 -36 -17.001s-32 -7 -48 -7c-48 0 -98.333 16.333 -151 49s-101 49 -145 49c-14.667 0 -25.334 -3.33301 -32.001 -10
s-10 -15.334 -10 -26.001c0 -14.667 7 -27.667 21 -39s25.667 -20.333 35 -27c14.667 -10.667 27.334 -21.667 38.001 -33s16 -27 16 -47c0 -34.667 -10.333 -61.667 -31 -81s-49 -29 -85 -29c-32 0 -62 14.333 -90 43s-42 71 -42 127c0 78.667 38.333 155.667 115 231
s154.334 113 233.001 113c52 0 111 -18.333 177 -55s122.333 -55 169 -55c41.333 0 71.333 18.333 90 55s38.667 55 60 55c16 0 33.333 -7.33301 52 -22s28 -32.667 28 -54zM1075 1388c-1.33301 -2.66699 -2.83496 -5.83496 -4.50195 -9.50195s-4.16699 -7.16699 -7.5 -10.5
l-380 -332c-5.33301 -4.66699 -11.666 -8.83398 -18.999 -12.501s-15.666 -5.5 -24.999 -5.5c-8 0 -15.5 1.5 -22.5 4.5s-12.167 7.5 -15.5 13.5l-174 332c-1.33301 2.66699 -2.33301 6 -3 10s-1 7.33301 -1 10c0 5.33301 1.66699 11.333 5 18s9 13.334 17 20.001
c6 4.66699 12.833 8.16699 20.5 10.5s13.5 3.5 17.5 3.5s8.83301 -1.33301 14.5 -4s9.5 -4.66699 11.5 -6l182 -144l312 144c4 2 8.66699 4.16699 14 6.5s10 3.5 14 3.5c5.33301 0 10.666 -1.33301 15.999 -4s10 -6 14 -10c5.33301 -5.33301 9.33301 -11.666 12 -18.999
s3.33398 -13.666 2.00098 -18.999z" />
    <glyph glyph-name="uni00B9" unicode="&#xb9;" horiz-adv-x="604" 
d="M732 1604c0 -2.66699 -0.332031 -5.66504 -0.999023 -8.99805s-1 -6.33301 -1 -9l-170 -628c-2.66699 -9.33301 -4.33398 -18 -5.00098 -26s-1 -14.667 -1 -20c0 -17.333 6.66699 -29.333 20 -36s43.333 -12 90 -16c4 0 6.66699 -4.66699 8 -14s2 -16 2 -20
c0 -9.33301 -2.33301 -20.666 -7 -33.999s-10.334 -20 -17.001 -20c-32 0 -71.667 1 -119 3s-89 3 -125 3c-29.333 0 -66.666 -1 -111.999 -3s-81.333 -3 -108 -3c-2.66699 0 -5 4 -7 12s-3 14.667 -3 20c0 13.333 2.33301 25.666 7 36.999s10.334 17.666 17.001 18.999
c37.333 4 69 10.667 95 20s44.333 35.333 55 78l102 382c2.66699 9.33301 5 18 7 26s3 16.667 3 26c0 21.333 -5.66699 35 -17 41s-40.333 9 -87 9c-4 0 -6.66699 4.33301 -8 13s-2 15.667 -2 21c0 9.33301 1.66699 20 5 32s9.66602 20 18.999 24
c36 9.33301 87.333 21.666 154 36.999s117.334 31 152.001 47l15 5c6 2 11 3 15 3c5.33301 0 10.666 -2.33301 15.999 -7s8 -9 8 -13z" />
    <glyph glyph-name="ordmasculine" unicode="&#xba;" horiz-adv-x="720" 
d="M766 1208c0 -92 -34.332 -179.666 -102.999 -262.999s-164.334 -125 -287.001 -125c-72 0 -127.667 19.333 -167 58s-59 88 -59 148c0 92 33.333 179.333 100 262s162 124 286 124c73.333 0 130 -19.333 170 -58s60 -87.334 60 -146.001zM568.001 1286
c0 17.333 -3.00098 30.332 -9.00098 38.999s-15 13 -27 13c-48 0 -90.667 -50 -128 -150s-56 -180 -56 -240c0 -16 3.33301 -28.667 10 -38s15.334 -14 26.001 -14c44 0 85.667 48.333 125 145s59 178.334 59 245.001z" />
    <glyph glyph-name="guillemotright" unicode="&#xbb;" horiz-adv-x="960" 
d="M882 410c0 -1.33301 -0.331055 -4.66797 -0.998047 -10.001s-2.33398 -8.66602 -5.00098 -9.99902l-404 -334c-1.33301 0 -3 -0.666992 -5 -2s-3.66699 -2 -5 -2c-2.66699 0 -8 3 -16 9s-14 10.333 -18 13c-4 4 -9 11 -15 21s-8.33301 17 -7 21l196 294l-64 296
c-2.66699 6.66699 -1.33398 13.667 3.99902 21s11.333 14.333 18 21c2.66699 4 8 8.33301 16 13s14 7 18 7c1.33301 0 3 -0.333008 5 -1l3 -1l274 -336l4 -8c0 -1.33301 0.333008 -3.33301 1 -6s1 -4.66699 1 -6zM486.002 409.998l-0.00488281 -4
c0 -2.66699 -0.666992 -4.66699 -2 -6c0 -1.33301 -0.666992 -3.33301 -2 -6s-2.66602 -4 -3.99902 -4l-402 -334c-1.33301 0 -3 -0.666992 -5 -2s-3.66699 -2 -5 -2c-2.66699 0 -8 3 -16 9s-14 10.333 -18 13c-4 4 -9 11 -15 21s-8.33301 17 -7 21l196 294l-66 296
c-1.33301 6.66699 0.333984 13.667 5.00098 21s10.334 14.333 17.001 21c2.66699 2.66699 8.33398 6.66699 17.001 12s14.334 8 17.001 8c1.33301 0 3.33301 -0.333008 6 -1l4 -1l272 -336c1.33301 -1.33301 3 -4 5 -8s3 -8 3 -12z" />
    <glyph glyph-name="OE" unicode="&#x152;" horiz-adv-x="2210" 
d="M2152 1382c-5.33301 -34.667 -10 -72.6709 -14 -114.004s-7.33301 -78.666 -10 -111.999c-1.33301 -21.333 -3 -56.333 -5 -105s-3 -85 -3 -109c0 -4 -5.66699 -7.66699 -17 -11s-21 -5 -29 -5s-17 1.66699 -27 5s-15 7 -15 11
c-2.66699 78.667 -30.334 153.334 -83.001 224.001s-119.667 106 -201 106h-54c-30.667 0 -59.334 -5.66699 -86.001 -17s-46.667 -45 -60 -101l-94 -398h84c69.333 0 124 12.333 164 37s71.333 71 94 139c1.33301 4 7.33301 7.66699 18 11s19.334 5 26.001 5
c9.33301 0 19.333 -1.66699 30 -5s15.334 -7 14.001 -11c-12 -49.333 -22 -88 -30 -116s-18 -65.333 -30 -112c-9.33301 -38.667 -18 -81 -26 -127s-17.333 -90.333 -28 -133c-1.33301 -5.33301 -7.33301 -9.33301 -18 -12s-19.334 -4 -26.001 -4
c-10.667 0 -20.667 1.66699 -30 5s-14 7 -14 11c9.33301 78.667 -1 134 -31 166s-75 48 -135 48h-86l-98 -412c-2.66699 -10.667 -5 -23 -7 -37s-3 -24.333 -3 -31c0 -30.667 8.66699 -51.667 26 -63s39.333 -17 66 -17h132c97.333 0 187.333 36.667 270 110
s137.334 154 164.001 242c0 2.66699 4.66699 4.66699 14 6s16 2 20 2c10.667 0 23 -3.33301 37 -10s19.667 -12 17 -16c-16 -57.333 -34.667 -130.666 -56 -219.999s-38 -163.333 -50 -222c-73.333 2.66699 -175.333 5 -306 7s-236 3 -316 3
c-46.667 0 -140.334 -2.33301 -281.001 -7s-237 -7 -289 -7c-118.667 0 -221.667 14 -309 42s-159.666 68 -216.999 120c-53.333 49.333 -93 107.333 -119 174s-39 139.334 -39 218.001c0 236 92.667 434.333 278 595s404 241 656 241c52 0 144.333 -1 277 -3s227 -3 283 -3
c64 0 159 1 285 3s221.667 5 287 9zM1154 1158c9.33301 45.333 10.667 76.668 4 94.001s-44.667 26 -114 26c-170.667 0 -309.334 -81.333 -416.001 -244s-160 -351.334 -160 -566.001c0 -93.333 23.333 -180.666 70 -261.999s130 -122 250 -122
c38.667 0 68.334 6.66699 89.001 20s37 46.666 49 99.999z" />
    <glyph glyph-name="oe" unicode="&#x153;" horiz-adv-x="1538" 
d="M1482 696c0 -76 -44.999 -150.333 -134.999 -223s-215.667 -109 -377 -109c-4 -16 -6.66699 -33 -8 -51s-2 -33.667 -2 -47c0 -46.667 9.33301 -85.334 28 -116.001s50 -46 94 -46c52 0 100.667 16.667 146 50s81.333 68.666 108 105.999h5
c3.33301 0 6.33301 -0.666992 9 -2s5.66699 -3.66602 9 -6.99902l9 -9c5.33301 -5.33301 10.666 -12.333 15.999 -21s6.66602 -15 3.99902 -19c-32 -65.333 -88 -122.333 -168 -171s-154.667 -73 -224 -73c-57.333 0 -109.333 12.667 -156 38s-78.667 61.333 -96 108
c-46.667 -49.333 -99 -86 -157 -110s-124.333 -36 -199 -36c-112 0 -199.333 31.333 -262 94s-94 141.334 -94 236.001c0 157.333 57.333 301 172 431s256.667 195 426 195c66.667 0 126.334 -15 179.001 -45s87 -69.667 103 -119c45.333 46.667 100 85.667 164 117
s119.333 47 166 47c88 0 150 -22.333 186 -67s54 -95 54 -151zM1236 714c0 22.667 -3 39.667 -9 51s-19.667 17 -41 17c-41.333 0 -82 -33 -122 -99s-66 -140.333 -78 -223c72 0 131.667 28.333 179 85s71 113 71 169zM708.001 732c0 28 -4.99805 48.999 -14.998 62.999
s-25.667 21 -47 21c-36 0 -72.667 -23.333 -110 -70s-72.666 -108.667 -105.999 -186c-32 -74.667 -57 -151.334 -75 -230.001s-27 -142 -27 -190c0 -26.667 5 -47.667 15 -63s25 -23 45 -23c37.333 0 75.666 25.333 114.999 76s73.666 111.334 102.999 182.001
s53.666 144.334 72.999 221.001s29 143 29 199z" />
    <glyph glyph-name="Ydieresis" unicode="&#x178;" horiz-adv-x="1598" 
d="M1726 1136c0 -5.33301 -2.66504 -11.6689 -7.99805 -19.002s-11.333 -13 -18 -17c-8 -4 -17.333 -7.66699 -28 -11s-17.334 -3 -20.001 1c-16 38.667 -43 68.334 -81 89.001s-83 31 -135 31c-101.333 0 -199 -75 -293 -225s-165.667 -328.333 -215 -535l-48 -204
c-2.66699 -10.667 -5 -23 -7 -37s-3 -24.333 -3 -31c0 -28 7.66699 -49.667 23 -65s59 -27 131 -35c4 0 6.66699 -4.66699 8 -14s2 -16 2 -20c0 -9.33301 -2.33301 -20.666 -7 -33.999s-9.66699 -20 -15 -20c-64 0 -131.333 1.66699 -202 5s-132 5 -184 5
s-113.333 -1.66699 -184 -5s-134.667 -5 -192 -5c-2.66699 0 -5.33398 3.33301 -8.00098 10s-4 14.667 -4 24s2.66699 20.333 8 33s10.666 19.667 15.999 21c86.667 9.33301 142.334 24.333 167.001 45s43.667 61.667 57 123l58 246c30.667 132 46 240.333 46 325
s-10 153 -30 205s-47.333 89.333 -82 112s-72 34 -112 34c-45.333 0 -83.333 -9 -114 -27s-64.667 -50.333 -102 -97c-4 -4 -10.333 -3 -19 3s-17 13 -25 21c-5.33301 6.66699 -9.66602 14 -12.999 22s-4.33301 14 -3 18c53.333 93.333 119.666 167.333 198.999 222
s161.666 82 246.999 82c98.667 0 187.667 -47 267 -141s119 -211.667 119 -353c0 -10.667 -0.333008 -23 -1 -37s-1.66699 -28.333 -3 -43c70.667 168 154.334 305.667 251.001 413s193 161 289 161c76 0 139 -31 189 -93s76.333 -123 79 -183zM1463 1702
c0 -49.333 -18.333 -92.666 -55 -129.999s-80.334 -56 -131.001 -56c-49.333 0 -92.666 18.667 -129.999 56s-56 80.666 -56 129.999s18.667 92.666 56 129.999s80.666 56 129.999 56c50.667 0 94.334 -18.667 131.001 -56s55 -80.666 55 -129.999zM959.002 1702
c0 -49.333 -18.667 -92.666 -56 -129.999s-80.666 -56 -129.999 -56s-92.666 18.667 -129.999 56s-56 80.666 -56 129.999s18.667 92.666 56 129.999s80.666 56 129.999 56s92.666 -18.667 129.999 -56s56 -80.666 56 -129.999z" />
    <glyph glyph-name="questiondown.standard" unicode="&#xbf;" horiz-adv-x="958" 
d="M860 1256c0 -41.333 -15.333 -77.6699 -46 -109.003s-67.334 -47 -110.001 -47s-79.334 15.333 -110.001 46s-46 67.334 -46 110.001s15.333 79.334 46 110.001s67.334 46 110.001 46s79.334 -15.667 110.001 -47s46 -67.666 46 -108.999zM794 795.996
c0 -84 -31.333 -152.33 -94 -204.997s-126 -96.334 -190 -131.001c-65.333 -34.667 -129 -74 -191 -118s-93 -94 -93 -150c0 -40 8.66699 -73 26 -99s46 -39 86 -39c48 0 84.667 18 110 54s38 82.667 38 140c0 48 15.667 85 47 111s66.333 39 105 39
c44 0 80.667 -13.333 110 -40s44 -64.667 44 -114c0 -64 -43 -127.667 -129 -191s-185 -95 -297 -95c-117.333 0 -209.333 35.667 -276 107s-100 149 -100 233c0 97.333 28 170.333 84 219s118 89.667 186 123c69.333 33.333 131.666 64.666 186.999 93.999
s83 77.333 83 144c0 20 -4.66699 33.333 -14 40s-22.666 10 -39.999 10c-26.667 0 -51 -9.66699 -73 -29s-34.333 -29 -37 -29c-6.66699 0 -15.334 8.66699 -26.001 26s-16 30.666 -16 39.999c0 14.667 22.333 32.667 67 54s92.334 32 143.001 32
c80 0 143.333 -22.333 190 -67s70 -97.667 70 -159z" />
    <glyph glyph-name="Agrave" unicode="&#xc0;" horiz-adv-x="1548" 
d="M1384 44c0 -9.33301 -2.33105 -20.6699 -6.99805 -34.0029s-10.334 -20 -17.001 -20c-64 0 -127.667 1.66699 -191 5s-122.333 5 -177 5c-60 0 -126.667 -1.66699 -200 -5s-142 -5 -206 -5c-1.33301 0 -3.33301 3.33301 -6 10s-4 14.667 -4 24s2.66699 20.333 8 33
s10.666 19.667 15.999 21c90.667 5.33301 144.334 21.333 161.001 48s25 68 25 124l4 168h-386l-120 -148c-17.333 -21.333 -32.666 -43.666 -45.999 -66.999s-20 -42.333 -20 -57c0 -20 6.33301 -36 19 -48s39 -18.667 79 -20c2.66699 0 5 -4.66699 7 -14s3 -16 3 -20
c0 -9.33301 -2.33301 -20.666 -7 -33.999s-10.334 -20 -17.001 -20c-57.333 0 -105 1.66699 -143 5s-84.333 5 -139 5c-44 0 -81.667 -1.66699 -113 -5s-70.333 -5 -117 -5c-1.33301 0 -3.33301 3.33301 -6 10s-4 14.667 -4 24s2.33301 20.333 7 33s9.66699 19.667 15 21
c81.333 8 147.333 28.667 198 62s100 79.333 148 138l930 1118c0 4 6.66699 7.66699 20 11s26 5 38 5c14.667 0 28.667 -2 42 -6s20 -7.33301 20 -10l-14 -1132c-1.33301 -69.333 10.667 -115.666 36 -138.999s76.666 -39 153.999 -47c2.66699 0 5 -4.66699 7 -14
s3 -16 3 -20zM800.002 911.996l-318 -398h310zM1217 1550c0 -4 -1.99902 -10.334 -5.99902 -19.001s-8 -15 -12 -19c-5.33301 -4 -13.333 -8 -24 -12s-17.334 -6 -20.001 -6s-5 0.666992 -7 2l-3 2l-370 240c-12 8 -20.667 18.667 -26 32s-8 27.333 -8 42
c0 20 5 40.333 15 61s21 37.667 33 51c10.667 12 27.334 23.333 50.001 34s44.667 16 66 16c20 0 35.667 -3 47 -9s19.666 -14.333 24.999 -25l238 -372c1.33301 -1.33301 2 -3.66602 2 -6.99902v-11z" />
    <glyph glyph-name="Aacute" unicode="&#xc1;" horiz-adv-x="1548" 
d="M1384 44c0 -9.33301 -2.33105 -20.6699 -6.99805 -34.0029s-10.334 -20 -17.001 -20c-64 0 -127.667 1.66699 -191 5s-122.333 5 -177 5c-60 0 -126.667 -1.66699 -200 -5s-142 -5 -206 -5c-1.33301 0 -3.33301 3.33301 -6 10s-4 14.667 -4 24s2.66699 20.333 8 33
s10.666 19.667 15.999 21c90.667 5.33301 144.334 21.333 161.001 48s25 68 25 124l4 168h-386l-120 -148c-17.333 -21.333 -32.666 -43.666 -45.999 -66.999s-20 -42.333 -20 -57c0 -20 6.33301 -36 19 -48s39 -18.667 79 -20c2.66699 0 5 -4.66699 7 -14s3 -16 3 -20
c0 -9.33301 -2.33301 -20.666 -7 -33.999s-10.334 -20 -17.001 -20c-57.333 0 -105 1.66699 -143 5s-84.333 5 -139 5c-44 0 -81.667 -1.66699 -113 -5s-70.333 -5 -117 -5c-1.33301 0 -3.33301 3.33301 -6 10s-4 14.667 -4 24s2.33301 20.333 7 33s9.66699 19.667 15 21
c81.333 8 147.333 28.667 198 62s100 79.333 148 138l930 1118c0 4 6.66699 7.66699 20 11s26 5 38 5c14.667 0 28.667 -2 42 -6s20 -7.33301 20 -10l-14 -1132c-1.33301 -69.333 10.667 -115.666 36 -138.999s76.666 -39 153.999 -47c2.66699 0 5 -4.66699 7 -14
s3 -16 3 -20zM800.002 911.996l-318 -398h310zM1632 1812c0 -13.333 -2.99805 -27.334 -8.99805 -42.001s-15 -25.334 -27 -32.001l-368 -240l-4 -2c-2.66699 -1.33301 -4.66699 -2 -6 -2l-7 1c-4.66699 0.666992 -9 2.33398 -13 5.00098l-12 4c-4 1.33301 -8 4 -12 8
c-4 5.33301 -8.33301 12 -13 20s-7 14 -7 18s0.333008 7.33301 1 10s1.66699 5.33398 3 8.00098l236 372c5.33301 9.33301 13.666 17.333 24.999 24s27.666 10 48.999 10c20 0 41 -5 63 -15s39.667 -21.667 53 -35c12 -12 23 -29 33 -51s15 -42.333 15 -61z" />
    <glyph glyph-name="Acircumflex" unicode="&#xc2;" horiz-adv-x="1548" 
d="M1384 44c0 -9.33301 -2.33105 -20.6699 -6.99805 -34.0029s-10.334 -20 -17.001 -20c-64 0 -127.667 1.66699 -191 5s-122.333 5 -177 5c-60 0 -126.667 -1.66699 -200 -5s-142 -5 -206 -5c-1.33301 0 -3.33301 3.33301 -6 10s-4 14.667 -4 24s2.66699 20.333 8 33
s10.666 19.667 15.999 21c90.667 5.33301 144.334 21.333 161.001 48s25 68 25 124l4 168h-386l-120 -148c-17.333 -21.333 -32.666 -43.666 -45.999 -66.999s-20 -42.333 -20 -57c0 -20 6.33301 -36 19 -48s39 -18.667 79 -20c2.66699 0 5 -4.66699 7 -14s3 -16 3 -20
c0 -9.33301 -2.33301 -20.666 -7 -33.999s-10.334 -20 -17.001 -20c-57.333 0 -105 1.66699 -143 5s-84.333 5 -139 5c-44 0 -81.667 -1.66699 -113 -5s-70.333 -5 -117 -5c-1.33301 0 -3.33301 3.33301 -6 10s-4 14.667 -4 24s2.33301 20.333 7 33s9.66699 19.667 15 21
c81.333 8 147.333 28.667 198 62s100 79.333 148 138l930 1118c0 4 6.66699 7.66699 20 11s26 5 38 5c14.667 0 28.667 -2 42 -6s20 -7.33301 20 -10l-14 -1132c-1.33301 -69.333 10.667 -115.666 36 -138.999s76.666 -39 153.999 -47c2.66699 0 5 -4.66699 7 -14
s3 -16 3 -20zM800.002 911.996l-318 -398h310zM1541 1552c-1.33301 -6.66699 -3.66895 -13.668 -7.00195 -21.001s-9 -13.666 -17 -18.999c-6.66699 -4 -13.667 -7.33301 -21 -10s-13.666 -4 -18.999 -4c-4 0 -8.33301 1 -13 3s-9 4.33301 -13 7l-248 154l-384 -154
c-4 -1.33301 -9 -3.33301 -15 -6s-11 -4 -15 -4s-8.66699 1 -14 3s-10.666 5.66699 -15.999 11c-8 8 -12.333 15 -13 21s-1 12.333 -1 19c0 4 1.33301 7.66699 4 11s5.33398 6.33301 8.00098 9l454 332c4 5.33301 11 10 21 14s18.333 6 25 6c9.33301 0 18 -2 26 -6
s13.333 -8.66699 16 -14l238 -332c1.33301 -2.66699 2.66602 -5.66699 3.99902 -9s1.33301 -7 0 -11z" />
    <glyph glyph-name="Atilde" unicode="&#xc3;" horiz-adv-x="1548" 
d="M1384 44c0 -9.33301 -2.33105 -20.6699 -6.99805 -34.0029s-10.334 -20 -17.001 -20c-64 0 -127.667 1.66699 -191 5s-122.333 5 -177 5c-60 0 -126.667 -1.66699 -200 -5s-142 -5 -206 -5c-1.33301 0 -3.33301 3.33301 -6 10s-4 14.667 -4 24s2.66699 20.333 8 33
s10.666 19.667 15.999 21c90.667 5.33301 144.334 21.333 161.001 48s25 68 25 124l4 168h-386l-120 -148c-17.333 -21.333 -32.666 -43.666 -45.999 -66.999s-20 -42.333 -20 -57c0 -20 6.33301 -36 19 -48s39 -18.667 79 -20c2.66699 0 5 -4.66699 7 -14s3 -16 3 -20
c0 -9.33301 -2.33301 -20.666 -7 -33.999s-10.334 -20 -17.001 -20c-57.333 0 -105 1.66699 -143 5s-84.333 5 -139 5c-44 0 -81.667 -1.66699 -113 -5s-70.333 -5 -117 -5c-1.33301 0 -3.33301 3.33301 -6 10s-4 14.667 -4 24s2.33301 20.333 7 33s9.66699 19.667 15 21
c81.333 8 147.333 28.667 198 62s100 79.333 148 138l930 1118c0 4 6.66699 7.66699 20 11s26 5 38 5c14.667 0 28.667 -2 42 -6s20 -7.33301 20 -10l-14 -1132c-1.33301 -69.333 10.667 -115.666 36 -138.999s76.666 -39 153.999 -47c2.66699 0 5 -4.66699 7 -14
s3 -16 3 -20zM800.002 911.996l-318 -398h310zM1651 1874c-18.667 -121.333 -49.668 -204.67 -93.001 -250.003s-100.333 -62.666 -171 -51.999l-396 56c-40 5.33301 -79.333 -0.666992 -118 -18s-72 -50.666 -100 -99.999l-3 -6c-0.666992 -1.33301 -5.66699 -2 -15 -2
c-13.333 0 -27 4.66699 -41 14s-18.333 26 -13 50c21.333 109.333 62 191.666 122 246.999s133.333 76.333 220 63l358 -56c40 -5.33301 74.667 0.333984 104 17.001s54 47.667 74 93c0 2.66699 1.33301 5 4 7s7.33398 3 14.001 3c12 0 25 -5.66699 39 -17
s19 -27.666 15 -48.999z" />
    <glyph glyph-name="Adieresis" unicode="&#xc4;" horiz-adv-x="1548" 
d="M1384 44c0 -9.33301 -2.33105 -20.6699 -6.99805 -34.0029s-10.334 -20 -17.001 -20c-64 0 -127.667 1.66699 -191 5s-122.333 5 -177 5c-60 0 -126.667 -1.66699 -200 -5s-142 -5 -206 -5c-1.33301 0 -3.33301 3.33301 -6 10s-4 14.667 -4 24s2.66699 20.333 8 33
s10.666 19.667 15.999 21c90.667 5.33301 144.334 21.333 161.001 48s25 68 25 124l4 168h-386l-120 -148c-17.333 -21.333 -32.666 -43.666 -45.999 -66.999s-20 -42.333 -20 -57c0 -20 6.33301 -36 19 -48s39 -18.667 79 -20c2.66699 0 5 -4.66699 7 -14s3 -16 3 -20
c0 -9.33301 -2.33301 -20.666 -7 -33.999s-10.334 -20 -17.001 -20c-57.333 0 -105 1.66699 -143 5s-84.333 5 -139 5c-44 0 -81.667 -1.66699 -113 -5s-70.333 -5 -117 -5c-1.33301 0 -3.33301 3.33301 -6 10s-4 14.667 -4 24s2.33301 20.333 7 33s9.66699 19.667 15 21
c81.333 8 147.333 28.667 198 62s100 79.333 148 138l930 1118c0 4 6.66699 7.66699 20 11s26 5 38 5c14.667 0 28.667 -2 42 -6s20 -7.33301 20 -10l-14 -1132c-1.33301 -69.333 10.667 -115.666 36 -138.999s76.666 -39 153.999 -47c2.66699 0 5 -4.66699 7 -14
s3 -16 3 -20zM800.002 911.996l-318 -398h310zM1607 1702c0 -49.333 -18.333 -92.666 -55 -129.999s-80.334 -56 -131.001 -56c-49.333 0 -92.666 18.667 -129.999 56s-56 80.666 -56 129.999s18.667 92.666 56 129.999s80.666 56 129.999 56
c50.667 0 94.334 -18.667 131.001 -56s55 -80.666 55 -129.999zM1103 1702c0 -49.333 -18.667 -92.666 -56 -129.999s-80.666 -56 -129.999 -56s-92.666 18.667 -129.999 56s-56 80.666 -56 129.999s18.667 92.666 56 129.999s80.666 56 129.999 56
s92.666 -18.667 129.999 -56s56 -80.666 56 -129.999z" />
    <glyph glyph-name="Aring" unicode="&#xc5;" horiz-adv-x="1548" 
d="M800 912l-318 -398h310zM1306 1540c0 40 -11.668 73.001 -35.001 99.001s-53.666 39 -90.999 39c-36 0 -66 -13.333 -90 -40s-36 -59.334 -36 -98.001c0 -41.333 11.667 -75 35 -101s53.666 -39 90.999 -39c38.667 0 69.334 12.667 92.001 38s34 59.333 34 102z
M1042 1352c-33.333 22.667 -58.665 49.9961 -75.998 81.9961s-26 67.333 -26 106c0 58.667 22.333 111 67 157s102.334 69 173.001 69c69.333 0 126.666 -23 171.999 -69s68 -98.333 68 -157c0 -56 -20.667 -107 -62 -153s-95.333 -71 -162 -75l-12 -1048
c-1.33301 -69.333 10.667 -115.666 36 -138.999s76.666 -39 153.999 -47c2.66699 0 5 -4.66699 7 -14s3 -16 3 -20c0 -9.33301 -2.33301 -20.666 -7 -33.999s-10.334 -20 -17.001 -20c-64 0 -127.667 1.66699 -191 5s-122.333 5 -177 5c-60 0 -126.667 -1.66699 -200 -5
s-142 -5 -206 -5c-1.33301 0 -3.33301 3.33301 -6 10s-4 14.667 -4 24s2.66699 20.333 8 33s10.666 19.667 15.999 21c90.667 5.33301 144.334 21.333 161.001 48s25 68 25 124l4 168h-386l-120 -148c-17.333 -21.333 -32.666 -43.666 -45.999 -66.999s-20 -42.333 -20 -57
c0 -20 6.33301 -36 19 -48s39 -18.667 79 -20c2.66699 0 5 -4.66699 7 -14s3 -16 3 -20c0 -9.33301 -2.33301 -20.666 -7 -33.999s-10.334 -20 -17.001 -20c-57.333 0 -105 1.66699 -143 5s-84.333 5 -139 5c-44 0 -81.667 -1.66699 -113 -5s-70.333 -5 -117 -5
c-1.33301 0 -3.33301 3.33301 -6 10s-4 14.667 -4 24s2.33301 20.333 7 33s9.66699 19.667 15 21c81.333 8 147.333 28.667 198 62s100 79.333 148 138z" />
    <glyph glyph-name="AE" unicode="&#xc6;" horiz-adv-x="2108" 
d="M2050 1380c-5.33301 -33.333 -10 -71.6699 -14 -115.003s-6.66699 -79.666 -8 -108.999c-2.66699 -22.667 -4.66699 -58 -6 -106s-2.66602 -84 -3.99902 -108c0 -4 -5.66699 -7.66699 -17 -11s-20.333 -5 -27 -5c-8 0 -17.333 1.66699 -28 5s-16 7 -16 11
c-2.66699 80 -30 155 -82 225s-118.667 105 -200 105h-56c-29.333 0 -57.333 -5.66699 -84 -17s-47.334 -45 -62.001 -101l-94 -398h86c69.333 0 123.666 12.333 162.999 37s70.333 71 93 139c1.33301 4 7 7.66699 17 11s19.667 5 29 5s19.333 -1.66699 30 -5
s15.334 -7 14.001 -11c-9.33301 -37.333 -19.666 -76.333 -30.999 -117s-21 -77.667 -29 -111c-9.33301 -38.667 -18 -81 -26 -127s-17.333 -90.333 -28 -133c-2.66699 -5.33301 -9.33398 -9.33301 -20.001 -12s-18.667 -4 -24 -4c-13.333 0 -24 1.66699 -32 5s-12 7 -12 11
c8 78.667 -3 134 -33 166s-75 48 -135 48h-84l-100 -412c-2.66699 -10.667 -5 -23 -7 -37s-3 -24.333 -3 -31c0 -30.667 8.66699 -51.667 26 -63s39.333 -17 66 -17h132c98.667 0 189.667 37 273 111s137.666 154.333 162.999 241c0 2.66699 4.33301 4.66699 13 6s15 2 19 2
c12 0 24.667 -3.33301 38 -10s19.333 -12 18 -16c-16 -57.333 -35 -130.666 -57 -219.999s-39 -163.333 -51 -222c-73.333 2.66699 -175.333 5 -306 7s-236 3 -316 3s-185.333 -1.33301 -316 -4s-232.667 -4.66699 -306 -6c-2.66699 0 -5.33398 3.33301 -8.00098 10
s-4 14.667 -4 24s4 20.333 12 33s14.667 19.667 20 21c78.667 9.33301 128.667 26 150 50s38 63.333 50 118l56 252h-424l-184 -228c-17.333 -21.333 -33 -43.666 -47 -66.999s-21 -42.333 -21 -57c0 -20 6.66699 -36 20 -48s40 -18.667 80 -20c2.66699 0 5 -4.66699 7 -14
s3 -16 3 -20c0 -9.33301 -2.66699 -20.666 -8 -33.999s-10.666 -20 -15.999 -20c-58.667 0 -107 1.66699 -145 5s-83.667 5 -137 5c-44 0 -82 -1.66699 -114 -5s-70.667 -5 -116 -5c-2.66699 0 -5 3.33301 -7 10s-3 14.667 -3 24s2.33301 20.333 7 33s9.66699 19.667 15 21
c81.333 8 147.333 28.667 198 62s100 79.333 148 138l700 840c13.333 17.333 23.333 32.333 30 45s10 25.667 10 39c0 24 -10 43 -30 57s-60 25 -120 33c-4 1.33301 -6.66699 6.33301 -8 15s-2 15 -2 19c0 9.33301 3.33301 20.666 10 33.999s13.334 20 20.001 20
c29.333 0 74.333 -1 135 -3s135 -3 223 -3c54.667 0 121 -0.666992 199 -2s133 -2 165 -2c62.667 0 157 1 283 3s221.667 4.33301 287 7zM1078 1262l-534 -668h372z" />
    <glyph glyph-name="Ccedilla" unicode="&#xc7;" horiz-adv-x="1516" 
d="M1426 1392c-12 -64 -25.3311 -145 -39.998 -243s-25.334 -171 -32.001 -219c0 -5.33301 -5.66699 -9.66602 -17 -12.999s-20.333 -5 -27 -5c-9.33301 0 -18.666 1.66699 -27.999 5s-14.666 7.66602 -15.999 12.999c-12 114.667 -32 205 -60 271s-84 99 -168 99
c-58.667 0 -121.334 -21 -188.001 -63s-129.334 -101.667 -188.001 -179c-54.667 -72 -100.667 -161.333 -138 -268s-56 -216 -56 -328c0 -144 30 -248 90 -312s132.667 -96 218 -96c92 0 178.667 42.667 260 128s143.333 182 186 290c2.66699 5.33301 9 9.33301 19 12
s19.667 4 29 4c6.66699 0 15.667 -1.66699 27 -5s15.666 -7 12.999 -11c-13.333 -50.667 -30.333 -122.334 -51 -215.001s-37.667 -171.667 -51 -237c-48 -12 -108.667 -25.333 -182 -40s-166 -22 -278 -22c-193.333 0 -352 52 -476 156s-186 243.333 -186 418
c0 110.667 24.333 219.334 73 326.001s121.667 202.667 219 288c94.667 81.333 211.667 146 351 194s297 72 473 72c46.667 0 87 -1.66699 121 -5s68.333 -8.33301 103 -15zM820.002 -282c0 -57.333 -29.3311 -102.001 -87.998 -134.001s-120 -48 -184 -48
c-38.667 0 -69.667 8.33301 -93 25s-35 35 -35 55c0 14.667 5 28.667 15 42s25 20 45 20c25.333 0 47.333 -10 66 -30s38.667 -30 60 -30c16 0 27.667 4.66699 35 14s11 26 11 50s-12.667 47.333 -38 70s-52 41.334 -80 56.001c-5.33301 2.66699 -10 6.66699 -14 12
s-6 11.333 -6 18c0 2.66699 0.666992 5.66699 2 9s2.66602 6.33301 3.99902 9l118 174h112l-56 -98c-2.66699 -2.66699 -4.33398 -5.66699 -5.00098 -9s-1 -6.33301 -1 -9c0 -5.33301 1.33301 -10.333 4 -15s8 -9.66699 16 -15c32 -20 58.667 -41 80 -63s32 -56.333 32 -103
z" />
    <glyph glyph-name="Egrave" unicode="&#xc8;" horiz-adv-x="1444" 
d="M1388 1380c-5.33301 -32 -9.99707 -69.333 -13.9971 -112s-7.33301 -80 -10 -112c-1.33301 -21.333 -3 -56.333 -5 -105s-3 -85 -3 -109c0 -4 -5.66699 -7.66699 -17 -11s-21 -5 -29 -5c-6.66699 0 -15.334 1.66699 -26.001 5s-16 7 -16 11c-2.66699 80 -30 155 -82 225
s-118.667 105 -200 105h-56c-29.333 0 -57.333 -5.66699 -84 -17s-47.334 -45 -62.001 -101l-94 -398h86c66.667 0 120 12 160 36s72 70.667 96 140c1.33301 4 7.33301 7.66699 18 11s19.334 5 26.001 5c9.33301 0 19.666 -1.66699 30.999 -5s15.666 -7 12.999 -11l-30 -117
c-10.667 -40.667 -20 -77.667 -28 -111c-13.333 -52 -22.333 -94.667 -27 -128s-13.667 -77.333 -27 -132c-2.66699 -5.33301 -9.33398 -9.33301 -20.001 -12s-18.667 -4 -24 -4c-13.333 0 -24 1.66699 -32 5s-12 7 -12 11c8 78.667 -3 134 -33 166s-75 48 -135 48h-86
l-98 -412c-2.66699 -10.667 -5 -23 -7 -37s-3 -24.333 -3 -31c0 -30.667 8.66699 -51.667 26 -63s39.333 -17 66 -17h132c98.667 0 189.334 37 272.001 111s136.667 154.333 162 241c0 2.66699 4.66699 4.66699 14 6s16 2 20 2c10.667 0 23 -3.33301 37 -10
s19.667 -12 17 -16c-16 -57.333 -34.667 -130.666 -56 -219.999s-38 -163.333 -50 -222c-73.333 2.66699 -175.333 5 -306 7s-236 3 -316 3s-185.333 -1.33301 -316 -4s-233.334 -4.66699 -308.001 -6c-1.33301 0 -3.33301 3.33301 -6 10s-4 14.667 -4 24s4 20.333 12 33
s14.667 19.667 20 21c78.667 9.33301 128.667 26 150 50s38 63.333 50 118l208 878l8 35c2.66699 11.333 4 22.333 4 33c0 29.333 -6.33301 51 -19 65s-55 25.667 -127 35c-4 1.33301 -6.66699 6.33301 -8 15s-2 15 -2 19c0 9.33301 3.33301 20.666 10 33.999
s13.334 20 20.001 20l270 -6c120 -2.66699 212.667 -4 278 -4c64 0 159 1 285 3s221.667 4.33301 287 7zM1053 1550c0 -4 -1.99902 -10.334 -5.99902 -19.001s-8 -15 -12 -19c-5.33301 -4 -13.333 -8 -24 -12s-17.334 -6 -20.001 -6s-5 0.666992 -7 2l-3 2l-370 240
c-12 8 -20.667 18.667 -26 32s-8 27.333 -8 42c0 20 5 40.333 15 61s21 37.667 33 51c10.667 12 27.334 23.333 50.001 34s44.667 16 66 16c20 0 35.667 -3 47 -9s19.666 -14.333 24.999 -25l238 -372c1.33301 -1.33301 2 -3.66602 2 -6.99902v-11z" />
    <glyph glyph-name="Eacute" unicode="&#xc9;" horiz-adv-x="1444" 
d="M1388 1380c-5.33301 -32 -9.99707 -69.333 -13.9971 -112s-7.33301 -80 -10 -112c-1.33301 -21.333 -3 -56.333 -5 -105s-3 -85 -3 -109c0 -4 -5.66699 -7.66699 -17 -11s-21 -5 -29 -5c-6.66699 0 -15.334 1.66699 -26.001 5s-16 7 -16 11c-2.66699 80 -30 155 -82 225
s-118.667 105 -200 105h-56c-29.333 0 -57.333 -5.66699 -84 -17s-47.334 -45 -62.001 -101l-94 -398h86c66.667 0 120 12 160 36s72 70.667 96 140c1.33301 4 7.33301 7.66699 18 11s19.334 5 26.001 5c9.33301 0 19.666 -1.66699 30.999 -5s15.666 -7 12.999 -11l-30 -117
c-10.667 -40.667 -20 -77.667 -28 -111c-13.333 -52 -22.333 -94.667 -27 -128s-13.667 -77.333 -27 -132c-2.66699 -5.33301 -9.33398 -9.33301 -20.001 -12s-18.667 -4 -24 -4c-13.333 0 -24 1.66699 -32 5s-12 7 -12 11c8 78.667 -3 134 -33 166s-75 48 -135 48h-86
l-98 -412c-2.66699 -10.667 -5 -23 -7 -37s-3 -24.333 -3 -31c0 -30.667 8.66699 -51.667 26 -63s39.333 -17 66 -17h132c98.667 0 189.334 37 272.001 111s136.667 154.333 162 241c0 2.66699 4.66699 4.66699 14 6s16 2 20 2c10.667 0 23 -3.33301 37 -10
s19.667 -12 17 -16c-16 -57.333 -34.667 -130.666 -56 -219.999s-38 -163.333 -50 -222c-73.333 2.66699 -175.333 5 -306 7s-236 3 -316 3s-185.333 -1.33301 -316 -4s-233.334 -4.66699 -308.001 -6c-1.33301 0 -3.33301 3.33301 -6 10s-4 14.667 -4 24s4 20.333 12 33
s14.667 19.667 20 21c78.667 9.33301 128.667 26 150 50s38 63.333 50 118l208 878l8 35c2.66699 11.333 4 22.333 4 33c0 29.333 -6.33301 51 -19 65s-55 25.667 -127 35c-4 1.33301 -6.66699 6.33301 -8 15s-2 15 -2 19c0 9.33301 3.33301 20.666 10 33.999
s13.334 20 20.001 20l270 -6c120 -2.66699 212.667 -4 278 -4c64 0 159 1 285 3s221.667 4.33301 287 7zM1256 1812c0 -13.333 -2.99805 -27.334 -8.99805 -42.001s-15 -25.334 -27 -32.001l-368 -240l-4 -2c-2.66699 -1.33301 -4.66699 -2 -6 -2l-7 1
c-4.66699 0.666992 -9 2.33398 -13 5.00098l-12 4c-4 1.33301 -8 4 -12 8c-4 5.33301 -8.33301 12 -13 20s-7 14 -7 18s0.333008 7.33301 1 10s1.66699 5.33398 3 8.00098l236 372c5.33301 9.33301 13.666 17.333 24.999 24s27.666 10 48.999 10c20 0 41 -5 63 -15
s39.667 -21.667 53 -35c12 -12 23 -29 33 -51s15 -42.333 15 -61z" />
    <glyph glyph-name="Ecircumflex" unicode="&#xca;" horiz-adv-x="1444" 
d="M1388 1380c-5.33301 -32 -9.99707 -69.333 -13.9971 -112s-7.33301 -80 -10 -112c-1.33301 -21.333 -3 -56.333 -5 -105s-3 -85 -3 -109c0 -4 -5.66699 -7.66699 -17 -11s-21 -5 -29 -5c-6.66699 0 -15.334 1.66699 -26.001 5s-16 7 -16 11c-2.66699 80 -30 155 -82 225
s-118.667 105 -200 105h-56c-29.333 0 -57.333 -5.66699 -84 -17s-47.334 -45 -62.001 -101l-94 -398h86c66.667 0 120 12 160 36s72 70.667 96 140c1.33301 4 7.33301 7.66699 18 11s19.334 5 26.001 5c9.33301 0 19.666 -1.66699 30.999 -5s15.666 -7 12.999 -11l-30 -117
c-10.667 -40.667 -20 -77.667 -28 -111c-13.333 -52 -22.333 -94.667 -27 -128s-13.667 -77.333 -27 -132c-2.66699 -5.33301 -9.33398 -9.33301 -20.001 -12s-18.667 -4 -24 -4c-13.333 0 -24 1.66699 -32 5s-12 7 -12 11c8 78.667 -3 134 -33 166s-75 48 -135 48h-86
l-98 -412c-2.66699 -10.667 -5 -23 -7 -37s-3 -24.333 -3 -31c0 -30.667 8.66699 -51.667 26 -63s39.333 -17 66 -17h132c98.667 0 189.334 37 272.001 111s136.667 154.333 162 241c0 2.66699 4.66699 4.66699 14 6s16 2 20 2c10.667 0 23 -3.33301 37 -10
s19.667 -12 17 -16c-16 -57.333 -34.667 -130.666 -56 -219.999s-38 -163.333 -50 -222c-73.333 2.66699 -175.333 5 -306 7s-236 3 -316 3s-185.333 -1.33301 -316 -4s-233.334 -4.66699 -308.001 -6c-1.33301 0 -3.33301 3.33301 -6 10s-4 14.667 -4 24s4 20.333 12 33
s14.667 19.667 20 21c78.667 9.33301 128.667 26 150 50s38 63.333 50 118l208 878l8 35c2.66699 11.333 4 22.333 4 33c0 29.333 -6.33301 51 -19 65s-55 25.667 -127 35c-4 1.33301 -6.66699 6.33301 -8 15s-2 15 -2 19c0 9.33301 3.33301 20.666 10 33.999
s13.334 20 20.001 20l270 -6c120 -2.66699 212.667 -4 278 -4c64 0 159 1 285 3s221.667 4.33301 287 7zM1335 1552c-1.33301 -6.66699 -3.66895 -13.668 -7.00195 -21.001s-9 -13.666 -17 -18.999c-6.66699 -4 -13.667 -7.33301 -21 -10s-13.666 -4 -18.999 -4
c-4 0 -8.33301 1 -13 3s-9 4.33301 -13 7l-248 154l-384 -154c-4 -1.33301 -9 -3.33301 -15 -6s-11 -4 -15 -4s-8.66699 1 -14 3s-10.666 5.66699 -15.999 11c-8 8 -12.333 15 -13 21s-1 12.333 -1 19c0 4 1.33301 7.66699 4 11s5.33398 6.33301 8.00098 9l454 332
c4 5.33301 11 10 21 14s18.333 6 25 6c9.33301 0 18 -2 26 -6s13.333 -8.66699 16 -14l238 -332c1.33301 -2.66699 2.66602 -5.66699 3.99902 -9s1.33301 -7 0 -11z" />
    <glyph glyph-name="Edieresis" unicode="&#xcb;" horiz-adv-x="1444" 
d="M1388 1380c-5.33301 -32 -9.99707 -69.333 -13.9971 -112s-7.33301 -80 -10 -112c-1.33301 -21.333 -3 -56.333 -5 -105s-3 -85 -3 -109c0 -4 -5.66699 -7.66699 -17 -11s-21 -5 -29 -5c-6.66699 0 -15.334 1.66699 -26.001 5s-16 7 -16 11c-2.66699 80 -30 155 -82 225
s-118.667 105 -200 105h-56c-29.333 0 -57.333 -5.66699 -84 -17s-47.334 -45 -62.001 -101l-94 -398h86c66.667 0 120 12 160 36s72 70.667 96 140c1.33301 4 7.33301 7.66699 18 11s19.334 5 26.001 5c9.33301 0 19.666 -1.66699 30.999 -5s15.666 -7 12.999 -11l-30 -117
c-10.667 -40.667 -20 -77.667 -28 -111c-13.333 -52 -22.333 -94.667 -27 -128s-13.667 -77.333 -27 -132c-2.66699 -5.33301 -9.33398 -9.33301 -20.001 -12s-18.667 -4 -24 -4c-13.333 0 -24 1.66699 -32 5s-12 7 -12 11c8 78.667 -3 134 -33 166s-75 48 -135 48h-86
l-98 -412c-2.66699 -10.667 -5 -23 -7 -37s-3 -24.333 -3 -31c0 -30.667 8.66699 -51.667 26 -63s39.333 -17 66 -17h132c98.667 0 189.334 37 272.001 111s136.667 154.333 162 241c0 2.66699 4.66699 4.66699 14 6s16 2 20 2c10.667 0 23 -3.33301 37 -10
s19.667 -12 17 -16c-16 -57.333 -34.667 -130.666 -56 -219.999s-38 -163.333 -50 -222c-73.333 2.66699 -175.333 5 -306 7s-236 3 -316 3s-185.333 -1.33301 -316 -4s-233.334 -4.66699 -308.001 -6c-1.33301 0 -3.33301 3.33301 -6 10s-4 14.667 -4 24s4 20.333 12 33
s14.667 19.667 20 21c78.667 9.33301 128.667 26 150 50s38 63.333 50 118l208 878l8 35c2.66699 11.333 4 22.333 4 33c0 29.333 -6.33301 51 -19 65s-55 25.667 -127 35c-4 1.33301 -6.66699 6.33301 -8 15s-2 15 -2 19c0 9.33301 3.33301 20.666 10 33.999
s13.334 20 20.001 20l270 -6c120 -2.66699 212.667 -4 278 -4c64 0 159 1 285 3s221.667 4.33301 287 7zM1379 1702c0 -49.333 -18.333 -92.666 -55 -129.999s-80.334 -56 -131.001 -56c-49.333 0 -92.666 18.667 -129.999 56s-56 80.666 -56 129.999
s18.667 92.666 56 129.999s80.666 56 129.999 56c50.667 0 94.334 -18.667 131.001 -56s55 -80.666 55 -129.999zM875.003 1702c0 -49.333 -18.667 -92.666 -56 -129.999s-80.666 -56 -129.999 -56s-92.666 18.667 -129.999 56s-56 80.666 -56 129.999
s18.667 92.666 56 129.999s80.666 56 129.999 56s92.666 -18.667 129.999 -56s56 -80.666 56 -129.999z" />
    <glyph glyph-name="Igrave" unicode="&#xcc;" horiz-adv-x="1056" 
d="M1070 1354c0 -9.33301 -3.99902 -22 -11.999 -38s-14.667 -24 -20 -24c-77.333 -8 -126.333 -23.667 -147 -47s-38.334 -63.666 -53.001 -120.999l-208 -878c-2.66699 -10.667 -5 -23 -7 -37s-3 -24.333 -3 -31c0 -28 6 -49.667 18 -65s54.667 -27 128 -35
c2.66699 0 5 -4.66699 7 -14s3 -16 3 -20c0 -9.33301 -4 -20.666 -12 -33.999s-14.667 -20 -20 -20c-64 0 -128.667 1.66699 -194 5s-124 5 -176 5s-110 -1.66699 -174 -5s-126 -5 -186 -5c-2.66699 0 -5 3.33301 -7 10s-3 14.667 -3 24c0 8 3.66699 18.667 11 32
s14.333 20.666 21 21.999c78.667 9.33301 128.334 26 149.001 50s37 63.333 49 118l210 878c2.66699 12 5 23.667 7 35s3 22.333 3 33c0 29.333 -6.33301 51 -19 65s-55 25.667 -127 35c-2.66699 1.33301 -5 6.33301 -7 15s-3 15 -3 19c0 9.33301 3.66699 20.666 11 33.999
s13.666 20 18.999 20c64 0 128.667 -1.66699 194 -5s124 -5 176 -5s110.667 1.66699 176 5s126.666 5 183.999 5c2.66699 0 5.33398 -2 8.00098 -6s4 -10.667 4 -20zM803.001 1550c0 -4 -1.99902 -10.334 -5.99902 -19.001s-8 -15 -12 -19c-5.33301 -4 -13.333 -8 -24 -12
s-17.334 -6 -20.001 -6s-5 0.666992 -7 2l-3 2l-370 240c-12 8 -20.667 18.667 -26 32s-8 27.333 -8 42c0 20 5 40.333 15 61s21 37.667 33 51c10.667 12 27.334 23.333 50.001 34s44.667 16 66 16c20 0 35.667 -3 47 -9s19.666 -14.333 24.999 -25l238 -372
c1.33301 -1.33301 2 -3.66602 2 -6.99902v-11z" />
    <glyph glyph-name="Iacute" unicode="&#xcd;" horiz-adv-x="1056" 
d="M1070 1354c0 -9.33301 -3.99902 -22 -11.999 -38s-14.667 -24 -20 -24c-77.333 -8 -126.333 -23.667 -147 -47s-38.334 -63.666 -53.001 -120.999l-208 -878c-2.66699 -10.667 -5 -23 -7 -37s-3 -24.333 -3 -31c0 -28 6 -49.667 18 -65s54.667 -27 128 -35
c2.66699 0 5 -4.66699 7 -14s3 -16 3 -20c0 -9.33301 -4 -20.666 -12 -33.999s-14.667 -20 -20 -20c-64 0 -128.667 1.66699 -194 5s-124 5 -176 5s-110 -1.66699 -174 -5s-126 -5 -186 -5c-2.66699 0 -5 3.33301 -7 10s-3 14.667 -3 24c0 8 3.66699 18.667 11 32
s14.333 20.666 21 21.999c78.667 9.33301 128.334 26 149.001 50s37 63.333 49 118l210 878c2.66699 12 5 23.667 7 35s3 22.333 3 33c0 29.333 -6.33301 51 -19 65s-55 25.667 -127 35c-2.66699 1.33301 -5 6.33301 -7 15s-3 15 -3 19c0 9.33301 3.66699 20.666 11 33.999
s13.666 20 18.999 20c64 0 128.667 -1.66699 194 -5s124 -5 176 -5s110.667 1.66699 176 5s126.666 5 183.999 5c2.66699 0 5.33398 -2 8.00098 -6s4 -10.667 4 -20zM1112 1812c0 -13.333 -2.99805 -27.334 -8.99805 -42.001s-15 -25.334 -27 -32.001l-368 -240l-4 -2
c-2.66699 -1.33301 -4.66699 -2 -6 -2l-7 1c-4.66699 0.666992 -9 2.33398 -13 5.00098l-12 4c-4 1.33301 -8 4 -12 8c-4 5.33301 -8.33301 12 -13 20s-7 14 -7 18s0.333008 7.33301 1 10s1.66699 5.33398 3 8.00098l236 372c5.33301 9.33301 13.666 17.333 24.999 24
s27.666 10 48.999 10c20 0 41 -5 63 -15s39.667 -21.667 53 -35c12 -12 23 -29 33 -51s15 -42.333 15 -61z" />
    </font>
</defs>
</svg>
